M48
METRIC,TZ
T1C0.600
T2C0.800
T3C0.900
T4C1.000
T5C1.020
T6C1.320
T7C1.520
%
G90
G05
T1
X40500Y42500
X40500Y40500
X68500Y40500
X68500Y37960
X69770Y39230
T2
X22000Y45000
X22500Y37500
X26880Y37500
X35500Y45500
X39000Y13500
X40500Y19000
X43419Y2298
X44000Y38000
X46000Y5000
X56500Y37000
X65500Y5000
X78500Y7500
X86120Y7500
X40500Y49000
X40500Y46500
X26500Y26500
X34120Y26500
X11500Y31500
X19120Y31500
X75500Y41500
X75500Y33880
X61500Y41500
X61500Y33880
X38000Y28000
X38000Y25500
X42000Y28000
X42000Y25500
X46500Y28120
X46500Y20500
X19500Y25500
X19500Y23000
X26500Y21500
X34120Y21500
X28500Y15580
X28500Y13040
X28500Y10500
X28500Y7960
X36120Y15580
X36120Y13040
X36120Y10500
X36120Y7960
X52500Y41500
X52500Y33880
X52500Y28120
X52500Y20500
X26880Y42500
X34500Y42500
X26880Y37500
X34500Y37500
X64420Y18120
X64420Y10500
X66960Y18120
X66960Y10500
X69500Y18120
X69500Y10500
X72040Y18120
X72040Y10500
X78500Y12500
X86120Y12500
X3500Y33500
X3500Y25880
X78500Y17500
X86120Y17500
X58000Y17000
X60500Y17000
X11880Y16040
X11880Y13500
X11880Y10960
X11880Y8420
X19500Y16040
X19500Y13500
X19500Y10960
X19500Y8420
X59000Y28120
X59000Y20500
T3
X47500Y41500
X47500Y33880
X3500Y17500
X6040Y17500
X26880Y31500
X34500Y31500
X67500Y27000
X70000Y24500
X72500Y27000
X58000Y13040
X58000Y10500
X13500Y26040
X13500Y23500
T4
X47500Y49500
X50040Y49500
X52580Y49500
X65500Y49500
X68040Y49500
X70580Y49500
X27960Y49500
X30500Y49500
X33040Y49500
T5
X46500Y13500
X49040Y13500
X51580Y13500
T6
X13500Y44500
X13500Y39500
X88500Y38500
X88500Y33500
T7
X85000Y25000
X90080Y25000
T0
M30
