M48
METRIC,TZ
T1C0.600
T2C0.800
T3C0.900
T4C1.000
T5C1.020
T6C1.200
T7C1.320
T8C1.520
T9C3.500
%
G90
G05
T1
X51980Y27270
X53250Y28540
X53250Y26000
T2
X67500Y23250
X6170Y32750
X6170Y25130
X8710Y32750
X8710Y25130
X11250Y32750
X11250Y25130
X13790Y32750
X13790Y25130
X48670Y42620
X48670Y35000
X51210Y42620
X51210Y35000
X53750Y42620
X53750Y35000
X56290Y42620
X56290Y35000
T3
X6000Y40750
X6000Y38210
X72000Y36500
X74540Y36500
X59750Y27500
X62250Y30000
X62250Y25000
X14250Y40750
X14250Y38210
T4
X48170Y20000
X50710Y20000
X53250Y20000
X34170Y20000
X36710Y20000
X39250Y20000
X21710Y20160
X24250Y20160
X26790Y20160
T5
X8210Y5000
X10750Y5000
X13290Y5000
T6
X22250Y31000
X42570Y31000
X22250Y39000
X42570Y39000
T7
X9750Y18500
X9750Y13500
X66250Y18000
X66250Y13000
T8
X63670Y4000
X68750Y4000
T9
X50710Y3340
X36710Y3340
X24250Y3500
T0
M30
