G04 #@! TF.GenerationSoftware,KiCad,Pcbnew,(2017-06-12 revision 8590a2299)-makepkg*
G04 #@! TF.CreationDate,2017-08-12T17:51:50+02:00*
G04 #@! TF.ProjectId,Small psu,536D616C6C207073752E6B696361645F,B*
G04 #@! TF.FileFunction,Copper,L2,Bot,Signal*
G04 #@! TF.FilePolarity,Positive*
%FSLAX46Y46*%
G04 Gerber Fmt 4.6, Leading zero omitted, Abs format (unit mm)*
G04 Created by KiCad (PCBNEW (2017-06-12 revision 8590a2299)-makepkg) date 08/12/17 17:51:50*
%MOMM*%
%LPD*%
G01*
G04 APERTURE LIST*
%ADD10C,0.100000*%
%ADD11C,1.800000*%
%ADD12R,1.800000X1.800000*%
%ADD13O,3.960000X1.980000*%
%ADD14R,3.960000X1.980000*%
%ADD15O,1.730000X2.030000*%
%ADD16R,1.730000X2.030000*%
%ADD17C,3.000000*%
%ADD18R,3.000000X3.000000*%
%ADD19C,1.676868*%
%ADD20R,1.600000X2.400000*%
%ADD21O,1.600000X2.400000*%
%ADD22C,2.400000*%
%ADD23O,2.400000X2.400000*%
%ADD24O,1.800000X1.800000*%
%ADD25R,1.000000X1.000000*%
%ADD26C,1.000000*%
%ADD27R,1.500000X1.250000*%
%ADD28R,1.500000X1.300000*%
%ADD29R,1.300000X1.500000*%
%ADD30C,1.620000*%
%ADD31C,1.500000*%
%ADD32C,0.500000*%
%ADD33C,1.000000*%
%ADD34C,0.254000*%
G04 APERTURE END LIST*
D10*
D11*
X72000000Y36500000D03*
D12*
X74540000Y36500000D03*
D13*
X66250000Y18000000D03*
D14*
X66250000Y13000000D03*
D13*
X9750000Y13500000D03*
D14*
X9750000Y18500000D03*
D15*
X13290000Y5000000D03*
X10750000Y5000000D03*
D16*
X8210000Y5000000D03*
D17*
X68750000Y4000000D03*
D18*
X63670000Y4000000D03*
D19*
X33350000Y12500000D03*
D10*
G36*
X31550000Y11350000D02*
X31550000Y13650000D01*
X35150000Y13050000D01*
X35150000Y11950000D01*
X31550000Y11350000D01*
X31550000Y11350000D01*
G37*
D19*
X39150000Y12500000D03*
D10*
G36*
X40950000Y13650000D02*
X40950000Y11350000D01*
X37350000Y11950000D01*
X37350000Y13050000D01*
X40950000Y13650000D01*
X40950000Y13650000D01*
G37*
D19*
X47250000Y8500000D03*
D10*
G36*
X45450000Y7350000D02*
X45450000Y9650000D01*
X49050000Y9050000D01*
X49050000Y7950000D01*
X45450000Y7350000D01*
X45450000Y7350000D01*
G37*
D19*
X53050000Y8500000D03*
D10*
G36*
X54850000Y9650000D02*
X54850000Y7350000D01*
X51250000Y7950000D01*
X51250000Y9050000D01*
X54850000Y9650000D01*
X54850000Y9650000D01*
G37*
D20*
X56290000Y42620000D03*
D21*
X48670000Y35000000D03*
X53750000Y42620000D03*
X51210000Y35000000D03*
X51210000Y42620000D03*
X53750000Y35000000D03*
X48670000Y42620000D03*
X56290000Y35000000D03*
X13790000Y25130000D03*
X6170000Y32750000D03*
X11250000Y25130000D03*
X8710000Y32750000D03*
X8710000Y25130000D03*
X11250000Y32750000D03*
X6170000Y25130000D03*
D20*
X13790000Y32750000D03*
D11*
X6000000Y40750000D03*
D12*
X6000000Y38210000D03*
D22*
X42570000Y39000000D03*
D23*
X22250000Y39000000D03*
X22250000Y31000000D03*
D22*
X42570000Y31000000D03*
D24*
X48170000Y20000000D03*
X50710000Y20000000D03*
D12*
X53250000Y20000000D03*
D24*
X34170000Y20000000D03*
X36710000Y20000000D03*
D12*
X39250000Y20000000D03*
D25*
X53250000Y26000000D03*
D26*
X53250000Y28540000D03*
X51980000Y27270000D03*
D27*
X21500000Y24000000D03*
X19000000Y24000000D03*
X38000000Y8000000D03*
X40500000Y8000000D03*
D11*
X14250000Y40750000D03*
D12*
X14250000Y38210000D03*
D28*
X52100000Y15000000D03*
X49400000Y15000000D03*
D29*
X47750000Y24650000D03*
X47750000Y27350000D03*
X3750000Y3650000D03*
X3750000Y6350000D03*
X17000000Y7100000D03*
X17000000Y4400000D03*
X67250000Y27150000D03*
X67250000Y29850000D03*
X63000000Y44450000D03*
X63000000Y41750000D03*
X66750000Y41650000D03*
X66750000Y44350000D03*
X17000000Y29650000D03*
X17000000Y32350000D03*
D30*
X62250000Y25000000D03*
X59750000Y27500000D03*
X62250000Y30000000D03*
D12*
X26790000Y20160000D03*
D24*
X24250000Y20160000D03*
X21710000Y20160000D03*
D31*
X67500000Y23250000D03*
D32*
X68250000Y23500000D02*
X69500000Y23500000D01*
X67750000Y23500000D02*
X68250000Y23500000D01*
X67500000Y23250000D02*
X67750000Y23500000D01*
D33*
X10250000Y18500000D02*
X20050000Y18500000D01*
D32*
X17000000Y29650000D02*
X17000000Y27040000D01*
X17000000Y27040000D02*
X15090000Y25130000D01*
X15090000Y25130000D02*
X13790000Y25130000D01*
X56290000Y35000000D02*
X56290000Y35400000D01*
X56290000Y35400000D02*
X62640000Y41750000D01*
X62640000Y41750000D02*
X63000000Y41750000D01*
X67250000Y29850000D02*
X66100000Y29850000D01*
X66100000Y29850000D02*
X60950000Y35000000D01*
X60950000Y35000000D02*
X56290000Y35000000D01*
X21710000Y20160000D02*
X21710000Y23790000D01*
X21710000Y23790000D02*
X21500000Y24000000D01*
D33*
X20050000Y18500000D02*
X21710000Y20160000D01*
D32*
X53050000Y8500000D02*
X49400000Y12150000D01*
X49400000Y12150000D02*
X49400000Y15000000D01*
X49300000Y15000000D02*
X49400000Y15000000D01*
X48170000Y20000000D02*
X48170000Y16230000D01*
X48150000Y16150000D02*
X49300000Y15000000D01*
X48170000Y16230000D02*
X48150000Y16210000D01*
X48150000Y16210000D02*
X48150000Y16150000D01*
D33*
X37750000Y23000000D02*
X36710000Y21960000D01*
X36710000Y21960000D02*
X36710000Y20000000D01*
X45170000Y23000000D02*
X37750000Y23000000D01*
X48170000Y20000000D02*
X45170000Y23000000D01*
D32*
X39150000Y13600000D02*
X36710000Y16040000D01*
X36710000Y16040000D02*
X36710000Y20000000D01*
X39150000Y12500000D02*
X39150000Y13600000D01*
X42570000Y39000000D02*
X51830000Y39000000D01*
X51830000Y39000000D02*
X53750000Y40920000D01*
X53750000Y40920000D02*
X53750000Y42620000D01*
D33*
X34170000Y24297056D02*
X40872944Y31000000D01*
X34170000Y20000000D02*
X34170000Y24297056D01*
X40872944Y31000000D02*
X42570000Y31000000D01*
X42570000Y39000000D02*
X42570000Y31000000D01*
D32*
X33350000Y12500000D02*
X33350000Y19180000D01*
X33350000Y19180000D02*
X34170000Y20000000D01*
D33*
X26790000Y20160000D02*
X34010000Y20160000D01*
X34010000Y20160000D02*
X34170000Y20000000D01*
D32*
X14250000Y40750000D02*
X15522792Y40750000D01*
X15522792Y40750000D02*
X17000000Y39272792D01*
X17000000Y39272792D02*
X17000000Y32350000D01*
X13790000Y32750000D02*
X13790000Y37750000D01*
X13790000Y37750000D02*
X14250000Y38210000D01*
X3750000Y6350000D02*
X6860000Y6350000D01*
X6860000Y6350000D02*
X8210000Y5000000D01*
X17000000Y7100000D02*
X12700000Y7100000D01*
X12700000Y7100000D02*
X10750000Y5150000D01*
X10750000Y5150000D02*
X10750000Y5000000D01*
X59497198Y25000000D02*
X62250000Y25000000D01*
X54407197Y30090001D02*
X59497198Y25000000D01*
X51821506Y30090001D02*
X54407197Y30090001D01*
X48670000Y33241507D02*
X51821506Y30090001D01*
X48670000Y35000000D02*
X48670000Y33241507D01*
X52359988Y31390012D02*
X51210000Y32540000D01*
X51210000Y32540000D02*
X51210000Y35000000D01*
X62250000Y30000000D02*
X60859988Y31390012D01*
X60859988Y31390012D02*
X52359988Y31390012D01*
X52100000Y15000000D02*
X52200000Y15000000D01*
X52200000Y15000000D02*
X63200000Y4000000D01*
X63200000Y4000000D02*
X63670000Y4000000D01*
X52100000Y15000000D02*
X52100000Y16150000D01*
X52100000Y16150000D02*
X53250000Y17300000D01*
X53250000Y17300000D02*
X53250000Y20000000D01*
X53250000Y20000000D02*
X53250000Y26000000D01*
X47750000Y27350000D02*
X51900000Y27350000D01*
X51900000Y27350000D02*
X51980000Y27270000D01*
X40500000Y8000000D02*
X46750000Y8000000D01*
X46750000Y8000000D02*
X47250000Y8500000D01*
X47250000Y8500000D02*
X46159290Y9590710D01*
X46159290Y9590710D02*
X46159290Y11690710D01*
X46159290Y11690710D02*
X39250000Y18600000D01*
X39250000Y18600000D02*
X39250000Y20000000D01*
D33*
X22250000Y39000000D02*
X22250000Y31000000D01*
X24250000Y20160000D02*
X24250000Y29000000D01*
X24250000Y29000000D02*
X22250000Y31000000D01*
D32*
X50710000Y20000000D02*
X50710000Y22840000D01*
X50710000Y22840000D02*
X48900000Y24650000D01*
X48900000Y24650000D02*
X47750000Y24650000D01*
X59750000Y27500000D02*
X66900000Y27500000D01*
X66900000Y27500000D02*
X67250000Y27150000D01*
X62250000Y46500000D02*
X63000000Y45750000D01*
X63000000Y45750000D02*
X63000000Y44450000D01*
X53390000Y46500000D02*
X62250000Y46500000D01*
X51210000Y42620000D02*
X51210000Y44320000D01*
X51210000Y44320000D02*
X53390000Y46500000D01*
X66750000Y44350000D02*
X63100000Y44350000D01*
X63100000Y44350000D02*
X63000000Y44450000D01*
X11250000Y25130000D02*
X11250000Y26830000D01*
X11250000Y26830000D02*
X7580010Y30499990D01*
X7580010Y30499990D02*
X5403701Y30499990D01*
X5403701Y30499990D02*
X4049999Y31853692D01*
X4049999Y31853692D02*
X4049999Y40072791D01*
X4049999Y40072791D02*
X4727208Y40750000D01*
X4727208Y40750000D02*
X6000000Y40750000D01*
D34*
G36*
X77040000Y710000D02*
X710000Y710000D01*
X710000Y3364250D01*
X2465000Y3364250D01*
X2465000Y2773691D01*
X2561673Y2540302D01*
X2740301Y2361673D01*
X2973690Y2265000D01*
X3464250Y2265000D01*
X3623000Y2423750D01*
X3623000Y3523000D01*
X3877000Y3523000D01*
X3877000Y2423750D01*
X4035750Y2265000D01*
X4526310Y2265000D01*
X4759699Y2361673D01*
X4938327Y2540302D01*
X5035000Y2773691D01*
X5035000Y3364250D01*
X4876250Y3523000D01*
X3877000Y3523000D01*
X3623000Y3523000D01*
X2623750Y3523000D01*
X2465000Y3364250D01*
X710000Y3364250D01*
X710000Y7100000D01*
X2452560Y7100000D01*
X2452560Y5600000D01*
X2501843Y5352235D01*
X2642191Y5142191D01*
X2852235Y5001843D01*
X2880209Y4996279D01*
X2740301Y4938327D01*
X2561673Y4759698D01*
X2465000Y4526309D01*
X2465000Y3935750D01*
X2623750Y3777000D01*
X3623000Y3777000D01*
X3623000Y3797000D01*
X3877000Y3797000D01*
X3877000Y3777000D01*
X4876250Y3777000D01*
X5035000Y3935750D01*
X5035000Y4526309D01*
X4938327Y4759698D01*
X4759699Y4938327D01*
X4619791Y4996279D01*
X4647765Y5001843D01*
X4857809Y5142191D01*
X4998157Y5352235D01*
X5020587Y5465000D01*
X6493420Y5465000D01*
X6697560Y5260860D01*
X6697560Y3985000D01*
X6746843Y3737235D01*
X6887191Y3527191D01*
X7097235Y3386843D01*
X7345000Y3337560D01*
X9075000Y3337560D01*
X9322765Y3386843D01*
X9532809Y3527191D01*
X9673157Y3737235D01*
X9679901Y3771141D01*
X9689340Y3757015D01*
X10175975Y3431856D01*
X10750000Y3317675D01*
X11324025Y3431856D01*
X11810660Y3757015D01*
X12020000Y4070315D01*
X12229340Y3757015D01*
X12715975Y3431856D01*
X13290000Y3317675D01*
X13864025Y3431856D01*
X14350660Y3757015D01*
X14589356Y4114250D01*
X15715000Y4114250D01*
X15715000Y3523691D01*
X15811673Y3290302D01*
X15990301Y3111673D01*
X16223690Y3015000D01*
X16714250Y3015000D01*
X16873000Y3173750D01*
X16873000Y4273000D01*
X17127000Y4273000D01*
X17127000Y3173750D01*
X17285750Y3015000D01*
X17776310Y3015000D01*
X18009699Y3111673D01*
X18188327Y3290302D01*
X18275186Y3500000D01*
X21818275Y3500000D01*
X21999822Y2587300D01*
X22516825Y1813550D01*
X23290575Y1296547D01*
X24203275Y1115000D01*
X24296725Y1115000D01*
X25209425Y1296547D01*
X25983175Y1813550D01*
X26500178Y2587300D01*
X26649899Y3340000D01*
X34278275Y3340000D01*
X34459822Y2427300D01*
X34976825Y1653550D01*
X35750575Y1136547D01*
X36663275Y955000D01*
X36756725Y955000D01*
X37669425Y1136547D01*
X38443175Y1653550D01*
X38960178Y2427300D01*
X39141725Y3340000D01*
X48278275Y3340000D01*
X48459822Y2427300D01*
X48976825Y1653550D01*
X49750575Y1136547D01*
X50663275Y955000D01*
X50756725Y955000D01*
X51669425Y1136547D01*
X52443175Y1653550D01*
X52960178Y2427300D01*
X53141725Y3340000D01*
X52960178Y4252700D01*
X52443175Y5026450D01*
X51669425Y5543453D01*
X50756725Y5725000D01*
X50663275Y5725000D01*
X49750575Y5543453D01*
X48976825Y5026450D01*
X48459822Y4252700D01*
X48278275Y3340000D01*
X39141725Y3340000D01*
X38960178Y4252700D01*
X38443175Y5026450D01*
X37669425Y5543453D01*
X36756725Y5725000D01*
X36663275Y5725000D01*
X35750575Y5543453D01*
X34976825Y5026450D01*
X34459822Y4252700D01*
X34278275Y3340000D01*
X26649899Y3340000D01*
X26681725Y3500000D01*
X26500178Y4412700D01*
X25983175Y5186450D01*
X25209425Y5703453D01*
X24296725Y5885000D01*
X24203275Y5885000D01*
X23290575Y5703453D01*
X22516825Y5186450D01*
X21999822Y4412700D01*
X21818275Y3500000D01*
X18275186Y3500000D01*
X18285000Y3523691D01*
X18285000Y4114250D01*
X18126250Y4273000D01*
X17127000Y4273000D01*
X16873000Y4273000D01*
X15873750Y4273000D01*
X15715000Y4114250D01*
X14589356Y4114250D01*
X14675819Y4243650D01*
X14790000Y4817675D01*
X14790000Y5182325D01*
X14675819Y5756350D01*
X14369359Y6215000D01*
X15729413Y6215000D01*
X15751843Y6102235D01*
X15892191Y5892191D01*
X16102235Y5751843D01*
X16130209Y5746279D01*
X15990301Y5688327D01*
X15811673Y5509698D01*
X15715000Y5276309D01*
X15715000Y4685750D01*
X15873750Y4527000D01*
X16873000Y4527000D01*
X16873000Y4547000D01*
X17127000Y4547000D01*
X17127000Y4527000D01*
X18126250Y4527000D01*
X18285000Y4685750D01*
X18285000Y5276309D01*
X18188327Y5509698D01*
X18009699Y5688327D01*
X17869791Y5746279D01*
X17897765Y5751843D01*
X18107809Y5892191D01*
X18248157Y6102235D01*
X18297440Y6350000D01*
X18297440Y7714250D01*
X36615000Y7714250D01*
X36615000Y7248690D01*
X36711673Y7015301D01*
X36890302Y6836673D01*
X37123691Y6740000D01*
X37714250Y6740000D01*
X37873000Y6898750D01*
X37873000Y7873000D01*
X36773750Y7873000D01*
X36615000Y7714250D01*
X18297440Y7714250D01*
X18297440Y7850000D01*
X18248157Y8097765D01*
X18107809Y8307809D01*
X17897765Y8448157D01*
X17650000Y8497440D01*
X16350000Y8497440D01*
X16102235Y8448157D01*
X15892191Y8307809D01*
X15751843Y8097765D01*
X15729413Y7985000D01*
X12700000Y7985000D01*
X12361325Y7917633D01*
X12074210Y7725790D01*
X12074208Y7725787D01*
X10984167Y6635746D01*
X10750000Y6682325D01*
X10175975Y6568144D01*
X9689340Y6242985D01*
X9679901Y6228859D01*
X9673157Y6262765D01*
X9532809Y6472809D01*
X9322765Y6613157D01*
X9075000Y6662440D01*
X7799140Y6662440D01*
X7485790Y6975790D01*
X7198675Y7167633D01*
X7124603Y7182367D01*
X6860000Y7235001D01*
X6859995Y7235000D01*
X5020587Y7235000D01*
X4998157Y7347765D01*
X4857809Y7557809D01*
X4647765Y7698157D01*
X4400000Y7747440D01*
X3100000Y7747440D01*
X2852235Y7698157D01*
X2642191Y7557809D01*
X2501843Y7347765D01*
X2452560Y7100000D01*
X710000Y7100000D01*
X710000Y8751310D01*
X36615000Y8751310D01*
X36615000Y8285750D01*
X36773750Y8127000D01*
X37873000Y8127000D01*
X37873000Y9101250D01*
X37714250Y9260000D01*
X37123691Y9260000D01*
X36890302Y9163327D01*
X36711673Y8984699D01*
X36615000Y8751310D01*
X710000Y8751310D01*
X710000Y13121135D01*
X7179782Y13121135D01*
X7210095Y12995472D01*
X7521149Y12440754D01*
X8020807Y12047297D01*
X8633000Y11875000D01*
X9623000Y11875000D01*
X9623000Y13373000D01*
X9877000Y13373000D01*
X9877000Y11875000D01*
X10867000Y11875000D01*
X11479193Y12047297D01*
X11978851Y12440754D01*
X12289905Y12995472D01*
X12320218Y13121135D01*
X12200740Y13373000D01*
X9877000Y13373000D01*
X9623000Y13373000D01*
X7299260Y13373000D01*
X7179782Y13121135D01*
X710000Y13121135D01*
X710000Y13878865D01*
X7179782Y13878865D01*
X7299260Y13627000D01*
X9623000Y13627000D01*
X9623000Y15125000D01*
X9877000Y15125000D01*
X9877000Y13627000D01*
X12200740Y13627000D01*
X12320218Y13878865D01*
X12289905Y14004528D01*
X11978851Y14559246D01*
X11479193Y14952703D01*
X10867000Y15125000D01*
X9877000Y15125000D01*
X9623000Y15125000D01*
X8633000Y15125000D01*
X8020807Y14952703D01*
X7521149Y14559246D01*
X7210095Y14004528D01*
X7179782Y13878865D01*
X710000Y13878865D01*
X710000Y19490000D01*
X7122560Y19490000D01*
X7122560Y17510000D01*
X7171843Y17262235D01*
X7312191Y17052191D01*
X7522235Y16911843D01*
X7770000Y16862560D01*
X11730000Y16862560D01*
X11977765Y16911843D01*
X12187809Y17052191D01*
X12328157Y17262235D01*
X12348598Y17365000D01*
X20050000Y17365000D01*
X20484346Y17451397D01*
X20852566Y17697434D01*
X21790080Y18634947D01*
X22327491Y18741845D01*
X22825481Y19074591D01*
X22980000Y19305845D01*
X23134519Y19074591D01*
X23632509Y18741845D01*
X24219928Y18625000D01*
X24280072Y18625000D01*
X24867491Y18741845D01*
X25289534Y19023845D01*
X25291843Y19012235D01*
X25432191Y18802191D01*
X25642235Y18661843D01*
X25890000Y18612560D01*
X27690000Y18612560D01*
X27937765Y18661843D01*
X28147809Y18802191D01*
X28288157Y19012235D01*
X28290696Y19025000D01*
X32465000Y19025000D01*
X32465000Y14153871D01*
X31656438Y14288631D01*
X31302235Y14248157D01*
X31092191Y14107809D01*
X30951843Y13897765D01*
X30902560Y13650000D01*
X30902560Y11350000D01*
X31000714Y11007270D01*
X31173683Y10823156D01*
X31403943Y10719250D01*
X31656438Y10711369D01*
X35256438Y11311369D01*
X35397765Y11351843D01*
X35607809Y11492191D01*
X35748157Y11702235D01*
X35797440Y11950000D01*
X35797440Y13050000D01*
X35780750Y13196057D01*
X35676844Y13426317D01*
X35492730Y13599286D01*
X35256438Y13688631D01*
X34235000Y13858871D01*
X34235000Y18471948D01*
X34787491Y18581845D01*
X35285481Y18914591D01*
X35440000Y19145845D01*
X35594519Y18914591D01*
X35825000Y18760589D01*
X35825000Y16040005D01*
X35824999Y16040000D01*
X35881190Y15757516D01*
X35892367Y15701325D01*
X36010711Y15524210D01*
X36084210Y15414210D01*
X37728900Y13769521D01*
X37243562Y13688631D01*
X37102235Y13648157D01*
X36892191Y13507809D01*
X36751843Y13297765D01*
X36702560Y13050000D01*
X36702560Y11950000D01*
X36719250Y11803943D01*
X36823156Y11573683D01*
X37007270Y11400714D01*
X37243562Y11311369D01*
X40843562Y10711369D01*
X41197765Y10751843D01*
X41407809Y10892191D01*
X41548157Y11102235D01*
X41597440Y11350000D01*
X41597440Y13650000D01*
X41499286Y13992730D01*
X41326317Y14176844D01*
X41096057Y14280750D01*
X40843562Y14288631D01*
X39845003Y14122205D01*
X39775790Y14225790D01*
X39775787Y14225792D01*
X37595000Y16406580D01*
X37595000Y18760589D01*
X37749534Y18863845D01*
X37751843Y18852235D01*
X37892191Y18642191D01*
X38102235Y18501843D01*
X38350000Y18452560D01*
X38394327Y18452560D01*
X38412268Y18362367D01*
X38432367Y18261325D01*
X38606978Y18000000D01*
X38624210Y17974210D01*
X45274290Y11324131D01*
X45274290Y10256391D01*
X45202235Y10248157D01*
X44992191Y10107809D01*
X44851843Y9897765D01*
X44802560Y9650000D01*
X44802560Y8885000D01*
X41839982Y8885000D01*
X41707809Y9082809D01*
X41497765Y9223157D01*
X41250000Y9272440D01*
X39750000Y9272440D01*
X39502235Y9223157D01*
X39292191Y9082809D01*
X39251346Y9021680D01*
X39109698Y9163327D01*
X38876309Y9260000D01*
X38285750Y9260000D01*
X38127000Y9101250D01*
X38127000Y8127000D01*
X38147000Y8127000D01*
X38147000Y7873000D01*
X38127000Y7873000D01*
X38127000Y6898750D01*
X38285750Y6740000D01*
X38876309Y6740000D01*
X39109698Y6836673D01*
X39251346Y6978320D01*
X39292191Y6917191D01*
X39502235Y6776843D01*
X39750000Y6727560D01*
X41250000Y6727560D01*
X41497765Y6776843D01*
X41707809Y6917191D01*
X41839982Y7115000D01*
X44869861Y7115000D01*
X44900714Y7007270D01*
X45073683Y6823156D01*
X45303943Y6719250D01*
X45556438Y6711369D01*
X49156438Y7311369D01*
X49297765Y7351843D01*
X49507809Y7492191D01*
X49648157Y7702235D01*
X49697440Y7950000D01*
X49697440Y9050000D01*
X49680750Y9196057D01*
X49576844Y9426317D01*
X49392730Y9599286D01*
X49156438Y9688631D01*
X47044290Y10040656D01*
X47044290Y11690705D01*
X47044291Y11690710D01*
X46976923Y12029384D01*
X46976923Y12029385D01*
X46785080Y12316500D01*
X46785077Y12316502D01*
X40518838Y18582742D01*
X40607809Y18642191D01*
X40748157Y18852235D01*
X40797440Y19100000D01*
X40797440Y20900000D01*
X40748157Y21147765D01*
X40607809Y21357809D01*
X40397765Y21498157D01*
X40150000Y21547440D01*
X38350000Y21547440D01*
X38102235Y21498157D01*
X37892191Y21357809D01*
X37845000Y21287183D01*
X37845000Y21489868D01*
X38220132Y21865000D01*
X44699868Y21865000D01*
X46614875Y19949993D01*
X46721773Y19412581D01*
X47054519Y18914591D01*
X47285000Y18760589D01*
X47285000Y16310549D01*
X47264999Y16210000D01*
X47265000Y16209995D01*
X47265000Y16150005D01*
X47264999Y16150000D01*
X47273392Y16107809D01*
X47332367Y15811325D01*
X47470756Y15604210D01*
X47524210Y15524210D01*
X48002560Y15045860D01*
X48002560Y14350000D01*
X48051843Y14102235D01*
X48192191Y13892191D01*
X48402235Y13751843D01*
X48515000Y13729413D01*
X48515000Y12150005D01*
X48514999Y12150000D01*
X48567972Y11883691D01*
X48582367Y11811325D01*
X48767836Y11533750D01*
X48774210Y11524210D01*
X50791558Y9506862D01*
X50651843Y9297765D01*
X50602560Y9050000D01*
X50602560Y7950000D01*
X50619250Y7803943D01*
X50723156Y7573683D01*
X50907270Y7400714D01*
X51143562Y7311369D01*
X54743562Y6711369D01*
X55097765Y6751843D01*
X55307809Y6892191D01*
X55448157Y7102235D01*
X55497440Y7350000D01*
X55497440Y9650000D01*
X55399286Y9992730D01*
X55226317Y10176844D01*
X54996057Y10280750D01*
X54743562Y10288631D01*
X52831607Y9969972D01*
X50285000Y12516580D01*
X50285000Y13729413D01*
X50397765Y13751843D01*
X50607809Y13892191D01*
X50748157Y14102235D01*
X50750000Y14111500D01*
X50751843Y14102235D01*
X50892191Y13892191D01*
X51102235Y13751843D01*
X51350000Y13702560D01*
X52245860Y13702560D01*
X61522560Y4425861D01*
X61522560Y2500000D01*
X61571843Y2252235D01*
X61712191Y2042191D01*
X61922235Y1901843D01*
X62170000Y1852560D01*
X65170000Y1852560D01*
X65417765Y1901843D01*
X65627809Y2042191D01*
X65768157Y2252235D01*
X65814661Y2486030D01*
X67415635Y2486030D01*
X67575418Y2167261D01*
X68366187Y1857277D01*
X69215387Y1873503D01*
X69924582Y2167261D01*
X70084365Y2486030D01*
X68750000Y3820395D01*
X67415635Y2486030D01*
X65814661Y2486030D01*
X65817440Y2500000D01*
X65817440Y4383813D01*
X66607277Y4383813D01*
X66623503Y3534613D01*
X66917261Y2825418D01*
X67236030Y2665635D01*
X68570395Y4000000D01*
X68929605Y4000000D01*
X70263970Y2665635D01*
X70582739Y2825418D01*
X70892723Y3616187D01*
X70876497Y4465387D01*
X70582739Y5174582D01*
X70263970Y5334365D01*
X68929605Y4000000D01*
X68570395Y4000000D01*
X67236030Y5334365D01*
X66917261Y5174582D01*
X66607277Y4383813D01*
X65817440Y4383813D01*
X65817440Y5500000D01*
X65814662Y5513970D01*
X67415635Y5513970D01*
X68750000Y4179605D01*
X70084365Y5513970D01*
X69924582Y5832739D01*
X69133813Y6142723D01*
X68284613Y6126497D01*
X67575418Y5832739D01*
X67415635Y5513970D01*
X65814662Y5513970D01*
X65768157Y5747765D01*
X65627809Y5957809D01*
X65417765Y6098157D01*
X65170000Y6147440D01*
X62304139Y6147440D01*
X55737330Y12714250D01*
X63635000Y12714250D01*
X63635000Y11883691D01*
X63731673Y11650302D01*
X63910301Y11471673D01*
X64143690Y11375000D01*
X65964250Y11375000D01*
X66123000Y11533750D01*
X66123000Y12873000D01*
X66377000Y12873000D01*
X66377000Y11533750D01*
X66535750Y11375000D01*
X68356310Y11375000D01*
X68589699Y11471673D01*
X68768327Y11650302D01*
X68865000Y11883691D01*
X68865000Y12714250D01*
X68706250Y12873000D01*
X66377000Y12873000D01*
X66123000Y12873000D01*
X63793750Y12873000D01*
X63635000Y12714250D01*
X55737330Y12714250D01*
X54335271Y14116309D01*
X63635000Y14116309D01*
X63635000Y13285750D01*
X63793750Y13127000D01*
X66123000Y13127000D01*
X66123000Y14466250D01*
X66377000Y14466250D01*
X66377000Y13127000D01*
X68706250Y13127000D01*
X68865000Y13285750D01*
X68865000Y14116309D01*
X68768327Y14349698D01*
X68589699Y14528327D01*
X68356310Y14625000D01*
X66535750Y14625000D01*
X66377000Y14466250D01*
X66123000Y14466250D01*
X65964250Y14625000D01*
X64143690Y14625000D01*
X63910301Y14528327D01*
X63731673Y14349698D01*
X63635000Y14116309D01*
X54335271Y14116309D01*
X53497440Y14954140D01*
X53497440Y15650000D01*
X53448157Y15897765D01*
X53308442Y16106862D01*
X53875787Y16674208D01*
X53875790Y16674210D01*
X54003975Y16866054D01*
X54067634Y16961326D01*
X54135001Y17300000D01*
X54135000Y17300005D01*
X54135000Y18000000D01*
X63583769Y18000000D01*
X63707465Y17378139D01*
X64059720Y16850951D01*
X64586908Y16498696D01*
X65208769Y16375000D01*
X67291231Y16375000D01*
X67913092Y16498696D01*
X68440280Y16850951D01*
X68792535Y17378139D01*
X68916231Y18000000D01*
X68792535Y18621861D01*
X68440280Y19149049D01*
X67913092Y19501304D01*
X67291231Y19625000D01*
X65208769Y19625000D01*
X64586908Y19501304D01*
X64059720Y19149049D01*
X63707465Y18621861D01*
X63583769Y18000000D01*
X54135000Y18000000D01*
X54135000Y18452560D01*
X54150000Y18452560D01*
X54397765Y18501843D01*
X54607809Y18642191D01*
X54748157Y18852235D01*
X54797440Y19100000D01*
X54797440Y20900000D01*
X54748157Y21147765D01*
X54607809Y21357809D01*
X54397765Y21498157D01*
X54150000Y21547440D01*
X54135000Y21547440D01*
X54135000Y24993541D01*
X54207809Y25042191D01*
X54348157Y25252235D01*
X54397440Y25500000D01*
X54397440Y26500000D01*
X54348157Y26747765D01*
X54207809Y26957809D01*
X53997765Y27098157D01*
X53750000Y27147440D01*
X53114894Y27147440D01*
X53115108Y27392606D01*
X53555375Y27423783D01*
X53823352Y27534783D01*
X53860499Y27749896D01*
X53250000Y28360395D01*
X53235858Y28346252D01*
X53056253Y28525857D01*
X53070395Y28540000D01*
X53056253Y28554142D01*
X53235858Y28733747D01*
X53250000Y28719605D01*
X53264143Y28733747D01*
X53443748Y28554142D01*
X53429605Y28540000D01*
X54040104Y27929501D01*
X54255217Y27966648D01*
X54398112Y28394972D01*
X54366217Y28845375D01*
X54342157Y28903461D01*
X58871406Y24374213D01*
X58871408Y24374210D01*
X59158523Y24182367D01*
X59497198Y24115000D01*
X61091700Y24115000D01*
X61430405Y23775703D01*
X61961311Y23555252D01*
X62536167Y23554750D01*
X63067457Y23774275D01*
X63474297Y24180405D01*
X63694748Y24711311D01*
X63695250Y25286167D01*
X63475725Y25817457D01*
X63069595Y26224297D01*
X62538689Y26444748D01*
X61963833Y26445250D01*
X61432543Y26225725D01*
X61091222Y25885000D01*
X59863777Y25885000D01*
X59693728Y26055049D01*
X60036167Y26054750D01*
X60567457Y26274275D01*
X60908778Y26615000D01*
X65952560Y26615000D01*
X65952560Y26400000D01*
X66001843Y26152235D01*
X66142191Y25942191D01*
X66352235Y25801843D01*
X66600000Y25752560D01*
X67900000Y25752560D01*
X68147765Y25801843D01*
X68357809Y25942191D01*
X68498157Y26152235D01*
X68547440Y26400000D01*
X68547440Y27900000D01*
X68498157Y28147765D01*
X68357809Y28357809D01*
X68147765Y28498157D01*
X68138500Y28500000D01*
X68147765Y28501843D01*
X68357809Y28642191D01*
X68498157Y28852235D01*
X68547440Y29100000D01*
X68547440Y30600000D01*
X68498157Y30847765D01*
X68357809Y31057809D01*
X68147765Y31198157D01*
X67900000Y31247440D01*
X66600000Y31247440D01*
X66352235Y31198157D01*
X66143138Y31058442D01*
X61575790Y35625790D01*
X61406846Y35738674D01*
X61288675Y35817633D01*
X61232484Y35828810D01*
X60950000Y35885001D01*
X60949995Y35885000D01*
X58026580Y35885000D01*
X58337588Y36196009D01*
X70464735Y36196009D01*
X70697932Y35631629D01*
X71129357Y35199449D01*
X71693330Y34965267D01*
X72303991Y34964735D01*
X72868371Y35197932D01*
X73038712Y35367975D01*
X73041843Y35352235D01*
X73182191Y35142191D01*
X73392235Y35001843D01*
X73640000Y34952560D01*
X75440000Y34952560D01*
X75687765Y35001843D01*
X75897809Y35142191D01*
X76038157Y35352235D01*
X76087440Y35600000D01*
X76087440Y37400000D01*
X76038157Y37647765D01*
X75897809Y37857809D01*
X75687765Y37998157D01*
X75440000Y38047440D01*
X73640000Y38047440D01*
X73392235Y37998157D01*
X73182191Y37857809D01*
X73041843Y37647765D01*
X73038739Y37632161D01*
X72870643Y37800551D01*
X72306670Y38034733D01*
X71696009Y38035265D01*
X71131629Y37802068D01*
X70699449Y37370643D01*
X70465267Y36806670D01*
X70464735Y36196009D01*
X58337588Y36196009D01*
X62494139Y40352560D01*
X63650000Y40352560D01*
X63897765Y40401843D01*
X64107809Y40542191D01*
X64248157Y40752235D01*
X64297440Y41000000D01*
X64297440Y41364250D01*
X65465000Y41364250D01*
X65465000Y40773691D01*
X65561673Y40540302D01*
X65740301Y40361673D01*
X65973690Y40265000D01*
X66464250Y40265000D01*
X66623000Y40423750D01*
X66623000Y41523000D01*
X66877000Y41523000D01*
X66877000Y40423750D01*
X67035750Y40265000D01*
X67526310Y40265000D01*
X67759699Y40361673D01*
X67938327Y40540302D01*
X68035000Y40773691D01*
X68035000Y41364250D01*
X67876250Y41523000D01*
X66877000Y41523000D01*
X66623000Y41523000D01*
X65623750Y41523000D01*
X65465000Y41364250D01*
X64297440Y41364250D01*
X64297440Y42500000D01*
X64248157Y42747765D01*
X64107809Y42957809D01*
X63897765Y43098157D01*
X63888500Y43100000D01*
X63897765Y43101843D01*
X64107809Y43242191D01*
X64248157Y43452235D01*
X64250696Y43465000D01*
X65479413Y43465000D01*
X65501843Y43352235D01*
X65642191Y43142191D01*
X65852235Y43001843D01*
X65880209Y42996279D01*
X65740301Y42938327D01*
X65561673Y42759698D01*
X65465000Y42526309D01*
X65465000Y41935750D01*
X65623750Y41777000D01*
X66623000Y41777000D01*
X66623000Y41797000D01*
X66877000Y41797000D01*
X66877000Y41777000D01*
X67876250Y41777000D01*
X68035000Y41935750D01*
X68035000Y42526309D01*
X67938327Y42759698D01*
X67759699Y42938327D01*
X67619791Y42996279D01*
X67647765Y43001843D01*
X67857809Y43142191D01*
X67998157Y43352235D01*
X68047440Y43600000D01*
X68047440Y45100000D01*
X67998157Y45347765D01*
X67857809Y45557809D01*
X67647765Y45698157D01*
X67400000Y45747440D01*
X66100000Y45747440D01*
X65852235Y45698157D01*
X65642191Y45557809D01*
X65501843Y45347765D01*
X65479413Y45235000D01*
X64290478Y45235000D01*
X64248157Y45447765D01*
X64107809Y45657809D01*
X63897765Y45798157D01*
X63874501Y45802784D01*
X63817633Y46088675D01*
X63769089Y46161326D01*
X63625790Y46375790D01*
X63625787Y46375792D01*
X62875790Y47125790D01*
X62588675Y47317633D01*
X62532484Y47328810D01*
X62250000Y47385001D01*
X62249995Y47385000D01*
X53390005Y47385000D01*
X53390000Y47385001D01*
X53051326Y47317634D01*
X53051324Y47317633D01*
X53051325Y47317633D01*
X52764210Y47125790D01*
X52764208Y47125787D01*
X50584210Y44945790D01*
X50392367Y44658675D01*
X50392367Y44658674D01*
X50324999Y44320000D01*
X50325000Y44319995D01*
X50325000Y44157310D01*
X50195302Y44070648D01*
X49942493Y43692293D01*
X49594896Y44124500D01*
X49101819Y44394367D01*
X49019039Y44411904D01*
X48797000Y44289915D01*
X48797000Y42747000D01*
X48817000Y42747000D01*
X48817000Y42493000D01*
X48797000Y42493000D01*
X48797000Y40950085D01*
X49019039Y40828096D01*
X49101819Y40845633D01*
X49594896Y41115500D01*
X49942493Y41547707D01*
X50195302Y41169352D01*
X50660849Y40858283D01*
X51210000Y40749050D01*
X51759151Y40858283D01*
X52224698Y41169352D01*
X52480000Y41551438D01*
X52735302Y41169352D01*
X52742778Y41164357D01*
X51463420Y39885000D01*
X44189799Y39885000D01*
X44126545Y40038086D01*
X43610801Y40554730D01*
X42936605Y40834681D01*
X42206597Y40835318D01*
X41531914Y40556545D01*
X41015270Y40040801D01*
X40735319Y39366605D01*
X40734682Y38636597D01*
X41013455Y37961914D01*
X41435000Y37539633D01*
X41435000Y32459800D01*
X41109633Y32135000D01*
X40872944Y32135000D01*
X40438598Y32048603D01*
X40070378Y31802566D01*
X33367434Y25099622D01*
X33121397Y24731402D01*
X33035000Y24297056D01*
X33035000Y21295000D01*
X28290696Y21295000D01*
X28288157Y21307765D01*
X28147809Y21517809D01*
X27937765Y21658157D01*
X27690000Y21707440D01*
X25890000Y21707440D01*
X25642235Y21658157D01*
X25432191Y21517809D01*
X25385000Y21447183D01*
X25385000Y29000000D01*
X25298603Y29434346D01*
X25052566Y29802566D01*
X24076848Y30778284D01*
X24120950Y31000000D01*
X23981269Y31702224D01*
X23583491Y32297541D01*
X23385000Y32430168D01*
X23385000Y37569832D01*
X23583491Y37702459D01*
X23981269Y38297776D01*
X24120950Y39000000D01*
X23981269Y39702224D01*
X23583491Y40297541D01*
X22988174Y40695319D01*
X22285950Y40835000D01*
X22214050Y40835000D01*
X21511826Y40695319D01*
X20916509Y40297541D01*
X20518731Y39702224D01*
X20379050Y39000000D01*
X20518731Y38297776D01*
X20916509Y37702459D01*
X21115000Y37569832D01*
X21115000Y32430168D01*
X20916509Y32297541D01*
X20518731Y31702224D01*
X20379050Y31000000D01*
X20518731Y30297776D01*
X20916509Y29702459D01*
X21511826Y29304681D01*
X22214050Y29165000D01*
X22285950Y29165000D01*
X22447695Y29197173D01*
X23115000Y28529868D01*
X23115000Y21216197D01*
X22980000Y21014155D01*
X22825481Y21245409D01*
X22595000Y21399411D01*
X22595000Y22841814D01*
X22707809Y22917191D01*
X22848157Y23127235D01*
X22897440Y23375000D01*
X22897440Y24625000D01*
X22848157Y24872765D01*
X22707809Y25082809D01*
X22497765Y25223157D01*
X22250000Y25272440D01*
X20750000Y25272440D01*
X20502235Y25223157D01*
X20292191Y25082809D01*
X20251346Y25021680D01*
X20109698Y25163327D01*
X19876309Y25260000D01*
X19285750Y25260000D01*
X19127000Y25101250D01*
X19127000Y24127000D01*
X19147000Y24127000D01*
X19147000Y23873000D01*
X19127000Y23873000D01*
X19127000Y22898750D01*
X19285750Y22740000D01*
X19876309Y22740000D01*
X20109698Y22836673D01*
X20251346Y22978320D01*
X20292191Y22917191D01*
X20502235Y22776843D01*
X20750000Y22727560D01*
X20825000Y22727560D01*
X20825000Y21399411D01*
X20594519Y21245409D01*
X20261773Y20747419D01*
X20154875Y20210008D01*
X19579868Y19635000D01*
X12348598Y19635000D01*
X12328157Y19737765D01*
X12187809Y19947809D01*
X11977765Y20088157D01*
X11730000Y20137440D01*
X7770000Y20137440D01*
X7522235Y20088157D01*
X7312191Y19947809D01*
X7171843Y19737765D01*
X7122560Y19490000D01*
X710000Y19490000D01*
X710000Y40072791D01*
X3164998Y40072791D01*
X3164999Y40072786D01*
X3164999Y31853697D01*
X3164998Y31853692D01*
X3215462Y31600000D01*
X3232366Y31515017D01*
X3424209Y31227902D01*
X4777909Y29874203D01*
X4777911Y29874200D01*
X5065026Y29682357D01*
X5121217Y29671180D01*
X5403701Y29614989D01*
X5403706Y29614990D01*
X7213430Y29614990D01*
X10242778Y26585643D01*
X10235302Y26580648D01*
X9980000Y26198562D01*
X9724698Y26580648D01*
X9259151Y26891717D01*
X8710000Y27000950D01*
X8160849Y26891717D01*
X7695302Y26580648D01*
X7440000Y26198562D01*
X7184698Y26580648D01*
X6719151Y26891717D01*
X6170000Y27000950D01*
X5620849Y26891717D01*
X5155302Y26580648D01*
X4844233Y26115101D01*
X4735000Y25565950D01*
X4735000Y24694050D01*
X4844233Y24144899D01*
X5155302Y23679352D01*
X5620849Y23368283D01*
X6170000Y23259050D01*
X6719151Y23368283D01*
X7184698Y23679352D01*
X7440000Y24061438D01*
X7695302Y23679352D01*
X8160849Y23368283D01*
X8710000Y23259050D01*
X9259151Y23368283D01*
X9724698Y23679352D01*
X9980000Y24061438D01*
X10235302Y23679352D01*
X10700849Y23368283D01*
X11250000Y23259050D01*
X11799151Y23368283D01*
X12264698Y23679352D01*
X12520000Y24061438D01*
X12775302Y23679352D01*
X13240849Y23368283D01*
X13790000Y23259050D01*
X14339151Y23368283D01*
X14804698Y23679352D01*
X14828016Y23714250D01*
X17615000Y23714250D01*
X17615000Y23248690D01*
X17711673Y23015301D01*
X17890302Y22836673D01*
X18123691Y22740000D01*
X18714250Y22740000D01*
X18873000Y22898750D01*
X18873000Y23873000D01*
X17773750Y23873000D01*
X17615000Y23714250D01*
X14828016Y23714250D01*
X15115767Y24144899D01*
X15137560Y24254459D01*
X15372484Y24301190D01*
X15428675Y24312367D01*
X15715790Y24504210D01*
X15962889Y24751310D01*
X17615000Y24751310D01*
X17615000Y24285750D01*
X17773750Y24127000D01*
X18873000Y24127000D01*
X18873000Y25101250D01*
X18714250Y25260000D01*
X18123691Y25260000D01*
X17890302Y25163327D01*
X17711673Y24984699D01*
X17615000Y24751310D01*
X15962889Y24751310D01*
X17625787Y26414208D01*
X17625790Y26414210D01*
X17817633Y26701325D01*
X17828810Y26757516D01*
X17885001Y27040000D01*
X17885000Y27040005D01*
X17885000Y28299304D01*
X17897765Y28301843D01*
X18107809Y28442191D01*
X18248157Y28652235D01*
X18297440Y28900000D01*
X18297440Y30400000D01*
X18248157Y30647765D01*
X18107809Y30857809D01*
X17897765Y30998157D01*
X17888500Y31000000D01*
X17897765Y31001843D01*
X18107809Y31142191D01*
X18248157Y31352235D01*
X18297440Y31600000D01*
X18297440Y33100000D01*
X18248157Y33347765D01*
X18107809Y33557809D01*
X17897765Y33698157D01*
X17885000Y33700696D01*
X17885000Y39272787D01*
X17885001Y39272792D01*
X17817634Y39611466D01*
X17735681Y39734117D01*
X17625790Y39898582D01*
X17625787Y39898584D01*
X16148582Y41375790D01*
X15928265Y41523000D01*
X15861467Y41567633D01*
X15805276Y41578810D01*
X15538608Y41631855D01*
X15120643Y42050551D01*
X14556670Y42284733D01*
X13946009Y42285265D01*
X13381629Y42052068D01*
X12949449Y41620643D01*
X12715267Y41056670D01*
X12714735Y40446009D01*
X12947932Y39881629D01*
X13117975Y39711288D01*
X13102235Y39708157D01*
X12892191Y39567809D01*
X12751843Y39357765D01*
X12702560Y39110000D01*
X12702560Y37310000D01*
X12751843Y37062235D01*
X12892191Y36852191D01*
X12905000Y36843632D01*
X12905000Y34580533D01*
X12742235Y34548157D01*
X12532191Y34407809D01*
X12391843Y34197765D01*
X12363118Y34053352D01*
X12264698Y34200648D01*
X11799151Y34511717D01*
X11250000Y34620950D01*
X10700849Y34511717D01*
X10235302Y34200648D01*
X9980000Y33818562D01*
X9724698Y34200648D01*
X9259151Y34511717D01*
X8710000Y34620950D01*
X8160849Y34511717D01*
X7695302Y34200648D01*
X7442493Y33822293D01*
X7094896Y34254500D01*
X6601819Y34524367D01*
X6519039Y34541904D01*
X6297000Y34419915D01*
X6297000Y32877000D01*
X6317000Y32877000D01*
X6317000Y32623000D01*
X6297000Y32623000D01*
X6297000Y32603000D01*
X6043000Y32603000D01*
X6043000Y32623000D01*
X6023000Y32623000D01*
X6023000Y32877000D01*
X6043000Y32877000D01*
X6043000Y34419915D01*
X5820961Y34541904D01*
X5738181Y34524367D01*
X5245104Y34254500D01*
X4934999Y33868911D01*
X4934999Y36695380D01*
X5100000Y36662560D01*
X6900000Y36662560D01*
X7147765Y36711843D01*
X7357809Y36852191D01*
X7498157Y37062235D01*
X7547440Y37310000D01*
X7547440Y39110000D01*
X7498157Y39357765D01*
X7357809Y39567809D01*
X7147765Y39708157D01*
X7132161Y39711261D01*
X7300551Y39879357D01*
X7534733Y40443330D01*
X7535265Y41053991D01*
X7302068Y41618371D01*
X6870643Y42050551D01*
X6306670Y42284733D01*
X5696009Y42285265D01*
X5131629Y42052068D01*
X4710504Y41631678D01*
X4388533Y41567633D01*
X4101418Y41375790D01*
X4101416Y41375787D01*
X3424209Y40698581D01*
X3232366Y40411466D01*
X3232366Y40411465D01*
X3164998Y40072791D01*
X710000Y40072791D01*
X710000Y42493000D01*
X47235000Y42493000D01*
X47235000Y42093000D01*
X47392834Y41553517D01*
X47745104Y41115500D01*
X48238181Y40845633D01*
X48320961Y40828096D01*
X48543000Y40950085D01*
X48543000Y42493000D01*
X47235000Y42493000D01*
X710000Y42493000D01*
X710000Y43147000D01*
X47235000Y43147000D01*
X47235000Y42747000D01*
X48543000Y42747000D01*
X48543000Y44289915D01*
X48320961Y44411904D01*
X48238181Y44394367D01*
X47745104Y44124500D01*
X47392834Y43686483D01*
X47235000Y43147000D01*
X710000Y43147000D01*
X710000Y48290000D01*
X77040000Y48290000D01*
X77040000Y710000D01*
X77040000Y710000D01*
G37*
X77040000Y710000D02*
X710000Y710000D01*
X710000Y3364250D01*
X2465000Y3364250D01*
X2465000Y2773691D01*
X2561673Y2540302D01*
X2740301Y2361673D01*
X2973690Y2265000D01*
X3464250Y2265000D01*
X3623000Y2423750D01*
X3623000Y3523000D01*
X3877000Y3523000D01*
X3877000Y2423750D01*
X4035750Y2265000D01*
X4526310Y2265000D01*
X4759699Y2361673D01*
X4938327Y2540302D01*
X5035000Y2773691D01*
X5035000Y3364250D01*
X4876250Y3523000D01*
X3877000Y3523000D01*
X3623000Y3523000D01*
X2623750Y3523000D01*
X2465000Y3364250D01*
X710000Y3364250D01*
X710000Y7100000D01*
X2452560Y7100000D01*
X2452560Y5600000D01*
X2501843Y5352235D01*
X2642191Y5142191D01*
X2852235Y5001843D01*
X2880209Y4996279D01*
X2740301Y4938327D01*
X2561673Y4759698D01*
X2465000Y4526309D01*
X2465000Y3935750D01*
X2623750Y3777000D01*
X3623000Y3777000D01*
X3623000Y3797000D01*
X3877000Y3797000D01*
X3877000Y3777000D01*
X4876250Y3777000D01*
X5035000Y3935750D01*
X5035000Y4526309D01*
X4938327Y4759698D01*
X4759699Y4938327D01*
X4619791Y4996279D01*
X4647765Y5001843D01*
X4857809Y5142191D01*
X4998157Y5352235D01*
X5020587Y5465000D01*
X6493420Y5465000D01*
X6697560Y5260860D01*
X6697560Y3985000D01*
X6746843Y3737235D01*
X6887191Y3527191D01*
X7097235Y3386843D01*
X7345000Y3337560D01*
X9075000Y3337560D01*
X9322765Y3386843D01*
X9532809Y3527191D01*
X9673157Y3737235D01*
X9679901Y3771141D01*
X9689340Y3757015D01*
X10175975Y3431856D01*
X10750000Y3317675D01*
X11324025Y3431856D01*
X11810660Y3757015D01*
X12020000Y4070315D01*
X12229340Y3757015D01*
X12715975Y3431856D01*
X13290000Y3317675D01*
X13864025Y3431856D01*
X14350660Y3757015D01*
X14589356Y4114250D01*
X15715000Y4114250D01*
X15715000Y3523691D01*
X15811673Y3290302D01*
X15990301Y3111673D01*
X16223690Y3015000D01*
X16714250Y3015000D01*
X16873000Y3173750D01*
X16873000Y4273000D01*
X17127000Y4273000D01*
X17127000Y3173750D01*
X17285750Y3015000D01*
X17776310Y3015000D01*
X18009699Y3111673D01*
X18188327Y3290302D01*
X18275186Y3500000D01*
X21818275Y3500000D01*
X21999822Y2587300D01*
X22516825Y1813550D01*
X23290575Y1296547D01*
X24203275Y1115000D01*
X24296725Y1115000D01*
X25209425Y1296547D01*
X25983175Y1813550D01*
X26500178Y2587300D01*
X26649899Y3340000D01*
X34278275Y3340000D01*
X34459822Y2427300D01*
X34976825Y1653550D01*
X35750575Y1136547D01*
X36663275Y955000D01*
X36756725Y955000D01*
X37669425Y1136547D01*
X38443175Y1653550D01*
X38960178Y2427300D01*
X39141725Y3340000D01*
X48278275Y3340000D01*
X48459822Y2427300D01*
X48976825Y1653550D01*
X49750575Y1136547D01*
X50663275Y955000D01*
X50756725Y955000D01*
X51669425Y1136547D01*
X52443175Y1653550D01*
X52960178Y2427300D01*
X53141725Y3340000D01*
X52960178Y4252700D01*
X52443175Y5026450D01*
X51669425Y5543453D01*
X50756725Y5725000D01*
X50663275Y5725000D01*
X49750575Y5543453D01*
X48976825Y5026450D01*
X48459822Y4252700D01*
X48278275Y3340000D01*
X39141725Y3340000D01*
X38960178Y4252700D01*
X38443175Y5026450D01*
X37669425Y5543453D01*
X36756725Y5725000D01*
X36663275Y5725000D01*
X35750575Y5543453D01*
X34976825Y5026450D01*
X34459822Y4252700D01*
X34278275Y3340000D01*
X26649899Y3340000D01*
X26681725Y3500000D01*
X26500178Y4412700D01*
X25983175Y5186450D01*
X25209425Y5703453D01*
X24296725Y5885000D01*
X24203275Y5885000D01*
X23290575Y5703453D01*
X22516825Y5186450D01*
X21999822Y4412700D01*
X21818275Y3500000D01*
X18275186Y3500000D01*
X18285000Y3523691D01*
X18285000Y4114250D01*
X18126250Y4273000D01*
X17127000Y4273000D01*
X16873000Y4273000D01*
X15873750Y4273000D01*
X15715000Y4114250D01*
X14589356Y4114250D01*
X14675819Y4243650D01*
X14790000Y4817675D01*
X14790000Y5182325D01*
X14675819Y5756350D01*
X14369359Y6215000D01*
X15729413Y6215000D01*
X15751843Y6102235D01*
X15892191Y5892191D01*
X16102235Y5751843D01*
X16130209Y5746279D01*
X15990301Y5688327D01*
X15811673Y5509698D01*
X15715000Y5276309D01*
X15715000Y4685750D01*
X15873750Y4527000D01*
X16873000Y4527000D01*
X16873000Y4547000D01*
X17127000Y4547000D01*
X17127000Y4527000D01*
X18126250Y4527000D01*
X18285000Y4685750D01*
X18285000Y5276309D01*
X18188327Y5509698D01*
X18009699Y5688327D01*
X17869791Y5746279D01*
X17897765Y5751843D01*
X18107809Y5892191D01*
X18248157Y6102235D01*
X18297440Y6350000D01*
X18297440Y7714250D01*
X36615000Y7714250D01*
X36615000Y7248690D01*
X36711673Y7015301D01*
X36890302Y6836673D01*
X37123691Y6740000D01*
X37714250Y6740000D01*
X37873000Y6898750D01*
X37873000Y7873000D01*
X36773750Y7873000D01*
X36615000Y7714250D01*
X18297440Y7714250D01*
X18297440Y7850000D01*
X18248157Y8097765D01*
X18107809Y8307809D01*
X17897765Y8448157D01*
X17650000Y8497440D01*
X16350000Y8497440D01*
X16102235Y8448157D01*
X15892191Y8307809D01*
X15751843Y8097765D01*
X15729413Y7985000D01*
X12700000Y7985000D01*
X12361325Y7917633D01*
X12074210Y7725790D01*
X12074208Y7725787D01*
X10984167Y6635746D01*
X10750000Y6682325D01*
X10175975Y6568144D01*
X9689340Y6242985D01*
X9679901Y6228859D01*
X9673157Y6262765D01*
X9532809Y6472809D01*
X9322765Y6613157D01*
X9075000Y6662440D01*
X7799140Y6662440D01*
X7485790Y6975790D01*
X7198675Y7167633D01*
X7124603Y7182367D01*
X6860000Y7235001D01*
X6859995Y7235000D01*
X5020587Y7235000D01*
X4998157Y7347765D01*
X4857809Y7557809D01*
X4647765Y7698157D01*
X4400000Y7747440D01*
X3100000Y7747440D01*
X2852235Y7698157D01*
X2642191Y7557809D01*
X2501843Y7347765D01*
X2452560Y7100000D01*
X710000Y7100000D01*
X710000Y8751310D01*
X36615000Y8751310D01*
X36615000Y8285750D01*
X36773750Y8127000D01*
X37873000Y8127000D01*
X37873000Y9101250D01*
X37714250Y9260000D01*
X37123691Y9260000D01*
X36890302Y9163327D01*
X36711673Y8984699D01*
X36615000Y8751310D01*
X710000Y8751310D01*
X710000Y13121135D01*
X7179782Y13121135D01*
X7210095Y12995472D01*
X7521149Y12440754D01*
X8020807Y12047297D01*
X8633000Y11875000D01*
X9623000Y11875000D01*
X9623000Y13373000D01*
X9877000Y13373000D01*
X9877000Y11875000D01*
X10867000Y11875000D01*
X11479193Y12047297D01*
X11978851Y12440754D01*
X12289905Y12995472D01*
X12320218Y13121135D01*
X12200740Y13373000D01*
X9877000Y13373000D01*
X9623000Y13373000D01*
X7299260Y13373000D01*
X7179782Y13121135D01*
X710000Y13121135D01*
X710000Y13878865D01*
X7179782Y13878865D01*
X7299260Y13627000D01*
X9623000Y13627000D01*
X9623000Y15125000D01*
X9877000Y15125000D01*
X9877000Y13627000D01*
X12200740Y13627000D01*
X12320218Y13878865D01*
X12289905Y14004528D01*
X11978851Y14559246D01*
X11479193Y14952703D01*
X10867000Y15125000D01*
X9877000Y15125000D01*
X9623000Y15125000D01*
X8633000Y15125000D01*
X8020807Y14952703D01*
X7521149Y14559246D01*
X7210095Y14004528D01*
X7179782Y13878865D01*
X710000Y13878865D01*
X710000Y19490000D01*
X7122560Y19490000D01*
X7122560Y17510000D01*
X7171843Y17262235D01*
X7312191Y17052191D01*
X7522235Y16911843D01*
X7770000Y16862560D01*
X11730000Y16862560D01*
X11977765Y16911843D01*
X12187809Y17052191D01*
X12328157Y17262235D01*
X12348598Y17365000D01*
X20050000Y17365000D01*
X20484346Y17451397D01*
X20852566Y17697434D01*
X21790080Y18634947D01*
X22327491Y18741845D01*
X22825481Y19074591D01*
X22980000Y19305845D01*
X23134519Y19074591D01*
X23632509Y18741845D01*
X24219928Y18625000D01*
X24280072Y18625000D01*
X24867491Y18741845D01*
X25289534Y19023845D01*
X25291843Y19012235D01*
X25432191Y18802191D01*
X25642235Y18661843D01*
X25890000Y18612560D01*
X27690000Y18612560D01*
X27937765Y18661843D01*
X28147809Y18802191D01*
X28288157Y19012235D01*
X28290696Y19025000D01*
X32465000Y19025000D01*
X32465000Y14153871D01*
X31656438Y14288631D01*
X31302235Y14248157D01*
X31092191Y14107809D01*
X30951843Y13897765D01*
X30902560Y13650000D01*
X30902560Y11350000D01*
X31000714Y11007270D01*
X31173683Y10823156D01*
X31403943Y10719250D01*
X31656438Y10711369D01*
X35256438Y11311369D01*
X35397765Y11351843D01*
X35607809Y11492191D01*
X35748157Y11702235D01*
X35797440Y11950000D01*
X35797440Y13050000D01*
X35780750Y13196057D01*
X35676844Y13426317D01*
X35492730Y13599286D01*
X35256438Y13688631D01*
X34235000Y13858871D01*
X34235000Y18471948D01*
X34787491Y18581845D01*
X35285481Y18914591D01*
X35440000Y19145845D01*
X35594519Y18914591D01*
X35825000Y18760589D01*
X35825000Y16040005D01*
X35824999Y16040000D01*
X35881190Y15757516D01*
X35892367Y15701325D01*
X36010711Y15524210D01*
X36084210Y15414210D01*
X37728900Y13769521D01*
X37243562Y13688631D01*
X37102235Y13648157D01*
X36892191Y13507809D01*
X36751843Y13297765D01*
X36702560Y13050000D01*
X36702560Y11950000D01*
X36719250Y11803943D01*
X36823156Y11573683D01*
X37007270Y11400714D01*
X37243562Y11311369D01*
X40843562Y10711369D01*
X41197765Y10751843D01*
X41407809Y10892191D01*
X41548157Y11102235D01*
X41597440Y11350000D01*
X41597440Y13650000D01*
X41499286Y13992730D01*
X41326317Y14176844D01*
X41096057Y14280750D01*
X40843562Y14288631D01*
X39845003Y14122205D01*
X39775790Y14225790D01*
X39775787Y14225792D01*
X37595000Y16406580D01*
X37595000Y18760589D01*
X37749534Y18863845D01*
X37751843Y18852235D01*
X37892191Y18642191D01*
X38102235Y18501843D01*
X38350000Y18452560D01*
X38394327Y18452560D01*
X38412268Y18362367D01*
X38432367Y18261325D01*
X38606978Y18000000D01*
X38624210Y17974210D01*
X45274290Y11324131D01*
X45274290Y10256391D01*
X45202235Y10248157D01*
X44992191Y10107809D01*
X44851843Y9897765D01*
X44802560Y9650000D01*
X44802560Y8885000D01*
X41839982Y8885000D01*
X41707809Y9082809D01*
X41497765Y9223157D01*
X41250000Y9272440D01*
X39750000Y9272440D01*
X39502235Y9223157D01*
X39292191Y9082809D01*
X39251346Y9021680D01*
X39109698Y9163327D01*
X38876309Y9260000D01*
X38285750Y9260000D01*
X38127000Y9101250D01*
X38127000Y8127000D01*
X38147000Y8127000D01*
X38147000Y7873000D01*
X38127000Y7873000D01*
X38127000Y6898750D01*
X38285750Y6740000D01*
X38876309Y6740000D01*
X39109698Y6836673D01*
X39251346Y6978320D01*
X39292191Y6917191D01*
X39502235Y6776843D01*
X39750000Y6727560D01*
X41250000Y6727560D01*
X41497765Y6776843D01*
X41707809Y6917191D01*
X41839982Y7115000D01*
X44869861Y7115000D01*
X44900714Y7007270D01*
X45073683Y6823156D01*
X45303943Y6719250D01*
X45556438Y6711369D01*
X49156438Y7311369D01*
X49297765Y7351843D01*
X49507809Y7492191D01*
X49648157Y7702235D01*
X49697440Y7950000D01*
X49697440Y9050000D01*
X49680750Y9196057D01*
X49576844Y9426317D01*
X49392730Y9599286D01*
X49156438Y9688631D01*
X47044290Y10040656D01*
X47044290Y11690705D01*
X47044291Y11690710D01*
X46976923Y12029384D01*
X46976923Y12029385D01*
X46785080Y12316500D01*
X46785077Y12316502D01*
X40518838Y18582742D01*
X40607809Y18642191D01*
X40748157Y18852235D01*
X40797440Y19100000D01*
X40797440Y20900000D01*
X40748157Y21147765D01*
X40607809Y21357809D01*
X40397765Y21498157D01*
X40150000Y21547440D01*
X38350000Y21547440D01*
X38102235Y21498157D01*
X37892191Y21357809D01*
X37845000Y21287183D01*
X37845000Y21489868D01*
X38220132Y21865000D01*
X44699868Y21865000D01*
X46614875Y19949993D01*
X46721773Y19412581D01*
X47054519Y18914591D01*
X47285000Y18760589D01*
X47285000Y16310549D01*
X47264999Y16210000D01*
X47265000Y16209995D01*
X47265000Y16150005D01*
X47264999Y16150000D01*
X47273392Y16107809D01*
X47332367Y15811325D01*
X47470756Y15604210D01*
X47524210Y15524210D01*
X48002560Y15045860D01*
X48002560Y14350000D01*
X48051843Y14102235D01*
X48192191Y13892191D01*
X48402235Y13751843D01*
X48515000Y13729413D01*
X48515000Y12150005D01*
X48514999Y12150000D01*
X48567972Y11883691D01*
X48582367Y11811325D01*
X48767836Y11533750D01*
X48774210Y11524210D01*
X50791558Y9506862D01*
X50651843Y9297765D01*
X50602560Y9050000D01*
X50602560Y7950000D01*
X50619250Y7803943D01*
X50723156Y7573683D01*
X50907270Y7400714D01*
X51143562Y7311369D01*
X54743562Y6711369D01*
X55097765Y6751843D01*
X55307809Y6892191D01*
X55448157Y7102235D01*
X55497440Y7350000D01*
X55497440Y9650000D01*
X55399286Y9992730D01*
X55226317Y10176844D01*
X54996057Y10280750D01*
X54743562Y10288631D01*
X52831607Y9969972D01*
X50285000Y12516580D01*
X50285000Y13729413D01*
X50397765Y13751843D01*
X50607809Y13892191D01*
X50748157Y14102235D01*
X50750000Y14111500D01*
X50751843Y14102235D01*
X50892191Y13892191D01*
X51102235Y13751843D01*
X51350000Y13702560D01*
X52245860Y13702560D01*
X61522560Y4425861D01*
X61522560Y2500000D01*
X61571843Y2252235D01*
X61712191Y2042191D01*
X61922235Y1901843D01*
X62170000Y1852560D01*
X65170000Y1852560D01*
X65417765Y1901843D01*
X65627809Y2042191D01*
X65768157Y2252235D01*
X65814661Y2486030D01*
X67415635Y2486030D01*
X67575418Y2167261D01*
X68366187Y1857277D01*
X69215387Y1873503D01*
X69924582Y2167261D01*
X70084365Y2486030D01*
X68750000Y3820395D01*
X67415635Y2486030D01*
X65814661Y2486030D01*
X65817440Y2500000D01*
X65817440Y4383813D01*
X66607277Y4383813D01*
X66623503Y3534613D01*
X66917261Y2825418D01*
X67236030Y2665635D01*
X68570395Y4000000D01*
X68929605Y4000000D01*
X70263970Y2665635D01*
X70582739Y2825418D01*
X70892723Y3616187D01*
X70876497Y4465387D01*
X70582739Y5174582D01*
X70263970Y5334365D01*
X68929605Y4000000D01*
X68570395Y4000000D01*
X67236030Y5334365D01*
X66917261Y5174582D01*
X66607277Y4383813D01*
X65817440Y4383813D01*
X65817440Y5500000D01*
X65814662Y5513970D01*
X67415635Y5513970D01*
X68750000Y4179605D01*
X70084365Y5513970D01*
X69924582Y5832739D01*
X69133813Y6142723D01*
X68284613Y6126497D01*
X67575418Y5832739D01*
X67415635Y5513970D01*
X65814662Y5513970D01*
X65768157Y5747765D01*
X65627809Y5957809D01*
X65417765Y6098157D01*
X65170000Y6147440D01*
X62304139Y6147440D01*
X55737330Y12714250D01*
X63635000Y12714250D01*
X63635000Y11883691D01*
X63731673Y11650302D01*
X63910301Y11471673D01*
X64143690Y11375000D01*
X65964250Y11375000D01*
X66123000Y11533750D01*
X66123000Y12873000D01*
X66377000Y12873000D01*
X66377000Y11533750D01*
X66535750Y11375000D01*
X68356310Y11375000D01*
X68589699Y11471673D01*
X68768327Y11650302D01*
X68865000Y11883691D01*
X68865000Y12714250D01*
X68706250Y12873000D01*
X66377000Y12873000D01*
X66123000Y12873000D01*
X63793750Y12873000D01*
X63635000Y12714250D01*
X55737330Y12714250D01*
X54335271Y14116309D01*
X63635000Y14116309D01*
X63635000Y13285750D01*
X63793750Y13127000D01*
X66123000Y13127000D01*
X66123000Y14466250D01*
X66377000Y14466250D01*
X66377000Y13127000D01*
X68706250Y13127000D01*
X68865000Y13285750D01*
X68865000Y14116309D01*
X68768327Y14349698D01*
X68589699Y14528327D01*
X68356310Y14625000D01*
X66535750Y14625000D01*
X66377000Y14466250D01*
X66123000Y14466250D01*
X65964250Y14625000D01*
X64143690Y14625000D01*
X63910301Y14528327D01*
X63731673Y14349698D01*
X63635000Y14116309D01*
X54335271Y14116309D01*
X53497440Y14954140D01*
X53497440Y15650000D01*
X53448157Y15897765D01*
X53308442Y16106862D01*
X53875787Y16674208D01*
X53875790Y16674210D01*
X54003975Y16866054D01*
X54067634Y16961326D01*
X54135001Y17300000D01*
X54135000Y17300005D01*
X54135000Y18000000D01*
X63583769Y18000000D01*
X63707465Y17378139D01*
X64059720Y16850951D01*
X64586908Y16498696D01*
X65208769Y16375000D01*
X67291231Y16375000D01*
X67913092Y16498696D01*
X68440280Y16850951D01*
X68792535Y17378139D01*
X68916231Y18000000D01*
X68792535Y18621861D01*
X68440280Y19149049D01*
X67913092Y19501304D01*
X67291231Y19625000D01*
X65208769Y19625000D01*
X64586908Y19501304D01*
X64059720Y19149049D01*
X63707465Y18621861D01*
X63583769Y18000000D01*
X54135000Y18000000D01*
X54135000Y18452560D01*
X54150000Y18452560D01*
X54397765Y18501843D01*
X54607809Y18642191D01*
X54748157Y18852235D01*
X54797440Y19100000D01*
X54797440Y20900000D01*
X54748157Y21147765D01*
X54607809Y21357809D01*
X54397765Y21498157D01*
X54150000Y21547440D01*
X54135000Y21547440D01*
X54135000Y24993541D01*
X54207809Y25042191D01*
X54348157Y25252235D01*
X54397440Y25500000D01*
X54397440Y26500000D01*
X54348157Y26747765D01*
X54207809Y26957809D01*
X53997765Y27098157D01*
X53750000Y27147440D01*
X53114894Y27147440D01*
X53115108Y27392606D01*
X53555375Y27423783D01*
X53823352Y27534783D01*
X53860499Y27749896D01*
X53250000Y28360395D01*
X53235858Y28346252D01*
X53056253Y28525857D01*
X53070395Y28540000D01*
X53056253Y28554142D01*
X53235858Y28733747D01*
X53250000Y28719605D01*
X53264143Y28733747D01*
X53443748Y28554142D01*
X53429605Y28540000D01*
X54040104Y27929501D01*
X54255217Y27966648D01*
X54398112Y28394972D01*
X54366217Y28845375D01*
X54342157Y28903461D01*
X58871406Y24374213D01*
X58871408Y24374210D01*
X59158523Y24182367D01*
X59497198Y24115000D01*
X61091700Y24115000D01*
X61430405Y23775703D01*
X61961311Y23555252D01*
X62536167Y23554750D01*
X63067457Y23774275D01*
X63474297Y24180405D01*
X63694748Y24711311D01*
X63695250Y25286167D01*
X63475725Y25817457D01*
X63069595Y26224297D01*
X62538689Y26444748D01*
X61963833Y26445250D01*
X61432543Y26225725D01*
X61091222Y25885000D01*
X59863777Y25885000D01*
X59693728Y26055049D01*
X60036167Y26054750D01*
X60567457Y26274275D01*
X60908778Y26615000D01*
X65952560Y26615000D01*
X65952560Y26400000D01*
X66001843Y26152235D01*
X66142191Y25942191D01*
X66352235Y25801843D01*
X66600000Y25752560D01*
X67900000Y25752560D01*
X68147765Y25801843D01*
X68357809Y25942191D01*
X68498157Y26152235D01*
X68547440Y26400000D01*
X68547440Y27900000D01*
X68498157Y28147765D01*
X68357809Y28357809D01*
X68147765Y28498157D01*
X68138500Y28500000D01*
X68147765Y28501843D01*
X68357809Y28642191D01*
X68498157Y28852235D01*
X68547440Y29100000D01*
X68547440Y30600000D01*
X68498157Y30847765D01*
X68357809Y31057809D01*
X68147765Y31198157D01*
X67900000Y31247440D01*
X66600000Y31247440D01*
X66352235Y31198157D01*
X66143138Y31058442D01*
X61575790Y35625790D01*
X61406846Y35738674D01*
X61288675Y35817633D01*
X61232484Y35828810D01*
X60950000Y35885001D01*
X60949995Y35885000D01*
X58026580Y35885000D01*
X58337588Y36196009D01*
X70464735Y36196009D01*
X70697932Y35631629D01*
X71129357Y35199449D01*
X71693330Y34965267D01*
X72303991Y34964735D01*
X72868371Y35197932D01*
X73038712Y35367975D01*
X73041843Y35352235D01*
X73182191Y35142191D01*
X73392235Y35001843D01*
X73640000Y34952560D01*
X75440000Y34952560D01*
X75687765Y35001843D01*
X75897809Y35142191D01*
X76038157Y35352235D01*
X76087440Y35600000D01*
X76087440Y37400000D01*
X76038157Y37647765D01*
X75897809Y37857809D01*
X75687765Y37998157D01*
X75440000Y38047440D01*
X73640000Y38047440D01*
X73392235Y37998157D01*
X73182191Y37857809D01*
X73041843Y37647765D01*
X73038739Y37632161D01*
X72870643Y37800551D01*
X72306670Y38034733D01*
X71696009Y38035265D01*
X71131629Y37802068D01*
X70699449Y37370643D01*
X70465267Y36806670D01*
X70464735Y36196009D01*
X58337588Y36196009D01*
X62494139Y40352560D01*
X63650000Y40352560D01*
X63897765Y40401843D01*
X64107809Y40542191D01*
X64248157Y40752235D01*
X64297440Y41000000D01*
X64297440Y41364250D01*
X65465000Y41364250D01*
X65465000Y40773691D01*
X65561673Y40540302D01*
X65740301Y40361673D01*
X65973690Y40265000D01*
X66464250Y40265000D01*
X66623000Y40423750D01*
X66623000Y41523000D01*
X66877000Y41523000D01*
X66877000Y40423750D01*
X67035750Y40265000D01*
X67526310Y40265000D01*
X67759699Y40361673D01*
X67938327Y40540302D01*
X68035000Y40773691D01*
X68035000Y41364250D01*
X67876250Y41523000D01*
X66877000Y41523000D01*
X66623000Y41523000D01*
X65623750Y41523000D01*
X65465000Y41364250D01*
X64297440Y41364250D01*
X64297440Y42500000D01*
X64248157Y42747765D01*
X64107809Y42957809D01*
X63897765Y43098157D01*
X63888500Y43100000D01*
X63897765Y43101843D01*
X64107809Y43242191D01*
X64248157Y43452235D01*
X64250696Y43465000D01*
X65479413Y43465000D01*
X65501843Y43352235D01*
X65642191Y43142191D01*
X65852235Y43001843D01*
X65880209Y42996279D01*
X65740301Y42938327D01*
X65561673Y42759698D01*
X65465000Y42526309D01*
X65465000Y41935750D01*
X65623750Y41777000D01*
X66623000Y41777000D01*
X66623000Y41797000D01*
X66877000Y41797000D01*
X66877000Y41777000D01*
X67876250Y41777000D01*
X68035000Y41935750D01*
X68035000Y42526309D01*
X67938327Y42759698D01*
X67759699Y42938327D01*
X67619791Y42996279D01*
X67647765Y43001843D01*
X67857809Y43142191D01*
X67998157Y43352235D01*
X68047440Y43600000D01*
X68047440Y45100000D01*
X67998157Y45347765D01*
X67857809Y45557809D01*
X67647765Y45698157D01*
X67400000Y45747440D01*
X66100000Y45747440D01*
X65852235Y45698157D01*
X65642191Y45557809D01*
X65501843Y45347765D01*
X65479413Y45235000D01*
X64290478Y45235000D01*
X64248157Y45447765D01*
X64107809Y45657809D01*
X63897765Y45798157D01*
X63874501Y45802784D01*
X63817633Y46088675D01*
X63769089Y46161326D01*
X63625790Y46375790D01*
X63625787Y46375792D01*
X62875790Y47125790D01*
X62588675Y47317633D01*
X62532484Y47328810D01*
X62250000Y47385001D01*
X62249995Y47385000D01*
X53390005Y47385000D01*
X53390000Y47385001D01*
X53051326Y47317634D01*
X53051324Y47317633D01*
X53051325Y47317633D01*
X52764210Y47125790D01*
X52764208Y47125787D01*
X50584210Y44945790D01*
X50392367Y44658675D01*
X50392367Y44658674D01*
X50324999Y44320000D01*
X50325000Y44319995D01*
X50325000Y44157310D01*
X50195302Y44070648D01*
X49942493Y43692293D01*
X49594896Y44124500D01*
X49101819Y44394367D01*
X49019039Y44411904D01*
X48797000Y44289915D01*
X48797000Y42747000D01*
X48817000Y42747000D01*
X48817000Y42493000D01*
X48797000Y42493000D01*
X48797000Y40950085D01*
X49019039Y40828096D01*
X49101819Y40845633D01*
X49594896Y41115500D01*
X49942493Y41547707D01*
X50195302Y41169352D01*
X50660849Y40858283D01*
X51210000Y40749050D01*
X51759151Y40858283D01*
X52224698Y41169352D01*
X52480000Y41551438D01*
X52735302Y41169352D01*
X52742778Y41164357D01*
X51463420Y39885000D01*
X44189799Y39885000D01*
X44126545Y40038086D01*
X43610801Y40554730D01*
X42936605Y40834681D01*
X42206597Y40835318D01*
X41531914Y40556545D01*
X41015270Y40040801D01*
X40735319Y39366605D01*
X40734682Y38636597D01*
X41013455Y37961914D01*
X41435000Y37539633D01*
X41435000Y32459800D01*
X41109633Y32135000D01*
X40872944Y32135000D01*
X40438598Y32048603D01*
X40070378Y31802566D01*
X33367434Y25099622D01*
X33121397Y24731402D01*
X33035000Y24297056D01*
X33035000Y21295000D01*
X28290696Y21295000D01*
X28288157Y21307765D01*
X28147809Y21517809D01*
X27937765Y21658157D01*
X27690000Y21707440D01*
X25890000Y21707440D01*
X25642235Y21658157D01*
X25432191Y21517809D01*
X25385000Y21447183D01*
X25385000Y29000000D01*
X25298603Y29434346D01*
X25052566Y29802566D01*
X24076848Y30778284D01*
X24120950Y31000000D01*
X23981269Y31702224D01*
X23583491Y32297541D01*
X23385000Y32430168D01*
X23385000Y37569832D01*
X23583491Y37702459D01*
X23981269Y38297776D01*
X24120950Y39000000D01*
X23981269Y39702224D01*
X23583491Y40297541D01*
X22988174Y40695319D01*
X22285950Y40835000D01*
X22214050Y40835000D01*
X21511826Y40695319D01*
X20916509Y40297541D01*
X20518731Y39702224D01*
X20379050Y39000000D01*
X20518731Y38297776D01*
X20916509Y37702459D01*
X21115000Y37569832D01*
X21115000Y32430168D01*
X20916509Y32297541D01*
X20518731Y31702224D01*
X20379050Y31000000D01*
X20518731Y30297776D01*
X20916509Y29702459D01*
X21511826Y29304681D01*
X22214050Y29165000D01*
X22285950Y29165000D01*
X22447695Y29197173D01*
X23115000Y28529868D01*
X23115000Y21216197D01*
X22980000Y21014155D01*
X22825481Y21245409D01*
X22595000Y21399411D01*
X22595000Y22841814D01*
X22707809Y22917191D01*
X22848157Y23127235D01*
X22897440Y23375000D01*
X22897440Y24625000D01*
X22848157Y24872765D01*
X22707809Y25082809D01*
X22497765Y25223157D01*
X22250000Y25272440D01*
X20750000Y25272440D01*
X20502235Y25223157D01*
X20292191Y25082809D01*
X20251346Y25021680D01*
X20109698Y25163327D01*
X19876309Y25260000D01*
X19285750Y25260000D01*
X19127000Y25101250D01*
X19127000Y24127000D01*
X19147000Y24127000D01*
X19147000Y23873000D01*
X19127000Y23873000D01*
X19127000Y22898750D01*
X19285750Y22740000D01*
X19876309Y22740000D01*
X20109698Y22836673D01*
X20251346Y22978320D01*
X20292191Y22917191D01*
X20502235Y22776843D01*
X20750000Y22727560D01*
X20825000Y22727560D01*
X20825000Y21399411D01*
X20594519Y21245409D01*
X20261773Y20747419D01*
X20154875Y20210008D01*
X19579868Y19635000D01*
X12348598Y19635000D01*
X12328157Y19737765D01*
X12187809Y19947809D01*
X11977765Y20088157D01*
X11730000Y20137440D01*
X7770000Y20137440D01*
X7522235Y20088157D01*
X7312191Y19947809D01*
X7171843Y19737765D01*
X7122560Y19490000D01*
X710000Y19490000D01*
X710000Y40072791D01*
X3164998Y40072791D01*
X3164999Y40072786D01*
X3164999Y31853697D01*
X3164998Y31853692D01*
X3215462Y31600000D01*
X3232366Y31515017D01*
X3424209Y31227902D01*
X4777909Y29874203D01*
X4777911Y29874200D01*
X5065026Y29682357D01*
X5121217Y29671180D01*
X5403701Y29614989D01*
X5403706Y29614990D01*
X7213430Y29614990D01*
X10242778Y26585643D01*
X10235302Y26580648D01*
X9980000Y26198562D01*
X9724698Y26580648D01*
X9259151Y26891717D01*
X8710000Y27000950D01*
X8160849Y26891717D01*
X7695302Y26580648D01*
X7440000Y26198562D01*
X7184698Y26580648D01*
X6719151Y26891717D01*
X6170000Y27000950D01*
X5620849Y26891717D01*
X5155302Y26580648D01*
X4844233Y26115101D01*
X4735000Y25565950D01*
X4735000Y24694050D01*
X4844233Y24144899D01*
X5155302Y23679352D01*
X5620849Y23368283D01*
X6170000Y23259050D01*
X6719151Y23368283D01*
X7184698Y23679352D01*
X7440000Y24061438D01*
X7695302Y23679352D01*
X8160849Y23368283D01*
X8710000Y23259050D01*
X9259151Y23368283D01*
X9724698Y23679352D01*
X9980000Y24061438D01*
X10235302Y23679352D01*
X10700849Y23368283D01*
X11250000Y23259050D01*
X11799151Y23368283D01*
X12264698Y23679352D01*
X12520000Y24061438D01*
X12775302Y23679352D01*
X13240849Y23368283D01*
X13790000Y23259050D01*
X14339151Y23368283D01*
X14804698Y23679352D01*
X14828016Y23714250D01*
X17615000Y23714250D01*
X17615000Y23248690D01*
X17711673Y23015301D01*
X17890302Y22836673D01*
X18123691Y22740000D01*
X18714250Y22740000D01*
X18873000Y22898750D01*
X18873000Y23873000D01*
X17773750Y23873000D01*
X17615000Y23714250D01*
X14828016Y23714250D01*
X15115767Y24144899D01*
X15137560Y24254459D01*
X15372484Y24301190D01*
X15428675Y24312367D01*
X15715790Y24504210D01*
X15962889Y24751310D01*
X17615000Y24751310D01*
X17615000Y24285750D01*
X17773750Y24127000D01*
X18873000Y24127000D01*
X18873000Y25101250D01*
X18714250Y25260000D01*
X18123691Y25260000D01*
X17890302Y25163327D01*
X17711673Y24984699D01*
X17615000Y24751310D01*
X15962889Y24751310D01*
X17625787Y26414208D01*
X17625790Y26414210D01*
X17817633Y26701325D01*
X17828810Y26757516D01*
X17885001Y27040000D01*
X17885000Y27040005D01*
X17885000Y28299304D01*
X17897765Y28301843D01*
X18107809Y28442191D01*
X18248157Y28652235D01*
X18297440Y28900000D01*
X18297440Y30400000D01*
X18248157Y30647765D01*
X18107809Y30857809D01*
X17897765Y30998157D01*
X17888500Y31000000D01*
X17897765Y31001843D01*
X18107809Y31142191D01*
X18248157Y31352235D01*
X18297440Y31600000D01*
X18297440Y33100000D01*
X18248157Y33347765D01*
X18107809Y33557809D01*
X17897765Y33698157D01*
X17885000Y33700696D01*
X17885000Y39272787D01*
X17885001Y39272792D01*
X17817634Y39611466D01*
X17735681Y39734117D01*
X17625790Y39898582D01*
X17625787Y39898584D01*
X16148582Y41375790D01*
X15928265Y41523000D01*
X15861467Y41567633D01*
X15805276Y41578810D01*
X15538608Y41631855D01*
X15120643Y42050551D01*
X14556670Y42284733D01*
X13946009Y42285265D01*
X13381629Y42052068D01*
X12949449Y41620643D01*
X12715267Y41056670D01*
X12714735Y40446009D01*
X12947932Y39881629D01*
X13117975Y39711288D01*
X13102235Y39708157D01*
X12892191Y39567809D01*
X12751843Y39357765D01*
X12702560Y39110000D01*
X12702560Y37310000D01*
X12751843Y37062235D01*
X12892191Y36852191D01*
X12905000Y36843632D01*
X12905000Y34580533D01*
X12742235Y34548157D01*
X12532191Y34407809D01*
X12391843Y34197765D01*
X12363118Y34053352D01*
X12264698Y34200648D01*
X11799151Y34511717D01*
X11250000Y34620950D01*
X10700849Y34511717D01*
X10235302Y34200648D01*
X9980000Y33818562D01*
X9724698Y34200648D01*
X9259151Y34511717D01*
X8710000Y34620950D01*
X8160849Y34511717D01*
X7695302Y34200648D01*
X7442493Y33822293D01*
X7094896Y34254500D01*
X6601819Y34524367D01*
X6519039Y34541904D01*
X6297000Y34419915D01*
X6297000Y32877000D01*
X6317000Y32877000D01*
X6317000Y32623000D01*
X6297000Y32623000D01*
X6297000Y32603000D01*
X6043000Y32603000D01*
X6043000Y32623000D01*
X6023000Y32623000D01*
X6023000Y32877000D01*
X6043000Y32877000D01*
X6043000Y34419915D01*
X5820961Y34541904D01*
X5738181Y34524367D01*
X5245104Y34254500D01*
X4934999Y33868911D01*
X4934999Y36695380D01*
X5100000Y36662560D01*
X6900000Y36662560D01*
X7147765Y36711843D01*
X7357809Y36852191D01*
X7498157Y37062235D01*
X7547440Y37310000D01*
X7547440Y39110000D01*
X7498157Y39357765D01*
X7357809Y39567809D01*
X7147765Y39708157D01*
X7132161Y39711261D01*
X7300551Y39879357D01*
X7534733Y40443330D01*
X7535265Y41053991D01*
X7302068Y41618371D01*
X6870643Y42050551D01*
X6306670Y42284733D01*
X5696009Y42285265D01*
X5131629Y42052068D01*
X4710504Y41631678D01*
X4388533Y41567633D01*
X4101418Y41375790D01*
X4101416Y41375787D01*
X3424209Y40698581D01*
X3232366Y40411466D01*
X3232366Y40411465D01*
X3164998Y40072791D01*
X710000Y40072791D01*
X710000Y42493000D01*
X47235000Y42493000D01*
X47235000Y42093000D01*
X47392834Y41553517D01*
X47745104Y41115500D01*
X48238181Y40845633D01*
X48320961Y40828096D01*
X48543000Y40950085D01*
X48543000Y42493000D01*
X47235000Y42493000D01*
X710000Y42493000D01*
X710000Y43147000D01*
X47235000Y43147000D01*
X47235000Y42747000D01*
X48543000Y42747000D01*
X48543000Y44289915D01*
X48320961Y44411904D01*
X48238181Y44394367D01*
X47745104Y44124500D01*
X47392834Y43686483D01*
X47235000Y43147000D01*
X710000Y43147000D01*
X710000Y48290000D01*
X77040000Y48290000D01*
X77040000Y710000D01*
G36*
X61751843Y45447765D02*
X61702560Y45200000D01*
X61702560Y43700000D01*
X61751843Y43452235D01*
X61892191Y43242191D01*
X62102235Y43101843D01*
X62111500Y43100000D01*
X62102235Y43098157D01*
X61892191Y42957809D01*
X61751843Y42747765D01*
X61702560Y42500000D01*
X61702560Y42064139D01*
X56472974Y36834554D01*
X56290000Y36870950D01*
X55740849Y36761717D01*
X55275302Y36450648D01*
X55020000Y36068562D01*
X54764698Y36450648D01*
X54299151Y36761717D01*
X53750000Y36870950D01*
X53200849Y36761717D01*
X52735302Y36450648D01*
X52480000Y36068562D01*
X52224698Y36450648D01*
X51759151Y36761717D01*
X51210000Y36870950D01*
X50660849Y36761717D01*
X50195302Y36450648D01*
X49940000Y36068562D01*
X49684698Y36450648D01*
X49219151Y36761717D01*
X48670000Y36870950D01*
X48120849Y36761717D01*
X47655302Y36450648D01*
X47344233Y35985101D01*
X47235000Y35435950D01*
X47235000Y34564050D01*
X47344233Y34014899D01*
X47655302Y33549352D01*
X47785000Y33462690D01*
X47785000Y33241512D01*
X47784999Y33241507D01*
X47841190Y32959023D01*
X47852367Y32902832D01*
X47962041Y32738693D01*
X48044210Y32615717D01*
X51195714Y29464214D01*
X51195716Y29464211D01*
X51330413Y29374210D01*
X51482832Y29272367D01*
X51821506Y29205000D01*
X51821511Y29205001D01*
X52405391Y29205001D01*
X52459893Y29150499D01*
X52244783Y29113352D01*
X52101888Y28685028D01*
X52121727Y28404877D01*
X51755225Y28405197D01*
X51343318Y28235000D01*
X49020587Y28235000D01*
X48998157Y28347765D01*
X48857809Y28557809D01*
X48647765Y28698157D01*
X48400000Y28747440D01*
X47100000Y28747440D01*
X46852235Y28698157D01*
X46642191Y28557809D01*
X46501843Y28347765D01*
X46452560Y28100000D01*
X46452560Y26600000D01*
X46501843Y26352235D01*
X46642191Y26142191D01*
X46852235Y26001843D01*
X46861500Y26000000D01*
X46852235Y25998157D01*
X46642191Y25857809D01*
X46501843Y25647765D01*
X46452560Y25400000D01*
X46452560Y23900000D01*
X46501843Y23652235D01*
X46642191Y23442191D01*
X46852235Y23301843D01*
X47100000Y23252560D01*
X48400000Y23252560D01*
X48647765Y23301843D01*
X48856862Y23441558D01*
X49825000Y22473421D01*
X49825000Y21239411D01*
X49594519Y21085409D01*
X49440000Y20854155D01*
X49285481Y21085409D01*
X48787491Y21418155D01*
X48250079Y21525053D01*
X45972566Y23802566D01*
X45927966Y23832367D01*
X45604346Y24048603D01*
X45170000Y24135000D01*
X37750000Y24135000D01*
X37315654Y24048603D01*
X36992034Y23832367D01*
X36947434Y23802566D01*
X35907434Y22762566D01*
X35661397Y22394346D01*
X35575000Y21960000D01*
X35575000Y21056197D01*
X35440000Y20854155D01*
X35305000Y21056197D01*
X35305000Y23826924D01*
X41226537Y29748461D01*
X41529199Y29445270D01*
X42203395Y29165319D01*
X42933403Y29164682D01*
X43608086Y29443455D01*
X44124730Y29959199D01*
X44404681Y30633395D01*
X44405318Y31363403D01*
X44126545Y32038086D01*
X43705000Y32460367D01*
X43705000Y37540200D01*
X44124730Y37959199D01*
X44189424Y38115000D01*
X51829995Y38115000D01*
X51830000Y38114999D01*
X52112484Y38171190D01*
X52168675Y38182367D01*
X52455790Y38374210D01*
X54375787Y40294208D01*
X54375790Y40294210D01*
X54567633Y40581325D01*
X54601185Y40750000D01*
X54635001Y40920000D01*
X54635000Y40920005D01*
X54635000Y41082690D01*
X54764698Y41169352D01*
X54855000Y41304498D01*
X54855000Y41293691D01*
X54951673Y41060302D01*
X55130301Y40881673D01*
X55363690Y40785000D01*
X56004250Y40785000D01*
X56163000Y40943750D01*
X56163000Y42493000D01*
X56417000Y42493000D01*
X56417000Y40943750D01*
X56575750Y40785000D01*
X57216310Y40785000D01*
X57449699Y40881673D01*
X57628327Y41060302D01*
X57725000Y41293691D01*
X57725000Y42334250D01*
X57566250Y42493000D01*
X56417000Y42493000D01*
X56163000Y42493000D01*
X56143000Y42493000D01*
X56143000Y42747000D01*
X56163000Y42747000D01*
X56163000Y44296250D01*
X56417000Y44296250D01*
X56417000Y42747000D01*
X57566250Y42747000D01*
X57725000Y42905750D01*
X57725000Y43946309D01*
X57628327Y44179698D01*
X57449699Y44358327D01*
X57216310Y44455000D01*
X56575750Y44455000D01*
X56417000Y44296250D01*
X56163000Y44296250D01*
X56004250Y44455000D01*
X55363690Y44455000D01*
X55130301Y44358327D01*
X54951673Y44179698D01*
X54855000Y43946309D01*
X54855000Y43935502D01*
X54764698Y44070648D01*
X54299151Y44381717D01*
X53750000Y44490950D01*
X53200849Y44381717D01*
X52735302Y44070648D01*
X52480000Y43688562D01*
X52224698Y44070648D01*
X52217223Y44075643D01*
X53756579Y45615000D01*
X61863587Y45615000D01*
X61751843Y45447765D01*
X61751843Y45447765D01*
G37*
X61751843Y45447765D02*
X61702560Y45200000D01*
X61702560Y43700000D01*
X61751843Y43452235D01*
X61892191Y43242191D01*
X62102235Y43101843D01*
X62111500Y43100000D01*
X62102235Y43098157D01*
X61892191Y42957809D01*
X61751843Y42747765D01*
X61702560Y42500000D01*
X61702560Y42064139D01*
X56472974Y36834554D01*
X56290000Y36870950D01*
X55740849Y36761717D01*
X55275302Y36450648D01*
X55020000Y36068562D01*
X54764698Y36450648D01*
X54299151Y36761717D01*
X53750000Y36870950D01*
X53200849Y36761717D01*
X52735302Y36450648D01*
X52480000Y36068562D01*
X52224698Y36450648D01*
X51759151Y36761717D01*
X51210000Y36870950D01*
X50660849Y36761717D01*
X50195302Y36450648D01*
X49940000Y36068562D01*
X49684698Y36450648D01*
X49219151Y36761717D01*
X48670000Y36870950D01*
X48120849Y36761717D01*
X47655302Y36450648D01*
X47344233Y35985101D01*
X47235000Y35435950D01*
X47235000Y34564050D01*
X47344233Y34014899D01*
X47655302Y33549352D01*
X47785000Y33462690D01*
X47785000Y33241512D01*
X47784999Y33241507D01*
X47841190Y32959023D01*
X47852367Y32902832D01*
X47962041Y32738693D01*
X48044210Y32615717D01*
X51195714Y29464214D01*
X51195716Y29464211D01*
X51330413Y29374210D01*
X51482832Y29272367D01*
X51821506Y29205000D01*
X51821511Y29205001D01*
X52405391Y29205001D01*
X52459893Y29150499D01*
X52244783Y29113352D01*
X52101888Y28685028D01*
X52121727Y28404877D01*
X51755225Y28405197D01*
X51343318Y28235000D01*
X49020587Y28235000D01*
X48998157Y28347765D01*
X48857809Y28557809D01*
X48647765Y28698157D01*
X48400000Y28747440D01*
X47100000Y28747440D01*
X46852235Y28698157D01*
X46642191Y28557809D01*
X46501843Y28347765D01*
X46452560Y28100000D01*
X46452560Y26600000D01*
X46501843Y26352235D01*
X46642191Y26142191D01*
X46852235Y26001843D01*
X46861500Y26000000D01*
X46852235Y25998157D01*
X46642191Y25857809D01*
X46501843Y25647765D01*
X46452560Y25400000D01*
X46452560Y23900000D01*
X46501843Y23652235D01*
X46642191Y23442191D01*
X46852235Y23301843D01*
X47100000Y23252560D01*
X48400000Y23252560D01*
X48647765Y23301843D01*
X48856862Y23441558D01*
X49825000Y22473421D01*
X49825000Y21239411D01*
X49594519Y21085409D01*
X49440000Y20854155D01*
X49285481Y21085409D01*
X48787491Y21418155D01*
X48250079Y21525053D01*
X45972566Y23802566D01*
X45927966Y23832367D01*
X45604346Y24048603D01*
X45170000Y24135000D01*
X37750000Y24135000D01*
X37315654Y24048603D01*
X36992034Y23832367D01*
X36947434Y23802566D01*
X35907434Y22762566D01*
X35661397Y22394346D01*
X35575000Y21960000D01*
X35575000Y21056197D01*
X35440000Y20854155D01*
X35305000Y21056197D01*
X35305000Y23826924D01*
X41226537Y29748461D01*
X41529199Y29445270D01*
X42203395Y29165319D01*
X42933403Y29164682D01*
X43608086Y29443455D01*
X44124730Y29959199D01*
X44404681Y30633395D01*
X44405318Y31363403D01*
X44126545Y32038086D01*
X43705000Y32460367D01*
X43705000Y37540200D01*
X44124730Y37959199D01*
X44189424Y38115000D01*
X51829995Y38115000D01*
X51830000Y38114999D01*
X52112484Y38171190D01*
X52168675Y38182367D01*
X52455790Y38374210D01*
X54375787Y40294208D01*
X54375790Y40294210D01*
X54567633Y40581325D01*
X54601185Y40750000D01*
X54635001Y40920000D01*
X54635000Y40920005D01*
X54635000Y41082690D01*
X54764698Y41169352D01*
X54855000Y41304498D01*
X54855000Y41293691D01*
X54951673Y41060302D01*
X55130301Y40881673D01*
X55363690Y40785000D01*
X56004250Y40785000D01*
X56163000Y40943750D01*
X56163000Y42493000D01*
X56417000Y42493000D01*
X56417000Y40943750D01*
X56575750Y40785000D01*
X57216310Y40785000D01*
X57449699Y40881673D01*
X57628327Y41060302D01*
X57725000Y41293691D01*
X57725000Y42334250D01*
X57566250Y42493000D01*
X56417000Y42493000D01*
X56163000Y42493000D01*
X56143000Y42493000D01*
X56143000Y42747000D01*
X56163000Y42747000D01*
X56163000Y44296250D01*
X56417000Y44296250D01*
X56417000Y42747000D01*
X57566250Y42747000D01*
X57725000Y42905750D01*
X57725000Y43946309D01*
X57628327Y44179698D01*
X57449699Y44358327D01*
X57216310Y44455000D01*
X56575750Y44455000D01*
X56417000Y44296250D01*
X56163000Y44296250D01*
X56004250Y44455000D01*
X55363690Y44455000D01*
X55130301Y44358327D01*
X54951673Y44179698D01*
X54855000Y43946309D01*
X54855000Y43935502D01*
X54764698Y44070648D01*
X54299151Y44381717D01*
X53750000Y44490950D01*
X53200849Y44381717D01*
X52735302Y44070648D01*
X52480000Y43688562D01*
X52224698Y44070648D01*
X52217223Y44075643D01*
X53756579Y45615000D01*
X61863587Y45615000D01*
X61751843Y45447765D01*
M02*
