G04 #@! TF.GenerationSoftware,KiCad,Pcbnew,(2017-06-12 revision 8590a2299)-makepkg*
G04 #@! TF.CreationDate,2017-08-12T17:51:50+02:00*
G04 #@! TF.ProjectId,Small psu,536D616C6C207073752E6B696361645F,B*
G04 #@! TF.FileFunction,Copper,L1,Top,Signal*
G04 #@! TF.FilePolarity,Positive*
%FSLAX46Y46*%
G04 Gerber Fmt 4.6, Leading zero omitted, Abs format (unit mm)*
G04 Created by KiCad (PCBNEW (2017-06-12 revision 8590a2299)-makepkg) date 08/12/17 17:51:50*
%MOMM*%
%LPD*%
G01*
G04 APERTURE LIST*
%ADD10C,0.100000*%
%ADD11C,1.800000*%
%ADD12R,1.800000X1.800000*%
%ADD13O,3.960000X1.980000*%
%ADD14R,3.960000X1.980000*%
%ADD15O,1.730000X2.030000*%
%ADD16R,1.730000X2.030000*%
%ADD17C,3.000000*%
%ADD18R,3.000000X3.000000*%
%ADD19R,1.600000X2.400000*%
%ADD20O,1.600000X2.400000*%
%ADD21C,2.400000*%
%ADD22O,2.400000X2.400000*%
%ADD23R,0.650000X1.060000*%
%ADD24O,1.800000X1.800000*%
%ADD25R,1.000000X1.000000*%
%ADD26C,1.000000*%
%ADD27R,1.250000X1.500000*%
%ADD28R,1.300000X1.500000*%
%ADD29R,1.500000X1.300000*%
%ADD30C,1.620000*%
%ADD31C,1.500000*%
%ADD32C,0.500000*%
%ADD33C,0.400000*%
%ADD34C,1.000000*%
%ADD35C,0.254000*%
G04 APERTURE END LIST*
D10*
D11*
X72000000Y36500000D03*
D12*
X74540000Y36500000D03*
D13*
X66250000Y18000000D03*
D14*
X66250000Y13000000D03*
D13*
X9750000Y13500000D03*
D14*
X9750000Y18500000D03*
D15*
X13290000Y5000000D03*
X10750000Y5000000D03*
D16*
X8210000Y5000000D03*
D17*
X68750000Y4000000D03*
D18*
X63670000Y4000000D03*
D19*
X56290000Y42620000D03*
D20*
X48670000Y35000000D03*
X53750000Y42620000D03*
X51210000Y35000000D03*
X51210000Y42620000D03*
X53750000Y35000000D03*
X48670000Y42620000D03*
X56290000Y35000000D03*
X13790000Y25130000D03*
X6170000Y32750000D03*
X11250000Y25130000D03*
X8710000Y32750000D03*
X8710000Y25130000D03*
X11250000Y32750000D03*
X6170000Y25130000D03*
D19*
X13790000Y32750000D03*
D11*
X6000000Y40750000D03*
D12*
X6000000Y38210000D03*
D21*
X42570000Y39000000D03*
D22*
X22250000Y39000000D03*
X22250000Y31000000D03*
D21*
X42570000Y31000000D03*
D23*
X65000000Y36750000D03*
X66900000Y36750000D03*
X66900000Y34550000D03*
X65950000Y34550000D03*
X65000000Y34550000D03*
D24*
X48170000Y20000000D03*
X50710000Y20000000D03*
D12*
X53250000Y20000000D03*
D24*
X34170000Y20000000D03*
X36710000Y20000000D03*
D12*
X39250000Y20000000D03*
D25*
X53250000Y26000000D03*
D26*
X53250000Y28540000D03*
X51980000Y27270000D03*
D27*
X43750000Y23000000D03*
X43750000Y25500000D03*
X60750000Y37750000D03*
X60750000Y35250000D03*
X17750000Y31000000D03*
X17750000Y28500000D03*
X65000000Y41000000D03*
X65000000Y43500000D03*
D11*
X14250000Y40750000D03*
D12*
X14250000Y38210000D03*
D28*
X70250000Y41400000D03*
X70250000Y44100000D03*
X56750000Y28400000D03*
X56750000Y31100000D03*
X67000000Y29350000D03*
X67000000Y26650000D03*
D29*
X39850000Y25250000D03*
X37150000Y25250000D03*
D28*
X2250000Y37850000D03*
X2250000Y35150000D03*
D30*
X62250000Y25000000D03*
X59750000Y27500000D03*
X62250000Y30000000D03*
D12*
X26790000Y20160000D03*
D24*
X24250000Y20160000D03*
X21710000Y20160000D03*
D31*
X67500000Y23250000D03*
D32*
X67000000Y26650000D02*
X67000000Y23750000D01*
X67000000Y23750000D02*
X67500000Y23250000D01*
D33*
X65950000Y34550000D02*
X65950000Y33050000D01*
D32*
X60750000Y39000000D02*
X60750000Y37750000D01*
X56290000Y42620000D02*
X57590000Y42620000D01*
X57590000Y42620000D02*
X60750000Y39460000D01*
X60750000Y39460000D02*
X60750000Y37750000D01*
D34*
X20437208Y20160000D02*
X21710000Y20160000D01*
X14390000Y20160000D02*
X20437208Y20160000D01*
X12730000Y18500000D02*
X14390000Y20160000D01*
X9750000Y18500000D02*
X12730000Y18500000D01*
D32*
X64175000Y36750000D02*
X62675000Y35250000D01*
D33*
X65000000Y41000000D02*
X65000000Y36750000D01*
D32*
X65000000Y36750000D02*
X64175000Y36750000D01*
X62675000Y35250000D02*
X60750000Y35250000D01*
X13790000Y25130000D02*
X13790000Y25530000D01*
X13790000Y25530000D02*
X16760000Y28500000D01*
X16760000Y28500000D02*
X17750000Y28500000D01*
X13790000Y25130000D02*
X16740000Y25130000D01*
X16740000Y25130000D02*
X21710000Y20160000D01*
X60750000Y35250000D02*
X56540000Y35250000D01*
X56540000Y35250000D02*
X56290000Y35000000D01*
X21710000Y20160000D02*
X21710000Y21432792D01*
X21710000Y21432792D02*
X37027207Y36749999D01*
X37027207Y36749999D02*
X47403690Y36749999D01*
X47403690Y36749999D02*
X47903701Y37250010D01*
X47903701Y37250010D02*
X55739990Y37250010D01*
X55739990Y37250010D02*
X56290000Y36700000D01*
X56290000Y36700000D02*
X56290000Y35000000D01*
X55500000Y23750000D02*
X56750000Y25000000D01*
X56750000Y25000000D02*
X56750000Y28400000D01*
X51920000Y23750000D02*
X55500000Y23750000D01*
X48170000Y20000000D02*
X51920000Y23750000D01*
X36710000Y20000000D02*
X36710000Y24810000D01*
X36710000Y24810000D02*
X37150000Y25250000D01*
X48170000Y20000000D02*
X46625000Y20000000D01*
X46625000Y20000000D02*
X43750000Y22875000D01*
X43750000Y22875000D02*
X43750000Y23000000D01*
X4870000Y9855000D02*
X4870000Y23430000D01*
X4870000Y23430000D02*
X6170000Y24730000D01*
X8210000Y5000000D02*
X8210000Y6515000D01*
X8210000Y6515000D02*
X4870000Y9855000D01*
X6170000Y24730000D02*
X6170000Y25130000D01*
X8710000Y32750000D02*
X8710000Y31050000D01*
X8710000Y31050000D02*
X6170000Y28510000D01*
X6170000Y28510000D02*
X6170000Y25130000D01*
X6719999Y10545001D02*
X10750000Y6515000D01*
X8710000Y22320002D02*
X6719999Y20330001D01*
X6719999Y20330001D02*
X6719999Y10545001D01*
X8710000Y25130000D02*
X8710000Y22320002D01*
X10750000Y6515000D02*
X10750000Y5000000D01*
X11250000Y32750000D02*
X11250000Y31050000D01*
X11250000Y31050000D02*
X8710000Y28510000D01*
X8710000Y28510000D02*
X8710000Y25130000D01*
X51980000Y27270000D02*
X51480001Y27769999D01*
X51480001Y27769999D02*
X51480001Y31030001D01*
X51480001Y31030001D02*
X53750000Y33300000D01*
X53750000Y33300000D02*
X53750000Y35000000D01*
X39250000Y20000000D02*
X39250000Y18600000D01*
X39250000Y18600000D02*
X38699999Y18049999D01*
X38699999Y18049999D02*
X19799999Y18049999D01*
X19799999Y18049999D02*
X15500000Y13750000D01*
X15500000Y5500000D02*
X15000000Y5000000D01*
X15500000Y13750000D02*
X15500000Y5500000D01*
X15000000Y5000000D02*
X13290000Y5000000D01*
X13290000Y5000000D02*
X14655000Y5000000D01*
X39250000Y20000000D02*
X39250000Y24650000D01*
X39250000Y24650000D02*
X39850000Y25250000D01*
X72000000Y31250000D02*
X68700000Y34550000D01*
X68700000Y34550000D02*
X66925001Y34550000D01*
X72000000Y22760000D02*
X72000000Y31250000D01*
X66250000Y18000000D02*
X67240000Y18000000D01*
X67240000Y18000000D02*
X72000000Y22760000D01*
D34*
X61770000Y16500000D02*
X52937208Y16500000D01*
X50710000Y18727208D02*
X50710000Y20000000D01*
X52937208Y16500000D02*
X50710000Y18727208D01*
X66250000Y18000000D02*
X63270000Y18000000D01*
X63270000Y18000000D02*
X61770000Y16500000D01*
D32*
X66900000Y36750000D02*
X71750000Y36750000D01*
X71750000Y36750000D02*
X72000000Y36500000D01*
X64500000Y30700000D02*
X64500000Y34050000D01*
X64500000Y34050000D02*
X64974999Y34524999D01*
X65850000Y29350000D02*
X64500000Y30700000D01*
X56750000Y31100000D02*
X59145002Y31100000D01*
X59145002Y31100000D02*
X59505003Y31460001D01*
X59505003Y31460001D02*
X63739999Y31460001D01*
X63739999Y31460001D02*
X65850000Y29350000D01*
X65850000Y29350000D02*
X67000000Y29350000D01*
X60100000Y27150000D02*
X59750000Y27500000D01*
X70250000Y41400000D02*
X71400000Y41400000D01*
X71400000Y41400000D02*
X74540000Y38260000D01*
X74540000Y38260000D02*
X74540000Y37900000D01*
X74540000Y37900000D02*
X74540000Y36500000D01*
X2250000Y37850000D02*
X5640000Y37850000D01*
X5640000Y37850000D02*
X6000000Y38210000D01*
D35*
G36*
X77040000Y710000D02*
X710000Y710000D01*
X710000Y23430000D01*
X3984999Y23430000D01*
X3985000Y23429995D01*
X3985000Y9855005D01*
X3984999Y9855000D01*
X4023788Y9660001D01*
X4052367Y9516325D01*
X4244210Y9229210D01*
X6955182Y6518239D01*
X6887191Y6472809D01*
X6746843Y6262765D01*
X6697560Y6015000D01*
X6697560Y3985000D01*
X6746843Y3737235D01*
X6887191Y3527191D01*
X7097235Y3386843D01*
X7345000Y3337560D01*
X9075000Y3337560D01*
X9322765Y3386843D01*
X9532809Y3527191D01*
X9673157Y3737235D01*
X9679901Y3771141D01*
X9689340Y3757015D01*
X10175975Y3431856D01*
X10750000Y3317675D01*
X11324025Y3431856D01*
X11810660Y3757015D01*
X12020000Y4070315D01*
X12229340Y3757015D01*
X12715975Y3431856D01*
X13290000Y3317675D01*
X13864025Y3431856D01*
X13966009Y3500000D01*
X21818275Y3500000D01*
X21999822Y2587300D01*
X22516825Y1813550D01*
X23290575Y1296547D01*
X24203275Y1115000D01*
X24296725Y1115000D01*
X25209425Y1296547D01*
X25983175Y1813550D01*
X26500178Y2587300D01*
X26649899Y3340000D01*
X34278275Y3340000D01*
X34459822Y2427300D01*
X34976825Y1653550D01*
X35750575Y1136547D01*
X36663275Y955000D01*
X36756725Y955000D01*
X37669425Y1136547D01*
X38443175Y1653550D01*
X38960178Y2427300D01*
X39141725Y3340000D01*
X48278275Y3340000D01*
X48459822Y2427300D01*
X48976825Y1653550D01*
X49750575Y1136547D01*
X50663275Y955000D01*
X50756725Y955000D01*
X51669425Y1136547D01*
X52443175Y1653550D01*
X52960178Y2427300D01*
X53141725Y3340000D01*
X52960178Y4252700D01*
X52443175Y5026450D01*
X51734458Y5500000D01*
X61522560Y5500000D01*
X61522560Y2500000D01*
X61571843Y2252235D01*
X61712191Y2042191D01*
X61922235Y1901843D01*
X62170000Y1852560D01*
X65170000Y1852560D01*
X65417765Y1901843D01*
X65627809Y2042191D01*
X65768157Y2252235D01*
X65814661Y2486030D01*
X67415635Y2486030D01*
X67575418Y2167261D01*
X68366187Y1857277D01*
X69215387Y1873503D01*
X69924582Y2167261D01*
X70084365Y2486030D01*
X68750000Y3820395D01*
X67415635Y2486030D01*
X65814661Y2486030D01*
X65817440Y2500000D01*
X65817440Y4383813D01*
X66607277Y4383813D01*
X66623503Y3534613D01*
X66917261Y2825418D01*
X67236030Y2665635D01*
X68570395Y4000000D01*
X68929605Y4000000D01*
X70263970Y2665635D01*
X70582739Y2825418D01*
X70892723Y3616187D01*
X70876497Y4465387D01*
X70582739Y5174582D01*
X70263970Y5334365D01*
X68929605Y4000000D01*
X68570395Y4000000D01*
X67236030Y5334365D01*
X66917261Y5174582D01*
X66607277Y4383813D01*
X65817440Y4383813D01*
X65817440Y5500000D01*
X65814662Y5513970D01*
X67415635Y5513970D01*
X68750000Y4179605D01*
X70084365Y5513970D01*
X69924582Y5832739D01*
X69133813Y6142723D01*
X68284613Y6126497D01*
X67575418Y5832739D01*
X67415635Y5513970D01*
X65814662Y5513970D01*
X65768157Y5747765D01*
X65627809Y5957809D01*
X65417765Y6098157D01*
X65170000Y6147440D01*
X62170000Y6147440D01*
X61922235Y6098157D01*
X61712191Y5957809D01*
X61571843Y5747765D01*
X61522560Y5500000D01*
X51734458Y5500000D01*
X51669425Y5543453D01*
X50756725Y5725000D01*
X50663275Y5725000D01*
X49750575Y5543453D01*
X48976825Y5026450D01*
X48459822Y4252700D01*
X48278275Y3340000D01*
X39141725Y3340000D01*
X38960178Y4252700D01*
X38443175Y5026450D01*
X37669425Y5543453D01*
X36756725Y5725000D01*
X36663275Y5725000D01*
X35750575Y5543453D01*
X34976825Y5026450D01*
X34459822Y4252700D01*
X34278275Y3340000D01*
X26649899Y3340000D01*
X26681725Y3500000D01*
X26500178Y4412700D01*
X25983175Y5186450D01*
X25209425Y5703453D01*
X24296725Y5885000D01*
X24203275Y5885000D01*
X23290575Y5703453D01*
X22516825Y5186450D01*
X21999822Y4412700D01*
X21818275Y3500000D01*
X13966009Y3500000D01*
X14350660Y3757015D01*
X14589858Y4115000D01*
X14999995Y4115000D01*
X15000000Y4114999D01*
X15282484Y4171190D01*
X15338675Y4182367D01*
X15625790Y4374210D01*
X16125787Y4874208D01*
X16125790Y4874210D01*
X16317633Y5161325D01*
X16352053Y5334365D01*
X16385001Y5500000D01*
X16385000Y5500005D01*
X16385000Y12714250D01*
X63635000Y12714250D01*
X63635000Y11883691D01*
X63731673Y11650302D01*
X63910301Y11471673D01*
X64143690Y11375000D01*
X65964250Y11375000D01*
X66123000Y11533750D01*
X66123000Y12873000D01*
X66377000Y12873000D01*
X66377000Y11533750D01*
X66535750Y11375000D01*
X68356310Y11375000D01*
X68589699Y11471673D01*
X68768327Y11650302D01*
X68865000Y11883691D01*
X68865000Y12714250D01*
X68706250Y12873000D01*
X66377000Y12873000D01*
X66123000Y12873000D01*
X63793750Y12873000D01*
X63635000Y12714250D01*
X16385000Y12714250D01*
X16385000Y13383420D01*
X17117888Y14116309D01*
X63635000Y14116309D01*
X63635000Y13285750D01*
X63793750Y13127000D01*
X66123000Y13127000D01*
X66123000Y14466250D01*
X66377000Y14466250D01*
X66377000Y13127000D01*
X68706250Y13127000D01*
X68865000Y13285750D01*
X68865000Y14116309D01*
X68768327Y14349698D01*
X68589699Y14528327D01*
X68356310Y14625000D01*
X66535750Y14625000D01*
X66377000Y14466250D01*
X66123000Y14466250D01*
X65964250Y14625000D01*
X64143690Y14625000D01*
X63910301Y14528327D01*
X63731673Y14349698D01*
X63635000Y14116309D01*
X17117888Y14116309D01*
X20166578Y17164999D01*
X38699994Y17164999D01*
X38699999Y17164998D01*
X38982483Y17221189D01*
X39038674Y17232366D01*
X39325789Y17424209D01*
X39325790Y17424210D01*
X39875787Y17974208D01*
X39875790Y17974210D01*
X40067633Y18261325D01*
X40092964Y18388673D01*
X40105673Y18452560D01*
X40150000Y18452560D01*
X40397765Y18501843D01*
X40607809Y18642191D01*
X40748157Y18852235D01*
X40797440Y19100000D01*
X40797440Y20900000D01*
X40748157Y21147765D01*
X40607809Y21357809D01*
X40397765Y21498157D01*
X40150000Y21547440D01*
X40135000Y21547440D01*
X40135000Y23952560D01*
X40600000Y23952560D01*
X40847765Y24001843D01*
X41057809Y24142191D01*
X41198157Y24352235D01*
X41247440Y24600000D01*
X41247440Y25900000D01*
X41198157Y26147765D01*
X41057809Y26357809D01*
X41030123Y26376309D01*
X42490000Y26376309D01*
X42490000Y25785750D01*
X42648750Y25627000D01*
X43623000Y25627000D01*
X43623000Y26726250D01*
X43877000Y26726250D01*
X43877000Y25627000D01*
X44851250Y25627000D01*
X45010000Y25785750D01*
X45010000Y26376309D01*
X44913327Y26609698D01*
X44734699Y26788327D01*
X44501310Y26885000D01*
X44035750Y26885000D01*
X43877000Y26726250D01*
X43623000Y26726250D01*
X43464250Y26885000D01*
X42998690Y26885000D01*
X42765301Y26788327D01*
X42586673Y26609698D01*
X42490000Y26376309D01*
X41030123Y26376309D01*
X40847765Y26498157D01*
X40600000Y26547440D01*
X39100000Y26547440D01*
X38852235Y26498157D01*
X38642191Y26357809D01*
X38501843Y26147765D01*
X38500000Y26138500D01*
X38498157Y26147765D01*
X38357809Y26357809D01*
X38147765Y26498157D01*
X37900000Y26547440D01*
X36400000Y26547440D01*
X36152235Y26498157D01*
X35942191Y26357809D01*
X35801843Y26147765D01*
X35752560Y25900000D01*
X35752560Y24600000D01*
X35801843Y24352235D01*
X35825000Y24317578D01*
X35825000Y21239411D01*
X35594519Y21085409D01*
X35440000Y20854155D01*
X35285481Y21085409D01*
X34787491Y21418155D01*
X34200072Y21535000D01*
X34139928Y21535000D01*
X33552509Y21418155D01*
X33054519Y21085409D01*
X32721773Y20587419D01*
X32604928Y20000000D01*
X32721773Y19412581D01*
X33040883Y18934999D01*
X28236549Y18934999D01*
X28288157Y19012235D01*
X28337440Y19260000D01*
X28337440Y21060000D01*
X28288157Y21307765D01*
X28147809Y21517809D01*
X27937765Y21658157D01*
X27690000Y21707440D01*
X25890000Y21707440D01*
X25642235Y21658157D01*
X25432191Y21517809D01*
X25291843Y21307765D01*
X25289534Y21296155D01*
X24867491Y21578155D01*
X24280072Y21695000D01*
X24219928Y21695000D01*
X23632509Y21578155D01*
X23134519Y21245409D01*
X22980000Y21014155D01*
X22825481Y21245409D01*
X22794738Y21265950D01*
X32165384Y30636597D01*
X40734682Y30636597D01*
X41013455Y29961914D01*
X41529199Y29445270D01*
X42203395Y29165319D01*
X42933403Y29164682D01*
X43608086Y29443455D01*
X44124730Y29959199D01*
X44404681Y30633395D01*
X44405318Y31363403D01*
X44126545Y32038086D01*
X43610801Y32554730D01*
X42936605Y32834681D01*
X42206597Y32835318D01*
X41531914Y32556545D01*
X41015270Y32040801D01*
X40735319Y31366605D01*
X40734682Y30636597D01*
X32165384Y30636597D01*
X37393786Y35864999D01*
X47320343Y35864999D01*
X47235000Y35435950D01*
X47235000Y34564050D01*
X47344233Y34014899D01*
X47655302Y33549352D01*
X48120849Y33238283D01*
X48670000Y33129050D01*
X49219151Y33238283D01*
X49684698Y33549352D01*
X49940000Y33931438D01*
X50195302Y33549352D01*
X50660849Y33238283D01*
X51210000Y33129050D01*
X51759151Y33238283D01*
X52224698Y33549352D01*
X52480000Y33931438D01*
X52735302Y33549352D01*
X52742778Y33544357D01*
X50854211Y31655791D01*
X50662368Y31368676D01*
X50662368Y31368675D01*
X50595000Y31030001D01*
X50595001Y31029996D01*
X50595001Y27770004D01*
X50595000Y27769999D01*
X50643474Y27526309D01*
X50662368Y27431324D01*
X50770161Y27270000D01*
X50844902Y27158142D01*
X50844803Y27045225D01*
X51017233Y26627914D01*
X51336235Y26308355D01*
X51753244Y26135197D01*
X52102560Y26134892D01*
X52102560Y25500000D01*
X52151843Y25252235D01*
X52292191Y25042191D01*
X52502235Y24901843D01*
X52750000Y24852560D01*
X53750000Y24852560D01*
X53997765Y24901843D01*
X54207809Y25042191D01*
X54348157Y25252235D01*
X54397440Y25500000D01*
X54397440Y26500000D01*
X54348157Y26747765D01*
X54207809Y26957809D01*
X53997765Y27098157D01*
X53750000Y27147440D01*
X53114894Y27147440D01*
X53115108Y27392606D01*
X53555375Y27423783D01*
X53823352Y27534783D01*
X53860499Y27749896D01*
X53250000Y28360395D01*
X53235858Y28346252D01*
X53056253Y28525857D01*
X53070395Y28540000D01*
X53429605Y28540000D01*
X54040104Y27929501D01*
X54255217Y27966648D01*
X54398112Y28394972D01*
X54366217Y28845375D01*
X54255217Y29113352D01*
X54040104Y29150499D01*
X53429605Y28540000D01*
X53070395Y28540000D01*
X52459896Y29150499D01*
X52365001Y29134112D01*
X52365001Y29330104D01*
X52639501Y29330104D01*
X53250000Y28719605D01*
X53860499Y29330104D01*
X53823352Y29545217D01*
X53395028Y29688112D01*
X52944625Y29656217D01*
X52676648Y29545217D01*
X52639501Y29330104D01*
X52365001Y29330104D01*
X52365001Y30663421D01*
X54375787Y32674208D01*
X54375790Y32674210D01*
X54567633Y32961325D01*
X54635000Y33300000D01*
X54635000Y33462690D01*
X54764698Y33549352D01*
X55020000Y33931438D01*
X55275302Y33549352D01*
X55740849Y33238283D01*
X56290000Y33129050D01*
X56839151Y33238283D01*
X57304698Y33549352D01*
X57615767Y34014899D01*
X57685406Y34365000D01*
X59504413Y34365000D01*
X59526843Y34252235D01*
X59667191Y34042191D01*
X59877235Y33901843D01*
X60125000Y33852560D01*
X61375000Y33852560D01*
X61622765Y33901843D01*
X61832809Y34042191D01*
X61973157Y34252235D01*
X61995587Y34365000D01*
X62674995Y34365000D01*
X62675000Y34364999D01*
X62966584Y34423000D01*
X63013675Y34432367D01*
X63300790Y34624210D01*
X64350018Y35673438D01*
X64385095Y35650000D01*
X64217191Y35537809D01*
X64076843Y35327765D01*
X64027560Y35080000D01*
X64027560Y34829140D01*
X63874210Y34675790D01*
X63682367Y34388675D01*
X63682367Y34388674D01*
X63614999Y34050000D01*
X63615000Y34049995D01*
X63615000Y32345001D01*
X59505003Y32345001D01*
X59166328Y32277634D01*
X58879213Y32085791D01*
X58879211Y32085788D01*
X58778423Y31985000D01*
X58020587Y31985000D01*
X57998157Y32097765D01*
X57857809Y32307809D01*
X57647765Y32448157D01*
X57400000Y32497440D01*
X56100000Y32497440D01*
X55852235Y32448157D01*
X55642191Y32307809D01*
X55501843Y32097765D01*
X55452560Y31850000D01*
X55452560Y30350000D01*
X55501843Y30102235D01*
X55642191Y29892191D01*
X55852235Y29751843D01*
X55861500Y29750000D01*
X55852235Y29748157D01*
X55642191Y29607809D01*
X55501843Y29397765D01*
X55452560Y29150000D01*
X55452560Y27650000D01*
X55501843Y27402235D01*
X55642191Y27192191D01*
X55852235Y27051843D01*
X55865000Y27049304D01*
X55865000Y25366579D01*
X55133420Y24635000D01*
X51920005Y24635000D01*
X51920000Y24635001D01*
X51637516Y24578810D01*
X51581325Y24567633D01*
X51294210Y24375790D01*
X51294208Y24375787D01*
X48411387Y21492967D01*
X48200072Y21535000D01*
X48139928Y21535000D01*
X47552509Y21418155D01*
X47054519Y21085409D01*
X46949036Y20927543D01*
X45022440Y22854140D01*
X45022440Y23750000D01*
X44973157Y23997765D01*
X44832809Y24207809D01*
X44771680Y24248654D01*
X44913327Y24390302D01*
X45010000Y24623691D01*
X45010000Y25214250D01*
X44851250Y25373000D01*
X43877000Y25373000D01*
X43877000Y25353000D01*
X43623000Y25353000D01*
X43623000Y25373000D01*
X42648750Y25373000D01*
X42490000Y25214250D01*
X42490000Y24623691D01*
X42586673Y24390302D01*
X42728320Y24248654D01*
X42667191Y24207809D01*
X42526843Y23997765D01*
X42477560Y23750000D01*
X42477560Y22250000D01*
X42526843Y22002235D01*
X42667191Y21792191D01*
X42877235Y21651843D01*
X43125000Y21602560D01*
X43770860Y21602560D01*
X45999208Y19374213D01*
X45999210Y19374210D01*
X46286325Y19182367D01*
X46342516Y19171190D01*
X46625000Y19114999D01*
X46625005Y19115000D01*
X46920610Y19115000D01*
X47054519Y18914591D01*
X47552509Y18581845D01*
X48139928Y18465000D01*
X48200072Y18465000D01*
X48787491Y18581845D01*
X49285481Y18914591D01*
X49440000Y19145845D01*
X49575000Y18943803D01*
X49575000Y18727208D01*
X49661397Y18292862D01*
X49813212Y18065655D01*
X49907434Y17924642D01*
X52134642Y15697434D01*
X52502862Y15451397D01*
X52937208Y15365000D01*
X61770000Y15365000D01*
X62204346Y15451397D01*
X62572566Y15697434D01*
X63740132Y16865000D01*
X64050333Y16865000D01*
X64059720Y16850951D01*
X64586908Y16498696D01*
X65208769Y16375000D01*
X67291231Y16375000D01*
X67913092Y16498696D01*
X68440280Y16850951D01*
X68792535Y17378139D01*
X68916231Y18000000D01*
X68845777Y18354197D01*
X72625787Y22134208D01*
X72625790Y22134210D01*
X72817633Y22421325D01*
X72817634Y22421326D01*
X72885001Y22760000D01*
X72885000Y22760005D01*
X72885000Y31249995D01*
X72885001Y31250000D01*
X72817633Y31588674D01*
X72817633Y31588675D01*
X72625790Y31875790D01*
X72625787Y31875792D01*
X69325790Y35175790D01*
X69292652Y35197932D01*
X69038675Y35367633D01*
X68982484Y35378810D01*
X68700000Y35435001D01*
X68699995Y35435000D01*
X67751504Y35435000D01*
X67682809Y35537809D01*
X67514905Y35650000D01*
X67682809Y35762191D01*
X67751504Y35865000D01*
X70601505Y35865000D01*
X70697932Y35631629D01*
X71129357Y35199449D01*
X71693330Y34965267D01*
X72303991Y34964735D01*
X72868371Y35197932D01*
X73038712Y35367975D01*
X73041843Y35352235D01*
X73182191Y35142191D01*
X73392235Y35001843D01*
X73640000Y34952560D01*
X75440000Y34952560D01*
X75687765Y35001843D01*
X75897809Y35142191D01*
X76038157Y35352235D01*
X76087440Y35600000D01*
X76087440Y37400000D01*
X76038157Y37647765D01*
X75897809Y37857809D01*
X75687765Y37998157D01*
X75440000Y38047440D01*
X75425000Y38047440D01*
X75425000Y38259995D01*
X75425001Y38260000D01*
X75357634Y38598674D01*
X75233135Y38785000D01*
X75165790Y38885790D01*
X75165787Y38885792D01*
X72025790Y42025790D01*
X71986462Y42052068D01*
X71738675Y42217633D01*
X71682484Y42228810D01*
X71525555Y42260026D01*
X71498157Y42397765D01*
X71357809Y42607809D01*
X71147765Y42748157D01*
X71119791Y42753721D01*
X71259699Y42811673D01*
X71438327Y42990302D01*
X71535000Y43223691D01*
X71535000Y43814250D01*
X71376250Y43973000D01*
X70377000Y43973000D01*
X70377000Y43953000D01*
X70123000Y43953000D01*
X70123000Y43973000D01*
X69123750Y43973000D01*
X68965000Y43814250D01*
X68965000Y43223691D01*
X69061673Y42990302D01*
X69240301Y42811673D01*
X69380209Y42753721D01*
X69352235Y42748157D01*
X69142191Y42607809D01*
X69001843Y42397765D01*
X68952560Y42150000D01*
X68952560Y40650000D01*
X69001843Y40402235D01*
X69142191Y40192191D01*
X69352235Y40051843D01*
X69600000Y40002560D01*
X70900000Y40002560D01*
X71147765Y40051843D01*
X71356862Y40191558D01*
X73524045Y38024375D01*
X73392235Y37998157D01*
X73182191Y37857809D01*
X73041843Y37647765D01*
X73038739Y37632161D01*
X72870643Y37800551D01*
X72306670Y38034733D01*
X71696009Y38035265D01*
X71131629Y37802068D01*
X70964269Y37635000D01*
X67751504Y37635000D01*
X67682809Y37737809D01*
X67472765Y37878157D01*
X67225000Y37927440D01*
X66575000Y37927440D01*
X66327235Y37878157D01*
X66117191Y37737809D01*
X65976843Y37527765D01*
X65950000Y37392815D01*
X65923157Y37527765D01*
X65835000Y37659700D01*
X65835000Y39644331D01*
X65872765Y39651843D01*
X66082809Y39792191D01*
X66223157Y40002235D01*
X66272440Y40250000D01*
X66272440Y41750000D01*
X66223157Y41997765D01*
X66082809Y42207809D01*
X66021680Y42248654D01*
X66163327Y42390302D01*
X66260000Y42623691D01*
X66260000Y43214250D01*
X66101250Y43373000D01*
X65127000Y43373000D01*
X65127000Y43353000D01*
X64873000Y43353000D01*
X64873000Y43373000D01*
X63898750Y43373000D01*
X63740000Y43214250D01*
X63740000Y42623691D01*
X63836673Y42390302D01*
X63978320Y42248654D01*
X63917191Y42207809D01*
X63776843Y41997765D01*
X63727560Y41750000D01*
X63727560Y40250000D01*
X63776843Y40002235D01*
X63917191Y39792191D01*
X64127235Y39651843D01*
X64165000Y39644331D01*
X64165000Y37659700D01*
X64144433Y37628920D01*
X63836325Y37567633D01*
X63549210Y37375790D01*
X63549208Y37375787D01*
X62308420Y36135000D01*
X61995587Y36135000D01*
X61973157Y36247765D01*
X61832809Y36457809D01*
X61771680Y36498654D01*
X61913327Y36640302D01*
X62010000Y36873691D01*
X62010000Y37464250D01*
X61851250Y37623000D01*
X60877000Y37623000D01*
X60877000Y37603000D01*
X60623000Y37603000D01*
X60623000Y37623000D01*
X59648750Y37623000D01*
X59490000Y37464250D01*
X59490000Y36873691D01*
X59586673Y36640302D01*
X59728320Y36498654D01*
X59667191Y36457809D01*
X59526843Y36247765D01*
X59504413Y36135000D01*
X57515608Y36135000D01*
X57304698Y36450648D01*
X57175000Y36537310D01*
X57175000Y36699995D01*
X57175001Y36700000D01*
X57107634Y37038674D01*
X56950254Y37274210D01*
X56915790Y37325790D01*
X56915787Y37325792D01*
X56365780Y37875800D01*
X56329562Y37900000D01*
X56078665Y38067643D01*
X56022474Y38078820D01*
X55739990Y38135011D01*
X55739985Y38135010D01*
X47903701Y38135010D01*
X47565026Y38067643D01*
X47277911Y37875800D01*
X47277909Y37875797D01*
X47037111Y37634999D01*
X43799964Y37634999D01*
X44124730Y37959199D01*
X44401738Y38626309D01*
X59490000Y38626309D01*
X59490000Y38035750D01*
X59648750Y37877000D01*
X60623000Y37877000D01*
X60623000Y38976250D01*
X60877000Y38976250D01*
X60877000Y37877000D01*
X61851250Y37877000D01*
X62010000Y38035750D01*
X62010000Y38626309D01*
X61913327Y38859698D01*
X61734699Y39038327D01*
X61501310Y39135000D01*
X61035750Y39135000D01*
X60877000Y38976250D01*
X60623000Y38976250D01*
X60464250Y39135000D01*
X59998690Y39135000D01*
X59765301Y39038327D01*
X59586673Y38859698D01*
X59490000Y38626309D01*
X44401738Y38626309D01*
X44404681Y38633395D01*
X44405318Y39363403D01*
X44126545Y40038086D01*
X43610801Y40554730D01*
X42936605Y40834681D01*
X42206597Y40835318D01*
X41531914Y40556545D01*
X41015270Y40040801D01*
X40735319Y39366605D01*
X40734682Y38636597D01*
X41013455Y37961914D01*
X41339801Y37634999D01*
X37027212Y37634999D01*
X37027207Y37635000D01*
X36744723Y37578809D01*
X36688532Y37567632D01*
X36401417Y37375789D01*
X36401415Y37375786D01*
X21084210Y22058582D01*
X21075713Y22045866D01*
X17365790Y25755790D01*
X17273235Y25817633D01*
X17078675Y25947633D01*
X17022484Y25958810D01*
X16740000Y26015001D01*
X16739995Y26015000D01*
X15526580Y26015000D01*
X16749064Y27237485D01*
X16877235Y27151843D01*
X17125000Y27102560D01*
X18375000Y27102560D01*
X18622765Y27151843D01*
X18832809Y27292191D01*
X18973157Y27502235D01*
X19022440Y27750000D01*
X19022440Y29250000D01*
X18973157Y29497765D01*
X18832809Y29707809D01*
X18771680Y29748654D01*
X18913327Y29890302D01*
X19010000Y30123691D01*
X19010000Y30714250D01*
X18851250Y30873000D01*
X17877000Y30873000D01*
X17877000Y30853000D01*
X17623000Y30853000D01*
X17623000Y30873000D01*
X16648750Y30873000D01*
X16490000Y30714250D01*
X16490000Y30123691D01*
X16586673Y29890302D01*
X16728320Y29748654D01*
X16667191Y29707809D01*
X16526843Y29497765D01*
X16493884Y29332066D01*
X16421325Y29317633D01*
X16134210Y29125790D01*
X16134208Y29125787D01*
X13972974Y26964554D01*
X13790000Y27000950D01*
X13240849Y26891717D01*
X12775302Y26580648D01*
X12520000Y26198562D01*
X12264698Y26580648D01*
X11799151Y26891717D01*
X11250000Y27000950D01*
X10700849Y26891717D01*
X10235302Y26580648D01*
X9980000Y26198562D01*
X9724698Y26580648D01*
X9595000Y26667310D01*
X9595000Y28143420D01*
X11875787Y30424208D01*
X11875790Y30424210D01*
X12067633Y30711325D01*
X12135000Y31050000D01*
X12135000Y31212690D01*
X12264698Y31299352D01*
X12363118Y31446648D01*
X12391843Y31302235D01*
X12532191Y31092191D01*
X12742235Y30951843D01*
X12990000Y30902560D01*
X14590000Y30902560D01*
X14837765Y30951843D01*
X14909836Y31000000D01*
X20379050Y31000000D01*
X20518731Y30297776D01*
X20916509Y29702459D01*
X21511826Y29304681D01*
X22214050Y29165000D01*
X22285950Y29165000D01*
X22988174Y29304681D01*
X23583491Y29702459D01*
X23981269Y30297776D01*
X24120950Y31000000D01*
X23981269Y31702224D01*
X23583491Y32297541D01*
X22988174Y32695319D01*
X22285950Y32835000D01*
X22214050Y32835000D01*
X21511826Y32695319D01*
X20916509Y32297541D01*
X20518731Y31702224D01*
X20379050Y31000000D01*
X14909836Y31000000D01*
X15047809Y31092191D01*
X15188157Y31302235D01*
X15237440Y31550000D01*
X15237440Y31876309D01*
X16490000Y31876309D01*
X16490000Y31285750D01*
X16648750Y31127000D01*
X17623000Y31127000D01*
X17623000Y32226250D01*
X17877000Y32226250D01*
X17877000Y31127000D01*
X18851250Y31127000D01*
X19010000Y31285750D01*
X19010000Y31876309D01*
X18913327Y32109698D01*
X18734699Y32288327D01*
X18501310Y32385000D01*
X18035750Y32385000D01*
X17877000Y32226250D01*
X17623000Y32226250D01*
X17464250Y32385000D01*
X16998690Y32385000D01*
X16765301Y32288327D01*
X16586673Y32109698D01*
X16490000Y31876309D01*
X15237440Y31876309D01*
X15237440Y33950000D01*
X15188157Y34197765D01*
X15047809Y34407809D01*
X14837765Y34548157D01*
X14590000Y34597440D01*
X12990000Y34597440D01*
X12742235Y34548157D01*
X12532191Y34407809D01*
X12391843Y34197765D01*
X12363118Y34053352D01*
X12264698Y34200648D01*
X11799151Y34511717D01*
X11250000Y34620950D01*
X10700849Y34511717D01*
X10235302Y34200648D01*
X9980000Y33818562D01*
X9724698Y34200648D01*
X9259151Y34511717D01*
X8710000Y34620950D01*
X8160849Y34511717D01*
X7695302Y34200648D01*
X7442493Y33822293D01*
X7094896Y34254500D01*
X6601819Y34524367D01*
X6519039Y34541904D01*
X6297000Y34419915D01*
X6297000Y32877000D01*
X6317000Y32877000D01*
X6317000Y32623000D01*
X6297000Y32623000D01*
X6297000Y31080085D01*
X6519039Y30958096D01*
X6601819Y30975633D01*
X7094896Y31245500D01*
X7442493Y31677707D01*
X7695302Y31299352D01*
X7702778Y31294357D01*
X5544210Y29135790D01*
X5352367Y28848675D01*
X5352367Y28848674D01*
X5284999Y28510000D01*
X5285000Y28509995D01*
X5285000Y26667310D01*
X5155302Y26580648D01*
X4844233Y26115101D01*
X4735000Y25565950D01*
X4735000Y24694050D01*
X4759467Y24571047D01*
X4244210Y24055790D01*
X4052367Y23768675D01*
X4052367Y23768674D01*
X3984999Y23430000D01*
X710000Y23430000D01*
X710000Y32623000D01*
X4735000Y32623000D01*
X4735000Y32223000D01*
X4892834Y31683517D01*
X5245104Y31245500D01*
X5738181Y30975633D01*
X5820961Y30958096D01*
X6043000Y31080085D01*
X6043000Y32623000D01*
X4735000Y32623000D01*
X710000Y32623000D01*
X710000Y33277000D01*
X4735000Y33277000D01*
X4735000Y32877000D01*
X6043000Y32877000D01*
X6043000Y34419915D01*
X5820961Y34541904D01*
X5738181Y34524367D01*
X5245104Y34254500D01*
X4892834Y33816483D01*
X4735000Y33277000D01*
X710000Y33277000D01*
X710000Y34864250D01*
X965000Y34864250D01*
X965000Y34273691D01*
X1061673Y34040302D01*
X1240301Y33861673D01*
X1473690Y33765000D01*
X1964250Y33765000D01*
X2123000Y33923750D01*
X2123000Y35023000D01*
X2377000Y35023000D01*
X2377000Y33923750D01*
X2535750Y33765000D01*
X3026310Y33765000D01*
X3259699Y33861673D01*
X3438327Y34040302D01*
X3535000Y34273691D01*
X3535000Y34864250D01*
X3376250Y35023000D01*
X2377000Y35023000D01*
X2123000Y35023000D01*
X1123750Y35023000D01*
X965000Y34864250D01*
X710000Y34864250D01*
X710000Y38600000D01*
X952560Y38600000D01*
X952560Y37100000D01*
X1001843Y36852235D01*
X1142191Y36642191D01*
X1352235Y36501843D01*
X1380209Y36496279D01*
X1240301Y36438327D01*
X1061673Y36259698D01*
X965000Y36026309D01*
X965000Y35435750D01*
X1123750Y35277000D01*
X2123000Y35277000D01*
X2123000Y35297000D01*
X2377000Y35297000D01*
X2377000Y35277000D01*
X3376250Y35277000D01*
X3535000Y35435750D01*
X3535000Y36026309D01*
X3438327Y36259698D01*
X3259699Y36438327D01*
X3119791Y36496279D01*
X3147765Y36501843D01*
X3357809Y36642191D01*
X3498157Y36852235D01*
X3520587Y36965000D01*
X4566814Y36965000D01*
X4642191Y36852191D01*
X4852235Y36711843D01*
X5100000Y36662560D01*
X6900000Y36662560D01*
X7147765Y36711843D01*
X7357809Y36852191D01*
X7498157Y37062235D01*
X7547440Y37310000D01*
X7547440Y39110000D01*
X12702560Y39110000D01*
X12702560Y37310000D01*
X12751843Y37062235D01*
X12892191Y36852191D01*
X13102235Y36711843D01*
X13350000Y36662560D01*
X15150000Y36662560D01*
X15397765Y36711843D01*
X15607809Y36852191D01*
X15748157Y37062235D01*
X15797440Y37310000D01*
X15797440Y39000000D01*
X20379050Y39000000D01*
X20518731Y38297776D01*
X20916509Y37702459D01*
X21511826Y37304681D01*
X22214050Y37165000D01*
X22285950Y37165000D01*
X22988174Y37304681D01*
X23583491Y37702459D01*
X23981269Y38297776D01*
X24120950Y39000000D01*
X23981269Y39702224D01*
X23583491Y40297541D01*
X22988174Y40695319D01*
X22285950Y40835000D01*
X22214050Y40835000D01*
X21511826Y40695319D01*
X20916509Y40297541D01*
X20518731Y39702224D01*
X20379050Y39000000D01*
X15797440Y39000000D01*
X15797440Y39110000D01*
X15748157Y39357765D01*
X15607809Y39567809D01*
X15397765Y39708157D01*
X15382161Y39711261D01*
X15550551Y39879357D01*
X15784733Y40443330D01*
X15785265Y41053991D01*
X15552068Y41618371D01*
X15120643Y42050551D01*
X14556670Y42284733D01*
X13946009Y42285265D01*
X13381629Y42052068D01*
X12949449Y41620643D01*
X12715267Y41056670D01*
X12714735Y40446009D01*
X12947932Y39881629D01*
X13117975Y39711288D01*
X13102235Y39708157D01*
X12892191Y39567809D01*
X12751843Y39357765D01*
X12702560Y39110000D01*
X7547440Y39110000D01*
X7498157Y39357765D01*
X7357809Y39567809D01*
X7147765Y39708157D01*
X7132161Y39711261D01*
X7300551Y39879357D01*
X7534733Y40443330D01*
X7535265Y41053991D01*
X7302068Y41618371D01*
X6870643Y42050551D01*
X6306670Y42284733D01*
X5696009Y42285265D01*
X5131629Y42052068D01*
X4699449Y41620643D01*
X4465267Y41056670D01*
X4464735Y40446009D01*
X4697932Y39881629D01*
X4867975Y39711288D01*
X4852235Y39708157D01*
X4642191Y39567809D01*
X4501843Y39357765D01*
X4452560Y39110000D01*
X4452560Y38735000D01*
X3520587Y38735000D01*
X3498157Y38847765D01*
X3357809Y39057809D01*
X3147765Y39198157D01*
X2900000Y39247440D01*
X1600000Y39247440D01*
X1352235Y39198157D01*
X1142191Y39057809D01*
X1001843Y38847765D01*
X952560Y38600000D01*
X710000Y38600000D01*
X710000Y42493000D01*
X47235000Y42493000D01*
X47235000Y42093000D01*
X47392834Y41553517D01*
X47745104Y41115500D01*
X48238181Y40845633D01*
X48320961Y40828096D01*
X48543000Y40950085D01*
X48543000Y42493000D01*
X47235000Y42493000D01*
X710000Y42493000D01*
X710000Y43147000D01*
X47235000Y43147000D01*
X47235000Y42747000D01*
X48543000Y42747000D01*
X48543000Y44289915D01*
X48797000Y44289915D01*
X48797000Y42747000D01*
X48817000Y42747000D01*
X48817000Y42493000D01*
X48797000Y42493000D01*
X48797000Y40950085D01*
X49019039Y40828096D01*
X49101819Y40845633D01*
X49594896Y41115500D01*
X49942493Y41547707D01*
X50195302Y41169352D01*
X50660849Y40858283D01*
X51210000Y40749050D01*
X51759151Y40858283D01*
X52224698Y41169352D01*
X52480000Y41551438D01*
X52735302Y41169352D01*
X53200849Y40858283D01*
X53750000Y40749050D01*
X54299151Y40858283D01*
X54764698Y41169352D01*
X54855000Y41304498D01*
X54855000Y41293691D01*
X54951673Y41060302D01*
X55130301Y40881673D01*
X55363690Y40785000D01*
X56004250Y40785000D01*
X56163000Y40943750D01*
X56163000Y42493000D01*
X56417000Y42493000D01*
X56417000Y40943750D01*
X56575750Y40785000D01*
X57216310Y40785000D01*
X57449699Y40881673D01*
X57628327Y41060302D01*
X57725000Y41293691D01*
X57725000Y42334250D01*
X57566250Y42493000D01*
X56417000Y42493000D01*
X56163000Y42493000D01*
X56143000Y42493000D01*
X56143000Y42747000D01*
X56163000Y42747000D01*
X56163000Y44296250D01*
X56417000Y44296250D01*
X56417000Y42747000D01*
X57566250Y42747000D01*
X57725000Y42905750D01*
X57725000Y43946309D01*
X57628327Y44179698D01*
X57449699Y44358327D01*
X57406287Y44376309D01*
X63740000Y44376309D01*
X63740000Y43785750D01*
X63898750Y43627000D01*
X64873000Y43627000D01*
X64873000Y44726250D01*
X65127000Y44726250D01*
X65127000Y43627000D01*
X66101250Y43627000D01*
X66260000Y43785750D01*
X66260000Y44376309D01*
X66163327Y44609698D01*
X65984699Y44788327D01*
X65751310Y44885000D01*
X65285750Y44885000D01*
X65127000Y44726250D01*
X64873000Y44726250D01*
X64714250Y44885000D01*
X64248690Y44885000D01*
X64015301Y44788327D01*
X63836673Y44609698D01*
X63740000Y44376309D01*
X57406287Y44376309D01*
X57216310Y44455000D01*
X56575750Y44455000D01*
X56417000Y44296250D01*
X56163000Y44296250D01*
X56004250Y44455000D01*
X55363690Y44455000D01*
X55130301Y44358327D01*
X54951673Y44179698D01*
X54855000Y43946309D01*
X54855000Y43935502D01*
X54764698Y44070648D01*
X54299151Y44381717D01*
X53750000Y44490950D01*
X53200849Y44381717D01*
X52735302Y44070648D01*
X52480000Y43688562D01*
X52224698Y44070648D01*
X51759151Y44381717D01*
X51210000Y44490950D01*
X50660849Y44381717D01*
X50195302Y44070648D01*
X49942493Y43692293D01*
X49594896Y44124500D01*
X49101819Y44394367D01*
X49019039Y44411904D01*
X48797000Y44289915D01*
X48543000Y44289915D01*
X48320961Y44411904D01*
X48238181Y44394367D01*
X47745104Y44124500D01*
X47392834Y43686483D01*
X47235000Y43147000D01*
X710000Y43147000D01*
X710000Y44976309D01*
X68965000Y44976309D01*
X68965000Y44385750D01*
X69123750Y44227000D01*
X70123000Y44227000D01*
X70123000Y45326250D01*
X70377000Y45326250D01*
X70377000Y44227000D01*
X71376250Y44227000D01*
X71535000Y44385750D01*
X71535000Y44976309D01*
X71438327Y45209698D01*
X71259699Y45388327D01*
X71026310Y45485000D01*
X70535750Y45485000D01*
X70377000Y45326250D01*
X70123000Y45326250D01*
X69964250Y45485000D01*
X69473690Y45485000D01*
X69240301Y45388327D01*
X69061673Y45209698D01*
X68965000Y44976309D01*
X710000Y44976309D01*
X710000Y48290000D01*
X77040000Y48290000D01*
X77040000Y710000D01*
X77040000Y710000D01*
G37*
X77040000Y710000D02*
X710000Y710000D01*
X710000Y23430000D01*
X3984999Y23430000D01*
X3985000Y23429995D01*
X3985000Y9855005D01*
X3984999Y9855000D01*
X4023788Y9660001D01*
X4052367Y9516325D01*
X4244210Y9229210D01*
X6955182Y6518239D01*
X6887191Y6472809D01*
X6746843Y6262765D01*
X6697560Y6015000D01*
X6697560Y3985000D01*
X6746843Y3737235D01*
X6887191Y3527191D01*
X7097235Y3386843D01*
X7345000Y3337560D01*
X9075000Y3337560D01*
X9322765Y3386843D01*
X9532809Y3527191D01*
X9673157Y3737235D01*
X9679901Y3771141D01*
X9689340Y3757015D01*
X10175975Y3431856D01*
X10750000Y3317675D01*
X11324025Y3431856D01*
X11810660Y3757015D01*
X12020000Y4070315D01*
X12229340Y3757015D01*
X12715975Y3431856D01*
X13290000Y3317675D01*
X13864025Y3431856D01*
X13966009Y3500000D01*
X21818275Y3500000D01*
X21999822Y2587300D01*
X22516825Y1813550D01*
X23290575Y1296547D01*
X24203275Y1115000D01*
X24296725Y1115000D01*
X25209425Y1296547D01*
X25983175Y1813550D01*
X26500178Y2587300D01*
X26649899Y3340000D01*
X34278275Y3340000D01*
X34459822Y2427300D01*
X34976825Y1653550D01*
X35750575Y1136547D01*
X36663275Y955000D01*
X36756725Y955000D01*
X37669425Y1136547D01*
X38443175Y1653550D01*
X38960178Y2427300D01*
X39141725Y3340000D01*
X48278275Y3340000D01*
X48459822Y2427300D01*
X48976825Y1653550D01*
X49750575Y1136547D01*
X50663275Y955000D01*
X50756725Y955000D01*
X51669425Y1136547D01*
X52443175Y1653550D01*
X52960178Y2427300D01*
X53141725Y3340000D01*
X52960178Y4252700D01*
X52443175Y5026450D01*
X51734458Y5500000D01*
X61522560Y5500000D01*
X61522560Y2500000D01*
X61571843Y2252235D01*
X61712191Y2042191D01*
X61922235Y1901843D01*
X62170000Y1852560D01*
X65170000Y1852560D01*
X65417765Y1901843D01*
X65627809Y2042191D01*
X65768157Y2252235D01*
X65814661Y2486030D01*
X67415635Y2486030D01*
X67575418Y2167261D01*
X68366187Y1857277D01*
X69215387Y1873503D01*
X69924582Y2167261D01*
X70084365Y2486030D01*
X68750000Y3820395D01*
X67415635Y2486030D01*
X65814661Y2486030D01*
X65817440Y2500000D01*
X65817440Y4383813D01*
X66607277Y4383813D01*
X66623503Y3534613D01*
X66917261Y2825418D01*
X67236030Y2665635D01*
X68570395Y4000000D01*
X68929605Y4000000D01*
X70263970Y2665635D01*
X70582739Y2825418D01*
X70892723Y3616187D01*
X70876497Y4465387D01*
X70582739Y5174582D01*
X70263970Y5334365D01*
X68929605Y4000000D01*
X68570395Y4000000D01*
X67236030Y5334365D01*
X66917261Y5174582D01*
X66607277Y4383813D01*
X65817440Y4383813D01*
X65817440Y5500000D01*
X65814662Y5513970D01*
X67415635Y5513970D01*
X68750000Y4179605D01*
X70084365Y5513970D01*
X69924582Y5832739D01*
X69133813Y6142723D01*
X68284613Y6126497D01*
X67575418Y5832739D01*
X67415635Y5513970D01*
X65814662Y5513970D01*
X65768157Y5747765D01*
X65627809Y5957809D01*
X65417765Y6098157D01*
X65170000Y6147440D01*
X62170000Y6147440D01*
X61922235Y6098157D01*
X61712191Y5957809D01*
X61571843Y5747765D01*
X61522560Y5500000D01*
X51734458Y5500000D01*
X51669425Y5543453D01*
X50756725Y5725000D01*
X50663275Y5725000D01*
X49750575Y5543453D01*
X48976825Y5026450D01*
X48459822Y4252700D01*
X48278275Y3340000D01*
X39141725Y3340000D01*
X38960178Y4252700D01*
X38443175Y5026450D01*
X37669425Y5543453D01*
X36756725Y5725000D01*
X36663275Y5725000D01*
X35750575Y5543453D01*
X34976825Y5026450D01*
X34459822Y4252700D01*
X34278275Y3340000D01*
X26649899Y3340000D01*
X26681725Y3500000D01*
X26500178Y4412700D01*
X25983175Y5186450D01*
X25209425Y5703453D01*
X24296725Y5885000D01*
X24203275Y5885000D01*
X23290575Y5703453D01*
X22516825Y5186450D01*
X21999822Y4412700D01*
X21818275Y3500000D01*
X13966009Y3500000D01*
X14350660Y3757015D01*
X14589858Y4115000D01*
X14999995Y4115000D01*
X15000000Y4114999D01*
X15282484Y4171190D01*
X15338675Y4182367D01*
X15625790Y4374210D01*
X16125787Y4874208D01*
X16125790Y4874210D01*
X16317633Y5161325D01*
X16352053Y5334365D01*
X16385001Y5500000D01*
X16385000Y5500005D01*
X16385000Y12714250D01*
X63635000Y12714250D01*
X63635000Y11883691D01*
X63731673Y11650302D01*
X63910301Y11471673D01*
X64143690Y11375000D01*
X65964250Y11375000D01*
X66123000Y11533750D01*
X66123000Y12873000D01*
X66377000Y12873000D01*
X66377000Y11533750D01*
X66535750Y11375000D01*
X68356310Y11375000D01*
X68589699Y11471673D01*
X68768327Y11650302D01*
X68865000Y11883691D01*
X68865000Y12714250D01*
X68706250Y12873000D01*
X66377000Y12873000D01*
X66123000Y12873000D01*
X63793750Y12873000D01*
X63635000Y12714250D01*
X16385000Y12714250D01*
X16385000Y13383420D01*
X17117888Y14116309D01*
X63635000Y14116309D01*
X63635000Y13285750D01*
X63793750Y13127000D01*
X66123000Y13127000D01*
X66123000Y14466250D01*
X66377000Y14466250D01*
X66377000Y13127000D01*
X68706250Y13127000D01*
X68865000Y13285750D01*
X68865000Y14116309D01*
X68768327Y14349698D01*
X68589699Y14528327D01*
X68356310Y14625000D01*
X66535750Y14625000D01*
X66377000Y14466250D01*
X66123000Y14466250D01*
X65964250Y14625000D01*
X64143690Y14625000D01*
X63910301Y14528327D01*
X63731673Y14349698D01*
X63635000Y14116309D01*
X17117888Y14116309D01*
X20166578Y17164999D01*
X38699994Y17164999D01*
X38699999Y17164998D01*
X38982483Y17221189D01*
X39038674Y17232366D01*
X39325789Y17424209D01*
X39325790Y17424210D01*
X39875787Y17974208D01*
X39875790Y17974210D01*
X40067633Y18261325D01*
X40092964Y18388673D01*
X40105673Y18452560D01*
X40150000Y18452560D01*
X40397765Y18501843D01*
X40607809Y18642191D01*
X40748157Y18852235D01*
X40797440Y19100000D01*
X40797440Y20900000D01*
X40748157Y21147765D01*
X40607809Y21357809D01*
X40397765Y21498157D01*
X40150000Y21547440D01*
X40135000Y21547440D01*
X40135000Y23952560D01*
X40600000Y23952560D01*
X40847765Y24001843D01*
X41057809Y24142191D01*
X41198157Y24352235D01*
X41247440Y24600000D01*
X41247440Y25900000D01*
X41198157Y26147765D01*
X41057809Y26357809D01*
X41030123Y26376309D01*
X42490000Y26376309D01*
X42490000Y25785750D01*
X42648750Y25627000D01*
X43623000Y25627000D01*
X43623000Y26726250D01*
X43877000Y26726250D01*
X43877000Y25627000D01*
X44851250Y25627000D01*
X45010000Y25785750D01*
X45010000Y26376309D01*
X44913327Y26609698D01*
X44734699Y26788327D01*
X44501310Y26885000D01*
X44035750Y26885000D01*
X43877000Y26726250D01*
X43623000Y26726250D01*
X43464250Y26885000D01*
X42998690Y26885000D01*
X42765301Y26788327D01*
X42586673Y26609698D01*
X42490000Y26376309D01*
X41030123Y26376309D01*
X40847765Y26498157D01*
X40600000Y26547440D01*
X39100000Y26547440D01*
X38852235Y26498157D01*
X38642191Y26357809D01*
X38501843Y26147765D01*
X38500000Y26138500D01*
X38498157Y26147765D01*
X38357809Y26357809D01*
X38147765Y26498157D01*
X37900000Y26547440D01*
X36400000Y26547440D01*
X36152235Y26498157D01*
X35942191Y26357809D01*
X35801843Y26147765D01*
X35752560Y25900000D01*
X35752560Y24600000D01*
X35801843Y24352235D01*
X35825000Y24317578D01*
X35825000Y21239411D01*
X35594519Y21085409D01*
X35440000Y20854155D01*
X35285481Y21085409D01*
X34787491Y21418155D01*
X34200072Y21535000D01*
X34139928Y21535000D01*
X33552509Y21418155D01*
X33054519Y21085409D01*
X32721773Y20587419D01*
X32604928Y20000000D01*
X32721773Y19412581D01*
X33040883Y18934999D01*
X28236549Y18934999D01*
X28288157Y19012235D01*
X28337440Y19260000D01*
X28337440Y21060000D01*
X28288157Y21307765D01*
X28147809Y21517809D01*
X27937765Y21658157D01*
X27690000Y21707440D01*
X25890000Y21707440D01*
X25642235Y21658157D01*
X25432191Y21517809D01*
X25291843Y21307765D01*
X25289534Y21296155D01*
X24867491Y21578155D01*
X24280072Y21695000D01*
X24219928Y21695000D01*
X23632509Y21578155D01*
X23134519Y21245409D01*
X22980000Y21014155D01*
X22825481Y21245409D01*
X22794738Y21265950D01*
X32165384Y30636597D01*
X40734682Y30636597D01*
X41013455Y29961914D01*
X41529199Y29445270D01*
X42203395Y29165319D01*
X42933403Y29164682D01*
X43608086Y29443455D01*
X44124730Y29959199D01*
X44404681Y30633395D01*
X44405318Y31363403D01*
X44126545Y32038086D01*
X43610801Y32554730D01*
X42936605Y32834681D01*
X42206597Y32835318D01*
X41531914Y32556545D01*
X41015270Y32040801D01*
X40735319Y31366605D01*
X40734682Y30636597D01*
X32165384Y30636597D01*
X37393786Y35864999D01*
X47320343Y35864999D01*
X47235000Y35435950D01*
X47235000Y34564050D01*
X47344233Y34014899D01*
X47655302Y33549352D01*
X48120849Y33238283D01*
X48670000Y33129050D01*
X49219151Y33238283D01*
X49684698Y33549352D01*
X49940000Y33931438D01*
X50195302Y33549352D01*
X50660849Y33238283D01*
X51210000Y33129050D01*
X51759151Y33238283D01*
X52224698Y33549352D01*
X52480000Y33931438D01*
X52735302Y33549352D01*
X52742778Y33544357D01*
X50854211Y31655791D01*
X50662368Y31368676D01*
X50662368Y31368675D01*
X50595000Y31030001D01*
X50595001Y31029996D01*
X50595001Y27770004D01*
X50595000Y27769999D01*
X50643474Y27526309D01*
X50662368Y27431324D01*
X50770161Y27270000D01*
X50844902Y27158142D01*
X50844803Y27045225D01*
X51017233Y26627914D01*
X51336235Y26308355D01*
X51753244Y26135197D01*
X52102560Y26134892D01*
X52102560Y25500000D01*
X52151843Y25252235D01*
X52292191Y25042191D01*
X52502235Y24901843D01*
X52750000Y24852560D01*
X53750000Y24852560D01*
X53997765Y24901843D01*
X54207809Y25042191D01*
X54348157Y25252235D01*
X54397440Y25500000D01*
X54397440Y26500000D01*
X54348157Y26747765D01*
X54207809Y26957809D01*
X53997765Y27098157D01*
X53750000Y27147440D01*
X53114894Y27147440D01*
X53115108Y27392606D01*
X53555375Y27423783D01*
X53823352Y27534783D01*
X53860499Y27749896D01*
X53250000Y28360395D01*
X53235858Y28346252D01*
X53056253Y28525857D01*
X53070395Y28540000D01*
X53429605Y28540000D01*
X54040104Y27929501D01*
X54255217Y27966648D01*
X54398112Y28394972D01*
X54366217Y28845375D01*
X54255217Y29113352D01*
X54040104Y29150499D01*
X53429605Y28540000D01*
X53070395Y28540000D01*
X52459896Y29150499D01*
X52365001Y29134112D01*
X52365001Y29330104D01*
X52639501Y29330104D01*
X53250000Y28719605D01*
X53860499Y29330104D01*
X53823352Y29545217D01*
X53395028Y29688112D01*
X52944625Y29656217D01*
X52676648Y29545217D01*
X52639501Y29330104D01*
X52365001Y29330104D01*
X52365001Y30663421D01*
X54375787Y32674208D01*
X54375790Y32674210D01*
X54567633Y32961325D01*
X54635000Y33300000D01*
X54635000Y33462690D01*
X54764698Y33549352D01*
X55020000Y33931438D01*
X55275302Y33549352D01*
X55740849Y33238283D01*
X56290000Y33129050D01*
X56839151Y33238283D01*
X57304698Y33549352D01*
X57615767Y34014899D01*
X57685406Y34365000D01*
X59504413Y34365000D01*
X59526843Y34252235D01*
X59667191Y34042191D01*
X59877235Y33901843D01*
X60125000Y33852560D01*
X61375000Y33852560D01*
X61622765Y33901843D01*
X61832809Y34042191D01*
X61973157Y34252235D01*
X61995587Y34365000D01*
X62674995Y34365000D01*
X62675000Y34364999D01*
X62966584Y34423000D01*
X63013675Y34432367D01*
X63300790Y34624210D01*
X64350018Y35673438D01*
X64385095Y35650000D01*
X64217191Y35537809D01*
X64076843Y35327765D01*
X64027560Y35080000D01*
X64027560Y34829140D01*
X63874210Y34675790D01*
X63682367Y34388675D01*
X63682367Y34388674D01*
X63614999Y34050000D01*
X63615000Y34049995D01*
X63615000Y32345001D01*
X59505003Y32345001D01*
X59166328Y32277634D01*
X58879213Y32085791D01*
X58879211Y32085788D01*
X58778423Y31985000D01*
X58020587Y31985000D01*
X57998157Y32097765D01*
X57857809Y32307809D01*
X57647765Y32448157D01*
X57400000Y32497440D01*
X56100000Y32497440D01*
X55852235Y32448157D01*
X55642191Y32307809D01*
X55501843Y32097765D01*
X55452560Y31850000D01*
X55452560Y30350000D01*
X55501843Y30102235D01*
X55642191Y29892191D01*
X55852235Y29751843D01*
X55861500Y29750000D01*
X55852235Y29748157D01*
X55642191Y29607809D01*
X55501843Y29397765D01*
X55452560Y29150000D01*
X55452560Y27650000D01*
X55501843Y27402235D01*
X55642191Y27192191D01*
X55852235Y27051843D01*
X55865000Y27049304D01*
X55865000Y25366579D01*
X55133420Y24635000D01*
X51920005Y24635000D01*
X51920000Y24635001D01*
X51637516Y24578810D01*
X51581325Y24567633D01*
X51294210Y24375790D01*
X51294208Y24375787D01*
X48411387Y21492967D01*
X48200072Y21535000D01*
X48139928Y21535000D01*
X47552509Y21418155D01*
X47054519Y21085409D01*
X46949036Y20927543D01*
X45022440Y22854140D01*
X45022440Y23750000D01*
X44973157Y23997765D01*
X44832809Y24207809D01*
X44771680Y24248654D01*
X44913327Y24390302D01*
X45010000Y24623691D01*
X45010000Y25214250D01*
X44851250Y25373000D01*
X43877000Y25373000D01*
X43877000Y25353000D01*
X43623000Y25353000D01*
X43623000Y25373000D01*
X42648750Y25373000D01*
X42490000Y25214250D01*
X42490000Y24623691D01*
X42586673Y24390302D01*
X42728320Y24248654D01*
X42667191Y24207809D01*
X42526843Y23997765D01*
X42477560Y23750000D01*
X42477560Y22250000D01*
X42526843Y22002235D01*
X42667191Y21792191D01*
X42877235Y21651843D01*
X43125000Y21602560D01*
X43770860Y21602560D01*
X45999208Y19374213D01*
X45999210Y19374210D01*
X46286325Y19182367D01*
X46342516Y19171190D01*
X46625000Y19114999D01*
X46625005Y19115000D01*
X46920610Y19115000D01*
X47054519Y18914591D01*
X47552509Y18581845D01*
X48139928Y18465000D01*
X48200072Y18465000D01*
X48787491Y18581845D01*
X49285481Y18914591D01*
X49440000Y19145845D01*
X49575000Y18943803D01*
X49575000Y18727208D01*
X49661397Y18292862D01*
X49813212Y18065655D01*
X49907434Y17924642D01*
X52134642Y15697434D01*
X52502862Y15451397D01*
X52937208Y15365000D01*
X61770000Y15365000D01*
X62204346Y15451397D01*
X62572566Y15697434D01*
X63740132Y16865000D01*
X64050333Y16865000D01*
X64059720Y16850951D01*
X64586908Y16498696D01*
X65208769Y16375000D01*
X67291231Y16375000D01*
X67913092Y16498696D01*
X68440280Y16850951D01*
X68792535Y17378139D01*
X68916231Y18000000D01*
X68845777Y18354197D01*
X72625787Y22134208D01*
X72625790Y22134210D01*
X72817633Y22421325D01*
X72817634Y22421326D01*
X72885001Y22760000D01*
X72885000Y22760005D01*
X72885000Y31249995D01*
X72885001Y31250000D01*
X72817633Y31588674D01*
X72817633Y31588675D01*
X72625790Y31875790D01*
X72625787Y31875792D01*
X69325790Y35175790D01*
X69292652Y35197932D01*
X69038675Y35367633D01*
X68982484Y35378810D01*
X68700000Y35435001D01*
X68699995Y35435000D01*
X67751504Y35435000D01*
X67682809Y35537809D01*
X67514905Y35650000D01*
X67682809Y35762191D01*
X67751504Y35865000D01*
X70601505Y35865000D01*
X70697932Y35631629D01*
X71129357Y35199449D01*
X71693330Y34965267D01*
X72303991Y34964735D01*
X72868371Y35197932D01*
X73038712Y35367975D01*
X73041843Y35352235D01*
X73182191Y35142191D01*
X73392235Y35001843D01*
X73640000Y34952560D01*
X75440000Y34952560D01*
X75687765Y35001843D01*
X75897809Y35142191D01*
X76038157Y35352235D01*
X76087440Y35600000D01*
X76087440Y37400000D01*
X76038157Y37647765D01*
X75897809Y37857809D01*
X75687765Y37998157D01*
X75440000Y38047440D01*
X75425000Y38047440D01*
X75425000Y38259995D01*
X75425001Y38260000D01*
X75357634Y38598674D01*
X75233135Y38785000D01*
X75165790Y38885790D01*
X75165787Y38885792D01*
X72025790Y42025790D01*
X71986462Y42052068D01*
X71738675Y42217633D01*
X71682484Y42228810D01*
X71525555Y42260026D01*
X71498157Y42397765D01*
X71357809Y42607809D01*
X71147765Y42748157D01*
X71119791Y42753721D01*
X71259699Y42811673D01*
X71438327Y42990302D01*
X71535000Y43223691D01*
X71535000Y43814250D01*
X71376250Y43973000D01*
X70377000Y43973000D01*
X70377000Y43953000D01*
X70123000Y43953000D01*
X70123000Y43973000D01*
X69123750Y43973000D01*
X68965000Y43814250D01*
X68965000Y43223691D01*
X69061673Y42990302D01*
X69240301Y42811673D01*
X69380209Y42753721D01*
X69352235Y42748157D01*
X69142191Y42607809D01*
X69001843Y42397765D01*
X68952560Y42150000D01*
X68952560Y40650000D01*
X69001843Y40402235D01*
X69142191Y40192191D01*
X69352235Y40051843D01*
X69600000Y40002560D01*
X70900000Y40002560D01*
X71147765Y40051843D01*
X71356862Y40191558D01*
X73524045Y38024375D01*
X73392235Y37998157D01*
X73182191Y37857809D01*
X73041843Y37647765D01*
X73038739Y37632161D01*
X72870643Y37800551D01*
X72306670Y38034733D01*
X71696009Y38035265D01*
X71131629Y37802068D01*
X70964269Y37635000D01*
X67751504Y37635000D01*
X67682809Y37737809D01*
X67472765Y37878157D01*
X67225000Y37927440D01*
X66575000Y37927440D01*
X66327235Y37878157D01*
X66117191Y37737809D01*
X65976843Y37527765D01*
X65950000Y37392815D01*
X65923157Y37527765D01*
X65835000Y37659700D01*
X65835000Y39644331D01*
X65872765Y39651843D01*
X66082809Y39792191D01*
X66223157Y40002235D01*
X66272440Y40250000D01*
X66272440Y41750000D01*
X66223157Y41997765D01*
X66082809Y42207809D01*
X66021680Y42248654D01*
X66163327Y42390302D01*
X66260000Y42623691D01*
X66260000Y43214250D01*
X66101250Y43373000D01*
X65127000Y43373000D01*
X65127000Y43353000D01*
X64873000Y43353000D01*
X64873000Y43373000D01*
X63898750Y43373000D01*
X63740000Y43214250D01*
X63740000Y42623691D01*
X63836673Y42390302D01*
X63978320Y42248654D01*
X63917191Y42207809D01*
X63776843Y41997765D01*
X63727560Y41750000D01*
X63727560Y40250000D01*
X63776843Y40002235D01*
X63917191Y39792191D01*
X64127235Y39651843D01*
X64165000Y39644331D01*
X64165000Y37659700D01*
X64144433Y37628920D01*
X63836325Y37567633D01*
X63549210Y37375790D01*
X63549208Y37375787D01*
X62308420Y36135000D01*
X61995587Y36135000D01*
X61973157Y36247765D01*
X61832809Y36457809D01*
X61771680Y36498654D01*
X61913327Y36640302D01*
X62010000Y36873691D01*
X62010000Y37464250D01*
X61851250Y37623000D01*
X60877000Y37623000D01*
X60877000Y37603000D01*
X60623000Y37603000D01*
X60623000Y37623000D01*
X59648750Y37623000D01*
X59490000Y37464250D01*
X59490000Y36873691D01*
X59586673Y36640302D01*
X59728320Y36498654D01*
X59667191Y36457809D01*
X59526843Y36247765D01*
X59504413Y36135000D01*
X57515608Y36135000D01*
X57304698Y36450648D01*
X57175000Y36537310D01*
X57175000Y36699995D01*
X57175001Y36700000D01*
X57107634Y37038674D01*
X56950254Y37274210D01*
X56915790Y37325790D01*
X56915787Y37325792D01*
X56365780Y37875800D01*
X56329562Y37900000D01*
X56078665Y38067643D01*
X56022474Y38078820D01*
X55739990Y38135011D01*
X55739985Y38135010D01*
X47903701Y38135010D01*
X47565026Y38067643D01*
X47277911Y37875800D01*
X47277909Y37875797D01*
X47037111Y37634999D01*
X43799964Y37634999D01*
X44124730Y37959199D01*
X44401738Y38626309D01*
X59490000Y38626309D01*
X59490000Y38035750D01*
X59648750Y37877000D01*
X60623000Y37877000D01*
X60623000Y38976250D01*
X60877000Y38976250D01*
X60877000Y37877000D01*
X61851250Y37877000D01*
X62010000Y38035750D01*
X62010000Y38626309D01*
X61913327Y38859698D01*
X61734699Y39038327D01*
X61501310Y39135000D01*
X61035750Y39135000D01*
X60877000Y38976250D01*
X60623000Y38976250D01*
X60464250Y39135000D01*
X59998690Y39135000D01*
X59765301Y39038327D01*
X59586673Y38859698D01*
X59490000Y38626309D01*
X44401738Y38626309D01*
X44404681Y38633395D01*
X44405318Y39363403D01*
X44126545Y40038086D01*
X43610801Y40554730D01*
X42936605Y40834681D01*
X42206597Y40835318D01*
X41531914Y40556545D01*
X41015270Y40040801D01*
X40735319Y39366605D01*
X40734682Y38636597D01*
X41013455Y37961914D01*
X41339801Y37634999D01*
X37027212Y37634999D01*
X37027207Y37635000D01*
X36744723Y37578809D01*
X36688532Y37567632D01*
X36401417Y37375789D01*
X36401415Y37375786D01*
X21084210Y22058582D01*
X21075713Y22045866D01*
X17365790Y25755790D01*
X17273235Y25817633D01*
X17078675Y25947633D01*
X17022484Y25958810D01*
X16740000Y26015001D01*
X16739995Y26015000D01*
X15526580Y26015000D01*
X16749064Y27237485D01*
X16877235Y27151843D01*
X17125000Y27102560D01*
X18375000Y27102560D01*
X18622765Y27151843D01*
X18832809Y27292191D01*
X18973157Y27502235D01*
X19022440Y27750000D01*
X19022440Y29250000D01*
X18973157Y29497765D01*
X18832809Y29707809D01*
X18771680Y29748654D01*
X18913327Y29890302D01*
X19010000Y30123691D01*
X19010000Y30714250D01*
X18851250Y30873000D01*
X17877000Y30873000D01*
X17877000Y30853000D01*
X17623000Y30853000D01*
X17623000Y30873000D01*
X16648750Y30873000D01*
X16490000Y30714250D01*
X16490000Y30123691D01*
X16586673Y29890302D01*
X16728320Y29748654D01*
X16667191Y29707809D01*
X16526843Y29497765D01*
X16493884Y29332066D01*
X16421325Y29317633D01*
X16134210Y29125790D01*
X16134208Y29125787D01*
X13972974Y26964554D01*
X13790000Y27000950D01*
X13240849Y26891717D01*
X12775302Y26580648D01*
X12520000Y26198562D01*
X12264698Y26580648D01*
X11799151Y26891717D01*
X11250000Y27000950D01*
X10700849Y26891717D01*
X10235302Y26580648D01*
X9980000Y26198562D01*
X9724698Y26580648D01*
X9595000Y26667310D01*
X9595000Y28143420D01*
X11875787Y30424208D01*
X11875790Y30424210D01*
X12067633Y30711325D01*
X12135000Y31050000D01*
X12135000Y31212690D01*
X12264698Y31299352D01*
X12363118Y31446648D01*
X12391843Y31302235D01*
X12532191Y31092191D01*
X12742235Y30951843D01*
X12990000Y30902560D01*
X14590000Y30902560D01*
X14837765Y30951843D01*
X14909836Y31000000D01*
X20379050Y31000000D01*
X20518731Y30297776D01*
X20916509Y29702459D01*
X21511826Y29304681D01*
X22214050Y29165000D01*
X22285950Y29165000D01*
X22988174Y29304681D01*
X23583491Y29702459D01*
X23981269Y30297776D01*
X24120950Y31000000D01*
X23981269Y31702224D01*
X23583491Y32297541D01*
X22988174Y32695319D01*
X22285950Y32835000D01*
X22214050Y32835000D01*
X21511826Y32695319D01*
X20916509Y32297541D01*
X20518731Y31702224D01*
X20379050Y31000000D01*
X14909836Y31000000D01*
X15047809Y31092191D01*
X15188157Y31302235D01*
X15237440Y31550000D01*
X15237440Y31876309D01*
X16490000Y31876309D01*
X16490000Y31285750D01*
X16648750Y31127000D01*
X17623000Y31127000D01*
X17623000Y32226250D01*
X17877000Y32226250D01*
X17877000Y31127000D01*
X18851250Y31127000D01*
X19010000Y31285750D01*
X19010000Y31876309D01*
X18913327Y32109698D01*
X18734699Y32288327D01*
X18501310Y32385000D01*
X18035750Y32385000D01*
X17877000Y32226250D01*
X17623000Y32226250D01*
X17464250Y32385000D01*
X16998690Y32385000D01*
X16765301Y32288327D01*
X16586673Y32109698D01*
X16490000Y31876309D01*
X15237440Y31876309D01*
X15237440Y33950000D01*
X15188157Y34197765D01*
X15047809Y34407809D01*
X14837765Y34548157D01*
X14590000Y34597440D01*
X12990000Y34597440D01*
X12742235Y34548157D01*
X12532191Y34407809D01*
X12391843Y34197765D01*
X12363118Y34053352D01*
X12264698Y34200648D01*
X11799151Y34511717D01*
X11250000Y34620950D01*
X10700849Y34511717D01*
X10235302Y34200648D01*
X9980000Y33818562D01*
X9724698Y34200648D01*
X9259151Y34511717D01*
X8710000Y34620950D01*
X8160849Y34511717D01*
X7695302Y34200648D01*
X7442493Y33822293D01*
X7094896Y34254500D01*
X6601819Y34524367D01*
X6519039Y34541904D01*
X6297000Y34419915D01*
X6297000Y32877000D01*
X6317000Y32877000D01*
X6317000Y32623000D01*
X6297000Y32623000D01*
X6297000Y31080085D01*
X6519039Y30958096D01*
X6601819Y30975633D01*
X7094896Y31245500D01*
X7442493Y31677707D01*
X7695302Y31299352D01*
X7702778Y31294357D01*
X5544210Y29135790D01*
X5352367Y28848675D01*
X5352367Y28848674D01*
X5284999Y28510000D01*
X5285000Y28509995D01*
X5285000Y26667310D01*
X5155302Y26580648D01*
X4844233Y26115101D01*
X4735000Y25565950D01*
X4735000Y24694050D01*
X4759467Y24571047D01*
X4244210Y24055790D01*
X4052367Y23768675D01*
X4052367Y23768674D01*
X3984999Y23430000D01*
X710000Y23430000D01*
X710000Y32623000D01*
X4735000Y32623000D01*
X4735000Y32223000D01*
X4892834Y31683517D01*
X5245104Y31245500D01*
X5738181Y30975633D01*
X5820961Y30958096D01*
X6043000Y31080085D01*
X6043000Y32623000D01*
X4735000Y32623000D01*
X710000Y32623000D01*
X710000Y33277000D01*
X4735000Y33277000D01*
X4735000Y32877000D01*
X6043000Y32877000D01*
X6043000Y34419915D01*
X5820961Y34541904D01*
X5738181Y34524367D01*
X5245104Y34254500D01*
X4892834Y33816483D01*
X4735000Y33277000D01*
X710000Y33277000D01*
X710000Y34864250D01*
X965000Y34864250D01*
X965000Y34273691D01*
X1061673Y34040302D01*
X1240301Y33861673D01*
X1473690Y33765000D01*
X1964250Y33765000D01*
X2123000Y33923750D01*
X2123000Y35023000D01*
X2377000Y35023000D01*
X2377000Y33923750D01*
X2535750Y33765000D01*
X3026310Y33765000D01*
X3259699Y33861673D01*
X3438327Y34040302D01*
X3535000Y34273691D01*
X3535000Y34864250D01*
X3376250Y35023000D01*
X2377000Y35023000D01*
X2123000Y35023000D01*
X1123750Y35023000D01*
X965000Y34864250D01*
X710000Y34864250D01*
X710000Y38600000D01*
X952560Y38600000D01*
X952560Y37100000D01*
X1001843Y36852235D01*
X1142191Y36642191D01*
X1352235Y36501843D01*
X1380209Y36496279D01*
X1240301Y36438327D01*
X1061673Y36259698D01*
X965000Y36026309D01*
X965000Y35435750D01*
X1123750Y35277000D01*
X2123000Y35277000D01*
X2123000Y35297000D01*
X2377000Y35297000D01*
X2377000Y35277000D01*
X3376250Y35277000D01*
X3535000Y35435750D01*
X3535000Y36026309D01*
X3438327Y36259698D01*
X3259699Y36438327D01*
X3119791Y36496279D01*
X3147765Y36501843D01*
X3357809Y36642191D01*
X3498157Y36852235D01*
X3520587Y36965000D01*
X4566814Y36965000D01*
X4642191Y36852191D01*
X4852235Y36711843D01*
X5100000Y36662560D01*
X6900000Y36662560D01*
X7147765Y36711843D01*
X7357809Y36852191D01*
X7498157Y37062235D01*
X7547440Y37310000D01*
X7547440Y39110000D01*
X12702560Y39110000D01*
X12702560Y37310000D01*
X12751843Y37062235D01*
X12892191Y36852191D01*
X13102235Y36711843D01*
X13350000Y36662560D01*
X15150000Y36662560D01*
X15397765Y36711843D01*
X15607809Y36852191D01*
X15748157Y37062235D01*
X15797440Y37310000D01*
X15797440Y39000000D01*
X20379050Y39000000D01*
X20518731Y38297776D01*
X20916509Y37702459D01*
X21511826Y37304681D01*
X22214050Y37165000D01*
X22285950Y37165000D01*
X22988174Y37304681D01*
X23583491Y37702459D01*
X23981269Y38297776D01*
X24120950Y39000000D01*
X23981269Y39702224D01*
X23583491Y40297541D01*
X22988174Y40695319D01*
X22285950Y40835000D01*
X22214050Y40835000D01*
X21511826Y40695319D01*
X20916509Y40297541D01*
X20518731Y39702224D01*
X20379050Y39000000D01*
X15797440Y39000000D01*
X15797440Y39110000D01*
X15748157Y39357765D01*
X15607809Y39567809D01*
X15397765Y39708157D01*
X15382161Y39711261D01*
X15550551Y39879357D01*
X15784733Y40443330D01*
X15785265Y41053991D01*
X15552068Y41618371D01*
X15120643Y42050551D01*
X14556670Y42284733D01*
X13946009Y42285265D01*
X13381629Y42052068D01*
X12949449Y41620643D01*
X12715267Y41056670D01*
X12714735Y40446009D01*
X12947932Y39881629D01*
X13117975Y39711288D01*
X13102235Y39708157D01*
X12892191Y39567809D01*
X12751843Y39357765D01*
X12702560Y39110000D01*
X7547440Y39110000D01*
X7498157Y39357765D01*
X7357809Y39567809D01*
X7147765Y39708157D01*
X7132161Y39711261D01*
X7300551Y39879357D01*
X7534733Y40443330D01*
X7535265Y41053991D01*
X7302068Y41618371D01*
X6870643Y42050551D01*
X6306670Y42284733D01*
X5696009Y42285265D01*
X5131629Y42052068D01*
X4699449Y41620643D01*
X4465267Y41056670D01*
X4464735Y40446009D01*
X4697932Y39881629D01*
X4867975Y39711288D01*
X4852235Y39708157D01*
X4642191Y39567809D01*
X4501843Y39357765D01*
X4452560Y39110000D01*
X4452560Y38735000D01*
X3520587Y38735000D01*
X3498157Y38847765D01*
X3357809Y39057809D01*
X3147765Y39198157D01*
X2900000Y39247440D01*
X1600000Y39247440D01*
X1352235Y39198157D01*
X1142191Y39057809D01*
X1001843Y38847765D01*
X952560Y38600000D01*
X710000Y38600000D01*
X710000Y42493000D01*
X47235000Y42493000D01*
X47235000Y42093000D01*
X47392834Y41553517D01*
X47745104Y41115500D01*
X48238181Y40845633D01*
X48320961Y40828096D01*
X48543000Y40950085D01*
X48543000Y42493000D01*
X47235000Y42493000D01*
X710000Y42493000D01*
X710000Y43147000D01*
X47235000Y43147000D01*
X47235000Y42747000D01*
X48543000Y42747000D01*
X48543000Y44289915D01*
X48797000Y44289915D01*
X48797000Y42747000D01*
X48817000Y42747000D01*
X48817000Y42493000D01*
X48797000Y42493000D01*
X48797000Y40950085D01*
X49019039Y40828096D01*
X49101819Y40845633D01*
X49594896Y41115500D01*
X49942493Y41547707D01*
X50195302Y41169352D01*
X50660849Y40858283D01*
X51210000Y40749050D01*
X51759151Y40858283D01*
X52224698Y41169352D01*
X52480000Y41551438D01*
X52735302Y41169352D01*
X53200849Y40858283D01*
X53750000Y40749050D01*
X54299151Y40858283D01*
X54764698Y41169352D01*
X54855000Y41304498D01*
X54855000Y41293691D01*
X54951673Y41060302D01*
X55130301Y40881673D01*
X55363690Y40785000D01*
X56004250Y40785000D01*
X56163000Y40943750D01*
X56163000Y42493000D01*
X56417000Y42493000D01*
X56417000Y40943750D01*
X56575750Y40785000D01*
X57216310Y40785000D01*
X57449699Y40881673D01*
X57628327Y41060302D01*
X57725000Y41293691D01*
X57725000Y42334250D01*
X57566250Y42493000D01*
X56417000Y42493000D01*
X56163000Y42493000D01*
X56143000Y42493000D01*
X56143000Y42747000D01*
X56163000Y42747000D01*
X56163000Y44296250D01*
X56417000Y44296250D01*
X56417000Y42747000D01*
X57566250Y42747000D01*
X57725000Y42905750D01*
X57725000Y43946309D01*
X57628327Y44179698D01*
X57449699Y44358327D01*
X57406287Y44376309D01*
X63740000Y44376309D01*
X63740000Y43785750D01*
X63898750Y43627000D01*
X64873000Y43627000D01*
X64873000Y44726250D01*
X65127000Y44726250D01*
X65127000Y43627000D01*
X66101250Y43627000D01*
X66260000Y43785750D01*
X66260000Y44376309D01*
X66163327Y44609698D01*
X65984699Y44788327D01*
X65751310Y44885000D01*
X65285750Y44885000D01*
X65127000Y44726250D01*
X64873000Y44726250D01*
X64714250Y44885000D01*
X64248690Y44885000D01*
X64015301Y44788327D01*
X63836673Y44609698D01*
X63740000Y44376309D01*
X57406287Y44376309D01*
X57216310Y44455000D01*
X56575750Y44455000D01*
X56417000Y44296250D01*
X56163000Y44296250D01*
X56004250Y44455000D01*
X55363690Y44455000D01*
X55130301Y44358327D01*
X54951673Y44179698D01*
X54855000Y43946309D01*
X54855000Y43935502D01*
X54764698Y44070648D01*
X54299151Y44381717D01*
X53750000Y44490950D01*
X53200849Y44381717D01*
X52735302Y44070648D01*
X52480000Y43688562D01*
X52224698Y44070648D01*
X51759151Y44381717D01*
X51210000Y44490950D01*
X50660849Y44381717D01*
X50195302Y44070648D01*
X49942493Y43692293D01*
X49594896Y44124500D01*
X49101819Y44394367D01*
X49019039Y44411904D01*
X48797000Y44289915D01*
X48543000Y44289915D01*
X48320961Y44411904D01*
X48238181Y44394367D01*
X47745104Y44124500D01*
X47392834Y43686483D01*
X47235000Y43147000D01*
X710000Y43147000D01*
X710000Y44976309D01*
X68965000Y44976309D01*
X68965000Y44385750D01*
X69123750Y44227000D01*
X70123000Y44227000D01*
X70123000Y45326250D01*
X70377000Y45326250D01*
X70377000Y44227000D01*
X71376250Y44227000D01*
X71535000Y44385750D01*
X71535000Y44976309D01*
X71438327Y45209698D01*
X71259699Y45388327D01*
X71026310Y45485000D01*
X70535750Y45485000D01*
X70377000Y45326250D01*
X70123000Y45326250D01*
X69964250Y45485000D01*
X69473690Y45485000D01*
X69240301Y45388327D01*
X69061673Y45209698D01*
X68965000Y44976309D01*
X710000Y44976309D01*
X710000Y48290000D01*
X77040000Y48290000D01*
X77040000Y710000D01*
G36*
X20803433Y18934999D02*
X19800004Y18934999D01*
X19799999Y18935000D01*
X19548638Y18885000D01*
X19461324Y18867632D01*
X19174209Y18675789D01*
X19174207Y18675786D01*
X14874210Y14375790D01*
X14682367Y14088675D01*
X14682367Y14088674D01*
X14614999Y13750000D01*
X14615000Y13749995D01*
X14615000Y5885000D01*
X14589858Y5885000D01*
X14350660Y6242985D01*
X13864025Y6568144D01*
X13290000Y6682325D01*
X12715975Y6568144D01*
X12229340Y6242985D01*
X12020000Y5929685D01*
X11810660Y6242985D01*
X11635000Y6360357D01*
X11635000Y6514995D01*
X11635001Y6515000D01*
X11567633Y6853674D01*
X11567633Y6853675D01*
X11375790Y7140790D01*
X11375787Y7140792D01*
X7604999Y10911581D01*
X7604999Y12374726D01*
X8020807Y12047297D01*
X8633000Y11875000D01*
X9623000Y11875000D01*
X9623000Y13373000D01*
X9877000Y13373000D01*
X9877000Y11875000D01*
X10867000Y11875000D01*
X11479193Y12047297D01*
X11978851Y12440754D01*
X12289905Y12995472D01*
X12320218Y13121135D01*
X12200740Y13373000D01*
X9877000Y13373000D01*
X9623000Y13373000D01*
X9603000Y13373000D01*
X9603000Y13627000D01*
X9623000Y13627000D01*
X9623000Y15125000D01*
X9877000Y15125000D01*
X9877000Y13627000D01*
X12200740Y13627000D01*
X12320218Y13878865D01*
X12289905Y14004528D01*
X11978851Y14559246D01*
X11479193Y14952703D01*
X10867000Y15125000D01*
X9877000Y15125000D01*
X9623000Y15125000D01*
X8633000Y15125000D01*
X8020807Y14952703D01*
X7604999Y14625274D01*
X7604999Y16895380D01*
X7770000Y16862560D01*
X11730000Y16862560D01*
X11977765Y16911843D01*
X12187809Y17052191D01*
X12328157Y17262235D01*
X12348598Y17365000D01*
X12730000Y17365000D01*
X13164346Y17451397D01*
X13532566Y17697434D01*
X14860133Y19025000D01*
X20668737Y19025000D01*
X20803433Y18934999D01*
X20803433Y18934999D01*
G37*
X20803433Y18934999D02*
X19800004Y18934999D01*
X19799999Y18935000D01*
X19548638Y18885000D01*
X19461324Y18867632D01*
X19174209Y18675789D01*
X19174207Y18675786D01*
X14874210Y14375790D01*
X14682367Y14088675D01*
X14682367Y14088674D01*
X14614999Y13750000D01*
X14615000Y13749995D01*
X14615000Y5885000D01*
X14589858Y5885000D01*
X14350660Y6242985D01*
X13864025Y6568144D01*
X13290000Y6682325D01*
X12715975Y6568144D01*
X12229340Y6242985D01*
X12020000Y5929685D01*
X11810660Y6242985D01*
X11635000Y6360357D01*
X11635000Y6514995D01*
X11635001Y6515000D01*
X11567633Y6853674D01*
X11567633Y6853675D01*
X11375790Y7140790D01*
X11375787Y7140792D01*
X7604999Y10911581D01*
X7604999Y12374726D01*
X8020807Y12047297D01*
X8633000Y11875000D01*
X9623000Y11875000D01*
X9623000Y13373000D01*
X9877000Y13373000D01*
X9877000Y11875000D01*
X10867000Y11875000D01*
X11479193Y12047297D01*
X11978851Y12440754D01*
X12289905Y12995472D01*
X12320218Y13121135D01*
X12200740Y13373000D01*
X9877000Y13373000D01*
X9623000Y13373000D01*
X9603000Y13373000D01*
X9603000Y13627000D01*
X9623000Y13627000D01*
X9623000Y15125000D01*
X9877000Y15125000D01*
X9877000Y13627000D01*
X12200740Y13627000D01*
X12320218Y13878865D01*
X12289905Y14004528D01*
X11978851Y14559246D01*
X11479193Y14952703D01*
X10867000Y15125000D01*
X9877000Y15125000D01*
X9623000Y15125000D01*
X8633000Y15125000D01*
X8020807Y14952703D01*
X7604999Y14625274D01*
X7604999Y16895380D01*
X7770000Y16862560D01*
X11730000Y16862560D01*
X11977765Y16911843D01*
X12187809Y17052191D01*
X12328157Y17262235D01*
X12348598Y17365000D01*
X12730000Y17365000D01*
X13164346Y17451397D01*
X13532566Y17697434D01*
X14860133Y19025000D01*
X20668737Y19025000D01*
X20803433Y18934999D01*
G36*
X65976843Y33772235D02*
X66077000Y33622341D01*
X66077000Y33543750D01*
X66235750Y33385000D01*
X66401310Y33385000D01*
X66437369Y33399936D01*
X66575000Y33372560D01*
X67225000Y33372560D01*
X67472765Y33421843D01*
X67682809Y33562191D01*
X67751504Y33665000D01*
X68333420Y33665000D01*
X71115000Y30883421D01*
X71115000Y23126579D01*
X67559966Y19571545D01*
X67291231Y19625000D01*
X65208769Y19625000D01*
X64586908Y19501304D01*
X64059720Y19149049D01*
X64050333Y19135000D01*
X63270000Y19135000D01*
X62835654Y19048603D01*
X62467434Y18802566D01*
X61299868Y17635000D01*
X53407340Y17635000D01*
X52589780Y18452560D01*
X54150000Y18452560D01*
X54397765Y18501843D01*
X54607809Y18642191D01*
X54748157Y18852235D01*
X54797440Y19100000D01*
X54797440Y20900000D01*
X54748157Y21147765D01*
X54607809Y21357809D01*
X54397765Y21498157D01*
X54150000Y21547440D01*
X52350000Y21547440D01*
X52102235Y21498157D01*
X51892191Y21357809D01*
X51751843Y21147765D01*
X51749534Y21136155D01*
X51327491Y21418155D01*
X50920659Y21499079D01*
X52286579Y22865000D01*
X55499995Y22865000D01*
X55500000Y22864999D01*
X55782484Y22921190D01*
X55838675Y22932367D01*
X56125790Y23124210D01*
X56125791Y23124211D01*
X57375787Y24374208D01*
X57375790Y24374210D01*
X57567633Y24661325D01*
X57578077Y24713833D01*
X60804750Y24713833D01*
X61024275Y24182543D01*
X61430405Y23775703D01*
X61961311Y23555252D01*
X62536167Y23554750D01*
X63067457Y23774275D01*
X63474297Y24180405D01*
X63694748Y24711311D01*
X63695250Y25286167D01*
X63475725Y25817457D01*
X63069595Y26224297D01*
X62732551Y26364250D01*
X65715000Y26364250D01*
X65715000Y25773691D01*
X65811673Y25540302D01*
X65990301Y25361673D01*
X66223690Y25265000D01*
X66714250Y25265000D01*
X66873000Y25423750D01*
X66873000Y26523000D01*
X67127000Y26523000D01*
X67127000Y25423750D01*
X67285750Y25265000D01*
X67776310Y25265000D01*
X68009699Y25361673D01*
X68188327Y25540302D01*
X68285000Y25773691D01*
X68285000Y26364250D01*
X68126250Y26523000D01*
X67127000Y26523000D01*
X66873000Y26523000D01*
X65873750Y26523000D01*
X65715000Y26364250D01*
X62732551Y26364250D01*
X62538689Y26444748D01*
X61963833Y26445250D01*
X61432543Y26225725D01*
X61025703Y25819595D01*
X60805252Y25288689D01*
X60804750Y24713833D01*
X57578077Y24713833D01*
X57593492Y24791326D01*
X57635001Y25000000D01*
X57635000Y25000005D01*
X57635000Y27049304D01*
X57647765Y27051843D01*
X57857809Y27192191D01*
X57872269Y27213833D01*
X58304750Y27213833D01*
X58524275Y26682543D01*
X58930405Y26275703D01*
X59461311Y26055252D01*
X60036167Y26054750D01*
X60567457Y26274275D01*
X60974297Y26680405D01*
X61194748Y27211311D01*
X61195250Y27786167D01*
X60975725Y28317457D01*
X60569595Y28724297D01*
X60038689Y28944748D01*
X59463833Y28945250D01*
X58932543Y28725725D01*
X58525703Y28319595D01*
X58305252Y27788689D01*
X58304750Y27213833D01*
X57872269Y27213833D01*
X57998157Y27402235D01*
X58047440Y27650000D01*
X58047440Y29150000D01*
X57998157Y29397765D01*
X57857809Y29607809D01*
X57647765Y29748157D01*
X57638500Y29750000D01*
X57647765Y29751843D01*
X57857809Y29892191D01*
X57998157Y30102235D01*
X58020587Y30215000D01*
X59144997Y30215000D01*
X59145002Y30214999D01*
X59427486Y30271190D01*
X59483677Y30282367D01*
X59770792Y30474210D01*
X59871583Y30575001D01*
X60924139Y30575001D01*
X60805252Y30288689D01*
X60804750Y29713833D01*
X61024275Y29182543D01*
X61430405Y28775703D01*
X61961311Y28555252D01*
X62536167Y28554750D01*
X63067457Y28774275D01*
X63474297Y29180405D01*
X63694748Y29711311D01*
X63695221Y30253199D01*
X63874210Y30074210D01*
X65224208Y28724213D01*
X65224210Y28724210D01*
X65428615Y28587632D01*
X65511325Y28532367D01*
X65567516Y28521190D01*
X65724445Y28489974D01*
X65751843Y28352235D01*
X65892191Y28142191D01*
X66102235Y28001843D01*
X66130209Y27996279D01*
X65990301Y27938327D01*
X65811673Y27759698D01*
X65715000Y27526309D01*
X65715000Y26935750D01*
X65873750Y26777000D01*
X66873000Y26777000D01*
X66873000Y26797000D01*
X67127000Y26797000D01*
X67127000Y26777000D01*
X68126250Y26777000D01*
X68285000Y26935750D01*
X68285000Y27526309D01*
X68188327Y27759698D01*
X68009699Y27938327D01*
X67869791Y27996279D01*
X67897765Y28001843D01*
X68107809Y28142191D01*
X68248157Y28352235D01*
X68297440Y28600000D01*
X68297440Y30100000D01*
X68248157Y30347765D01*
X68107809Y30557809D01*
X67897765Y30698157D01*
X67650000Y30747440D01*
X66350000Y30747440D01*
X66102235Y30698157D01*
X65893138Y30558442D01*
X65385000Y31066580D01*
X65385000Y33384495D01*
X65462631Y33399936D01*
X65498690Y33385000D01*
X65664250Y33385000D01*
X65823000Y33543750D01*
X65823000Y33622341D01*
X65923157Y33772235D01*
X65950000Y33907185D01*
X65976843Y33772235D01*
X65976843Y33772235D01*
G37*
X65976843Y33772235D02*
X66077000Y33622341D01*
X66077000Y33543750D01*
X66235750Y33385000D01*
X66401310Y33385000D01*
X66437369Y33399936D01*
X66575000Y33372560D01*
X67225000Y33372560D01*
X67472765Y33421843D01*
X67682809Y33562191D01*
X67751504Y33665000D01*
X68333420Y33665000D01*
X71115000Y30883421D01*
X71115000Y23126579D01*
X67559966Y19571545D01*
X67291231Y19625000D01*
X65208769Y19625000D01*
X64586908Y19501304D01*
X64059720Y19149049D01*
X64050333Y19135000D01*
X63270000Y19135000D01*
X62835654Y19048603D01*
X62467434Y18802566D01*
X61299868Y17635000D01*
X53407340Y17635000D01*
X52589780Y18452560D01*
X54150000Y18452560D01*
X54397765Y18501843D01*
X54607809Y18642191D01*
X54748157Y18852235D01*
X54797440Y19100000D01*
X54797440Y20900000D01*
X54748157Y21147765D01*
X54607809Y21357809D01*
X54397765Y21498157D01*
X54150000Y21547440D01*
X52350000Y21547440D01*
X52102235Y21498157D01*
X51892191Y21357809D01*
X51751843Y21147765D01*
X51749534Y21136155D01*
X51327491Y21418155D01*
X50920659Y21499079D01*
X52286579Y22865000D01*
X55499995Y22865000D01*
X55500000Y22864999D01*
X55782484Y22921190D01*
X55838675Y22932367D01*
X56125790Y23124210D01*
X56125791Y23124211D01*
X57375787Y24374208D01*
X57375790Y24374210D01*
X57567633Y24661325D01*
X57578077Y24713833D01*
X60804750Y24713833D01*
X61024275Y24182543D01*
X61430405Y23775703D01*
X61961311Y23555252D01*
X62536167Y23554750D01*
X63067457Y23774275D01*
X63474297Y24180405D01*
X63694748Y24711311D01*
X63695250Y25286167D01*
X63475725Y25817457D01*
X63069595Y26224297D01*
X62732551Y26364250D01*
X65715000Y26364250D01*
X65715000Y25773691D01*
X65811673Y25540302D01*
X65990301Y25361673D01*
X66223690Y25265000D01*
X66714250Y25265000D01*
X66873000Y25423750D01*
X66873000Y26523000D01*
X67127000Y26523000D01*
X67127000Y25423750D01*
X67285750Y25265000D01*
X67776310Y25265000D01*
X68009699Y25361673D01*
X68188327Y25540302D01*
X68285000Y25773691D01*
X68285000Y26364250D01*
X68126250Y26523000D01*
X67127000Y26523000D01*
X66873000Y26523000D01*
X65873750Y26523000D01*
X65715000Y26364250D01*
X62732551Y26364250D01*
X62538689Y26444748D01*
X61963833Y26445250D01*
X61432543Y26225725D01*
X61025703Y25819595D01*
X60805252Y25288689D01*
X60804750Y24713833D01*
X57578077Y24713833D01*
X57593492Y24791326D01*
X57635001Y25000000D01*
X57635000Y25000005D01*
X57635000Y27049304D01*
X57647765Y27051843D01*
X57857809Y27192191D01*
X57872269Y27213833D01*
X58304750Y27213833D01*
X58524275Y26682543D01*
X58930405Y26275703D01*
X59461311Y26055252D01*
X60036167Y26054750D01*
X60567457Y26274275D01*
X60974297Y26680405D01*
X61194748Y27211311D01*
X61195250Y27786167D01*
X60975725Y28317457D01*
X60569595Y28724297D01*
X60038689Y28944748D01*
X59463833Y28945250D01*
X58932543Y28725725D01*
X58525703Y28319595D01*
X58305252Y27788689D01*
X58304750Y27213833D01*
X57872269Y27213833D01*
X57998157Y27402235D01*
X58047440Y27650000D01*
X58047440Y29150000D01*
X57998157Y29397765D01*
X57857809Y29607809D01*
X57647765Y29748157D01*
X57638500Y29750000D01*
X57647765Y29751843D01*
X57857809Y29892191D01*
X57998157Y30102235D01*
X58020587Y30215000D01*
X59144997Y30215000D01*
X59145002Y30214999D01*
X59427486Y30271190D01*
X59483677Y30282367D01*
X59770792Y30474210D01*
X59871583Y30575001D01*
X60924139Y30575001D01*
X60805252Y30288689D01*
X60804750Y29713833D01*
X61024275Y29182543D01*
X61430405Y28775703D01*
X61961311Y28555252D01*
X62536167Y28554750D01*
X63067457Y28774275D01*
X63474297Y29180405D01*
X63694748Y29711311D01*
X63695221Y30253199D01*
X63874210Y30074210D01*
X65224208Y28724213D01*
X65224210Y28724210D01*
X65428615Y28587632D01*
X65511325Y28532367D01*
X65567516Y28521190D01*
X65724445Y28489974D01*
X65751843Y28352235D01*
X65892191Y28142191D01*
X66102235Y28001843D01*
X66130209Y27996279D01*
X65990301Y27938327D01*
X65811673Y27759698D01*
X65715000Y27526309D01*
X65715000Y26935750D01*
X65873750Y26777000D01*
X66873000Y26777000D01*
X66873000Y26797000D01*
X67127000Y26797000D01*
X67127000Y26777000D01*
X68126250Y26777000D01*
X68285000Y26935750D01*
X68285000Y27526309D01*
X68188327Y27759698D01*
X68009699Y27938327D01*
X67869791Y27996279D01*
X67897765Y28001843D01*
X68107809Y28142191D01*
X68248157Y28352235D01*
X68297440Y28600000D01*
X68297440Y30100000D01*
X68248157Y30347765D01*
X68107809Y30557809D01*
X67897765Y30698157D01*
X67650000Y30747440D01*
X66350000Y30747440D01*
X66102235Y30698157D01*
X65893138Y30558442D01*
X65385000Y31066580D01*
X65385000Y33384495D01*
X65462631Y33399936D01*
X65498690Y33385000D01*
X65664250Y33385000D01*
X65823000Y33543750D01*
X65823000Y33622341D01*
X65923157Y33772235D01*
X65950000Y33907185D01*
X65976843Y33772235D01*
M02*
